<?xml version="1.0" encoding="utf-8"?>
<!-- Generator: Adobe Illustrator 21.1.0, SVG Export Plug-In . SVG Version: 6.00 Build 0)  -->
<svg version="1.1" id="Layer_1" xmlns="http://www.w3.org/2000/svg" xmlns:xlink="http://www.w3.org/1999/xlink" x="0px" y="0px"
	 viewBox="0 0 324 250" style="enable-background:new 0 0 324 250;" xml:space="preserve">
<style type="text/css">
	.st0{fill:none;stroke:#DDDDDD;}
	.st1{fill:none;}
	.st2{fill:#E45756;}
	.st3{fill:#4C78A8;}
	.st4{fill:#F58518;}
	.st5{font-family:'Helvetica';}
	.st6{font-size:10px;}
	.st7{font-family:'Helvetica-Bold';}
	.st8{font-size:11px;}
	.st9{fill:none;stroke:#888888;}
	.st10{font-family:'Helvetica-Light';}
</style>
<line class="st0" x1="250.5" y1="11.5" x2="250.5" y2="211.5"/>
<g transform="translate(50,11)">
	<g>
		<g transform="translate(0,0)">
			<g>
				<g>
					<g transform="translate(0.5,200.5)">
						<path class="st1" d="M0,0L0,0L0,0L0,0z"/>
						<g>
							<g>
								<line class="st0" x1="0" y1="-200" x2="0" y2="0"/>
								<line class="st0" x1="42" y1="-200" x2="42" y2="0"/>
								<line class="st0" x1="83" y1="-200" x2="83" y2="0"/>
								<line class="st0" x1="125" y1="-200" x2="125" y2="0"/>
								<line class="st0" x1="167" y1="-200" x2="167" y2="0"/>
							</g>
						</g>
					</g>
				</g>
				<g>
					<g transform="translate(0.5,0.5)">
						<path class="st1" d="M0,0L0,0L0,0L0,0z"/>
						<g>
							<g>
								<line class="st0" x1="0" y1="200" x2="200" y2="200"/>
								<line class="st0" x1="0" y1="160" x2="200" y2="160"/>
								<line class="st0" x1="0" y1="120" x2="200" y2="120"/>
								<line class="st0" x1="0" y1="80" x2="200" y2="80"/>
								<line class="st0" x1="0" y1="40" x2="200" y2="40"/>
								<line class="st0" x1="0" y1="0" x2="200" y2="0"/>
							</g>
						</g>
					</g>
				</g>
				<g>
					<path class="st2" d="M102.7,119.7c0,1.5-1.2,2.7-2.7,2.7s-2.7-1.2-2.7-2.7s1.2-2.7,2.7-2.7S102.7,118.2,102.7,119.7"/>
					<path class="st3" d="M70.2,88.4c0,1.5-1.2,2.7-2.7,2.7s-2.7-1.2-2.7-2.7s1.2-2.7,2.7-2.7S70.2,86.9,70.2,88.4"/>
					<path class="st4" d="M69.3,78.2c0,1.5-1.2,2.7-2.7,2.7s-2.7-1.2-2.7-2.7s1.2-2.7,2.7-2.7S69.3,76.7,69.3,78.2"/>
				</g>
				<g>
					<g transform="translate(218,0)">
						<path class="st1" d="M0,0h51v56H0V0z"/>
						<g>
							<g>
								<g transform="translate(0,16)">
									<path class="st1" d="M0,0L0,0L0,0L0,0z"/>
									<g>
										<g>
											<path class="st3" d="M10,5c0,2.8-2.2,5-5,5S0,7.8,0,5s2.2-5,5-5S10,2.2,10,5"/>
											<path class="st4" d="M10,20c0,2.8-2.2,5-5,5s-5-2.2-5-5s2.2-5,5-5S10,17.2,10,20"/>
											<path class="st2" d="M10,35c0,2.8-2.2,5-5,5s-5-2.2-5-5s2.2-5,5-5S10,32.2,10,35"/>
										</g>
										<g>
											<text transform="matrix(1 0 0 1 18 8)" class="st5 st6">Europe</text>
											<text transform="matrix(1 0 0 1 18 23)" class="st5 st6">Japan</text>
											<text transform="matrix(1 0 0 1 18 38)" class="st5 st6">USA</text>
										</g>
									</g>
								</g>
							</g>
							<g>
								<text transform="matrix(1 0 0 1 0 10)" class="st7 st8">Origin</text>
							</g>
						</g>
					</g>
				</g>
				<g>
					<g transform="translate(0.5,200.5)">
						<path class="st1" d="M0,0L0,0L0,0L0,0z"/>
						<g>
							<g>
								<line class="st9" x1="0" y1="0" x2="0" y2="5"/>
								<line class="st9" x1="42" y1="0" x2="42" y2="5"/>
								<line class="st9" x1="83" y1="0" x2="83" y2="5"/>
								<line class="st9" x1="125" y1="0" x2="125" y2="5"/>
								<line class="st9" x1="167" y1="0" x2="167" y2="5"/>
							</g>
							<g>
								<text transform="matrix(1 0 0 1 -2.7808 16)" class="st5 st6">0</text>
								<text transform="matrix(1 0 0 1 36.1051 16)" class="st10 st6">50</text>
								<text transform="matrix(1 0 0 1 74.9911 16)" class="st10 st6">100</text>
								<text transform="matrix(1 0 0 1 116.6577 16)" class="st10 st6">150</text>
								<text transform="matrix(1 0 0 1 158.3244 16)" class="st10 st6">200</text>
							</g>
							<g>
								<line class="st9" x1="0" y1="0" x2="200" y2="0"/>
							</g>
							<g>
								<text transform="matrix(1 0 0 1 37.7571 31)" class="st7 st8">AVERAGE(Horsepower)</text>
							</g>
						</g>
					</g>
				</g>
				<g>
					<g transform="translate(0.5,0.5)">
						<path class="st1" d="M0,0L0,0L0,0L0,0z"/>
						<g>
							<g>
								<line class="st9" x1="0" y1="200" x2="-5" y2="200"/>
								<line class="st9" x1="0" y1="160" x2="-5" y2="160"/>
								<line class="st9" x1="0" y1="120" x2="-5" y2="120"/>
								<line class="st9" x1="0" y1="80" x2="-5" y2="80"/>
								<line class="st9" x1="0" y1="40" x2="-5" y2="40"/>
								<line class="st9" x1="0" y1="0" x2="-5" y2="0"/>
							</g>
							<g>
								<text transform="matrix(1 0 0 1 -12.5615 203)" class="st5 st6">0</text>
								<text transform="matrix(1 0 0 1 -18.123 163)" class="st10 st6">10</text>
								<text transform="matrix(1 0 0 1 -18.123 123)" class="st10 st6">20</text>
								<text transform="matrix(1 0 0 1 -18.123 83)" class="st10 st6">30</text>
								<text transform="matrix(1 0 0 1 -18.123 43)" class="st10 st6">40</text>
								<text transform="matrix(1 0 0 1 -18.123 3)" class="st5 st6">50</text>
							</g>
							<g>
								<line class="st9" x1="0" y1="200" x2="0" y2="0"/>
							</g>
							<g>
								<text transform="matrix(6.123234e-17 -1 1 6.123234e-17 -34 173.2484)" class="st7 st8">AVERAGE(Miles Per Gallon)</text>
							</g>
						</g>
					</g>
				</g>
			</g>
		</g>
	</g>
</g>
<text transform="matrix(1 0 0 1 238.8244 227.5)" class="st5 st6">240</text>
</svg>
