<?xml version="1.0" encoding="utf-8"?>
<!-- Generator: Adobe Illustrator 21.1.0, SVG Export Plug-In . SVG Version: 6.00 Build 0)  -->
<svg version="1.1" id="Layer_1" xmlns="http://www.w3.org/2000/svg" xmlns:xlink="http://www.w3.org/1999/xlink" x="0px" y="0px"
	 viewBox="0 0 324 244" style="enable-background:new 0 0 324 244;" xml:space="preserve">
<style type="text/css">
	.st0{fill:none;stroke:#DDDDDD;}
	.st1{fill:none;}
	.st2{fill:#E45756;}
	.st3{fill:#4C78A8;}
	.st4{fill:#F58518;}
	.st5{font-family:'Helvetica';}
	.st6{font-size:10px;}
	.st7{font-family:'Helvetica-Bold';}
	.st8{font-size:11px;}
	.st9{fill:none;stroke:#888888;}
</style>
<line class="st0" x1="50.5" y1="5.5" x2="250.5" y2="5.5"/>
<g transform="translate(50,5)">
	<g>
		<g transform="translate(0,0)">
			<g>
				<g>
					<g transform="translate(0.5,200.5)">
						<path class="st1" d="M0,0L0,0L0,0L0,0z"/>
						<g>
							<g>
								<line class="st0" x1="0" y1="-200" x2="0" y2="0"/>
								<line class="st0" x1="40" y1="-200" x2="40" y2="0"/>
								<line class="st0" x1="80" y1="-200" x2="80" y2="0"/>
								<line class="st0" x1="120" y1="-200" x2="120" y2="0"/>
								<line class="st0" x1="160" y1="-200" x2="160" y2="0"/>
								<line class="st0" x1="200" y1="-200" x2="200" y2="0"/>
							</g>
						</g>
					</g>
				</g>
				<g>
					<g transform="translate(0.5,0.5)">
						<path class="st1" d="M0,0L0,0L0,0L0,0z"/>
						<g>
							<g>
								<line class="st0" x1="0" y1="200" x2="200" y2="200"/>
								<line class="st0" x1="0" y1="158" x2="200" y2="158"/>
								<line class="st0" x1="0" y1="117" x2="200" y2="117"/>
								<line class="st0" x1="0" y1="75" x2="200" y2="75"/>
								<line class="st0" x1="0" y1="33" x2="200" y2="33"/>
							</g>
						</g>
					</g>
				</g>
				<g>
					<path class="st2" d="M101.9,100.1c0,1.5-1.2,2.7-2.7,2.7s-2.7-1.2-2.7-2.7s1.2-2.7,2.7-2.7S101.9,98.6,101.9,100.1"/>
					<path class="st3" d="M46.5,132.5c0,1.5-1.2,2.7-2.7,2.7S41,134,41,132.5s1.2-2.7,2.7-2.7S46.5,131,46.5,132.5"/>
					<path class="st4" d="M43.8,133.5c0,1.5-1.2,2.7-2.7,2.7s-2.7-1.2-2.7-2.7s1.2-2.7,2.7-2.7S43.8,132,43.8,133.5"/>
				</g>
				<g>
					<g transform="translate(218,0)">
						<path class="st1" d="M0,0h51v56H0V0z"/>
						<g>
							<g>
								<g transform="translate(0,16)">
									<path class="st1" d="M0,0L0,0L0,0L0,0z"/>
									<g>
										<g>
											<path class="st3" d="M10,5c0,2.8-2.2,5-5,5S0,7.8,0,5s2.2-5,5-5S10,2.2,10,5"/>
											<path class="st4" d="M10,20c0,2.8-2.2,5-5,5s-5-2.2-5-5s2.2-5,5-5S10,17.2,10,20"/>
											<path class="st2" d="M10,35c0,2.8-2.2,5-5,5s-5-2.2-5-5s2.2-5,5-5S10,32.2,10,35"/>
										</g>
										<g>
											<text transform="matrix(1 0 0 1 18 8)" class="st5 st6">Europe</text>
											<text transform="matrix(1 0 0 1 18 23)" class="st5 st6">Japan</text>
											<text transform="matrix(1 0 0 1 18 38)" class="st5 st6">USA</text>
										</g>
									</g>
								</g>
							</g>
							<g>
								<text transform="matrix(1 0 0 1 0 10)" class="st7 st8">Origin</text>
							</g>
						</g>
					</g>
				</g>
				<g>
					<g transform="translate(0.5,200.5)">
						<path class="st1" d="M0,0L0,0L0,0L0,0z"/>
						<g>
							<g>
								<line class="st9" x1="0" y1="0" x2="0" y2="5"/>
								<line class="st9" x1="40" y1="0" x2="40" y2="5"/>
								<line class="st9" x1="80" y1="0" x2="80" y2="5"/>
								<line class="st9" x1="120" y1="0" x2="120" y2="5"/>
								<line class="st9" x1="160" y1="0" x2="160" y2="5"/>
								<line class="st9" x1="200" y1="0" x2="200" y2="5"/>
							</g>
							<g>
								<text transform="matrix(1 0 0 1 -2.7808 16)" class="st5 st6">0</text>
								<text transform="matrix(1 0 0 1 31.6577 16)" class="st5 st6">100</text>
								<text transform="matrix(1 0 0 1 71.6577 16)" class="st5 st6">200</text>
								<text transform="matrix(1 0 0 1 111.6577 16)" class="st5 st6">300</text>
								<text transform="matrix(1 0 0 1 151.6577 16)" class="st5 st6">400</text>
								<text transform="matrix(1 0 0 1 191.6577 16)" class="st5 st6">500</text>
							</g>
							<g>
								<line class="st9" x1="0" y1="0" x2="200" y2="0"/>
							</g>
							<g>
								<text transform="matrix(1 0 0 1 33.7798 31)" class="st7 st8">AVERAGE(Displacement)</text>
							</g>
						</g>
					</g>
				</g>
				<g>
					<g transform="translate(0.5,0.5)">
						<path class="st1" d="M0,0L0,0L0,0L0,0z"/>
						<g>
							<g>
								<line class="st9" x1="0" y1="200" x2="-5" y2="200"/>
								<line class="st9" x1="0" y1="158" x2="-5" y2="158"/>
								<line class="st9" x1="0" y1="117" x2="-5" y2="117"/>
								<line class="st9" x1="0" y1="75" x2="-5" y2="75"/>
								<line class="st9" x1="0" y1="33" x2="-5" y2="33"/>
							</g>
							<g>
								<text transform="matrix(1 0 0 1 -12.5615 203)" class="st5 st6">0</text>
								<text transform="matrix(1 0 0 1 -18.123 161.3333)" class="st5 st6">50</text>
								<text transform="matrix(1 0 0 1 -23.6846 119.6667)" class="st5 st6">100</text>
								<text transform="matrix(1 0 0 1 -23.6846 78)" class="st5 st6">150</text>
								<text transform="matrix(1 0 0 1 -23.6846 36.3333)" class="st5 st6">200</text>
							</g>
							<g>
								<line class="st9" x1="0" y1="200" x2="0" y2="0"/>
							</g>
							<g>
								<text transform="matrix(6.123234e-17 -1 1 6.123234e-17 -34 162.2425)" class="st7 st8">AVERAGE(Horsepower)</text>
							</g>
						</g>
					</g>
				</g>
			</g>
		</g>
	</g>
</g>
</svg>
