<?xml version="1.0" encoding="utf-8"?>
<!-- Generator: Adobe Illustrator 21.1.0, SVG Export Plug-In . SVG Version: 6.00 Build 0)  -->
<svg version="1.1" id="Layer_1" xmlns="http://www.w3.org/2000/svg" xmlns:xlink="http://www.w3.org/1999/xlink" x="0px" y="0px"
	 viewBox="0 0 324 250" style="enable-background:new 0 0 324 250;" xml:space="preserve">
<style type="text/css">
	.st0{fill:none;}
	.st1{fill:none;stroke:#DDDDDD;}
	.st2{fill:#E45756;}
	.st3{fill:#4C78A8;}
	.st4{fill:#F58518;}
	.st5{font-family:'Helvetica';}
	.st6{font-size:10px;}
	.st7{font-family:'Helvetica-Bold';}
	.st8{font-size:11px;}
	.st9{fill:none;stroke:#888888;}
	.st10{font-family:'Helvetica-Light';}
</style>
<g transform="translate(50,11)">
	<g>
		<g transform="translate(0,0)">
			<g>
				<g>
					<g transform="translate(0.5,200.5)">
						<path class="st0" d="M0,0L0,0L0,0L0,0z"/>
						<g>
							<g>
								<line class="st1" x1="0" y1="-200" x2="0" y2="0"/>
								<line class="st1" x1="33" y1="-200" x2="33" y2="0"/>
								<line class="st1" x1="67" y1="-200" x2="67" y2="0"/>
								<line class="st1" x1="100" y1="-200" x2="100" y2="0"/>
								<line class="st1" x1="133" y1="-200" x2="133" y2="0"/>
								<line class="st1" x1="167" y1="-200" x2="167" y2="0"/>
								<line class="st1" x1="200" y1="-200" x2="200" y2="0"/>
							</g>
						</g>
					</g>
				</g>
				<g>
					<g transform="translate(0.5,0.5)">
						<path class="st0" d="M0,0L0,0L0,0L0,0z"/>
						<g>
							<g>
								<line class="st1" x1="0" y1="200" x2="200" y2="200"/>
								<line class="st1" x1="0" y1="171" x2="200" y2="171"/>
								<line class="st1" x1="0" y1="143" x2="200" y2="143"/>
								<line class="st1" x1="0" y1="114" x2="200" y2="114"/>
								<line class="st1" x1="0" y1="86" x2="200" y2="86"/>
								<line class="st1" x1="0" y1="57" x2="200" y2="57"/>
								<line class="st1" x1="0" y1="29" x2="200" y2="29"/>
								<line class="st1" x1="0" y1="0" x2="200" y2="0"/>
							</g>
						</g>
					</g>
				</g>
				<g>
					<path class="st2" d="M202.6,85.2c0,1.5-1.2,2.7-2.7,2.7s-2.7-1.2-2.7-2.7s1.2-2.7,2.7-2.7S202.6,83.7,202.6,85.2"/>
					<path class="st3" d="M137.7,40.6c0,1.5-1.2,2.7-2.7,2.7s-2.7-1.2-2.7-2.7s1.2-2.7,2.7-2.7S137.7,39.1,137.7,40.6"/>
					<path class="st4" d="M135.8,26c0,1.5-1.2,2.7-2.7,2.7s-2.7-1.2-2.7-2.7c0-1.5,1.2-2.7,2.7-2.7S135.8,24.5,135.8,26"/>
				</g>
				<g>
					<g transform="translate(218,0)">
						<path class="st0" d="M0,0h51v56H0V0z"/>
						<g>
							<g>
								<g transform="translate(0,16)">
									<path class="st0" d="M0,0L0,0L0,0L0,0z"/>
									<g>
										<g>
											<path class="st3" d="M10,5c0,2.8-2.2,5-5,5S0,7.8,0,5s2.2-5,5-5S10,2.2,10,5"/>
											<path class="st4" d="M10,20c0,2.8-2.2,5-5,5s-5-2.2-5-5s2.2-5,5-5S10,17.2,10,20"/>
											<path class="st2" d="M10,35c0,2.8-2.2,5-5,5s-5-2.2-5-5s2.2-5,5-5S10,32.2,10,35"/>
										</g>
										<g>
											<text transform="matrix(1 0 0 1 18 8)" class="st5 st6">Europe</text>
											<text transform="matrix(1 0 0 1 18 23)" class="st5 st6">Japan</text>
											<text transform="matrix(1 0 0 1 18 38)" class="st5 st6">USA</text>
										</g>
									</g>
								</g>
							</g>
							<g>
								<text transform="matrix(1 0 0 1 0 10)" class="st7 st8">Origin</text>
							</g>
						</g>
					</g>
				</g>
				<g>
					<g transform="translate(0.5,200.5)">
						<path class="st0" d="M0,0L0,0L0,0L0,0z"/>
						<g>
							<g>
								<line class="st9" x1="0" y1="0" x2="0" y2="5"/>
								<line class="st9" x1="33" y1="0" x2="33" y2="5"/>
								<line class="st9" x1="67" y1="0" x2="67" y2="5"/>
								<line class="st9" x1="100" y1="0" x2="100" y2="5"/>
								<line class="st9" x1="133" y1="0" x2="133" y2="5"/>
								<line class="st9" x1="167" y1="0" x2="167" y2="5"/>
								<line class="st9" x1="200" y1="0" x2="200" y2="5"/>
							</g>
							<g>
								<text transform="matrix(1 0 0 1 -2.7808 16)" class="st5 st6">0</text>
								<text transform="matrix(1 0 0 1 27.7718 16)" class="st10 st6">20</text>
								<text transform="matrix(1 0 0 1 61.1051 16)" class="st10 st6">40</text>
								<text transform="matrix(1 0 0 1 94.4385 16)" class="st10 st6">60</text>
								<text transform="matrix(1 0 0 1 127.7718 16)" class="st10 st6">80</text>
								<text transform="matrix(1 0 0 1 158.3244 16)" class="st10 st6">100</text>
								<text transform="matrix(1 0 0 1 191.6577 16)" class="st5 st6">120</text>
							</g>
							<g>
								<line class="st9" x1="0" y1="0" x2="200" y2="0"/>
							</g>
							<g>
								<text transform="matrix(1 0 0 1 37.7571 31)" class="st7 st8">AVERAGE(Horsepower)</text>
							</g>
						</g>
					</g>
				</g>
				<g>
					<g transform="translate(0.5,0.5)">
						<path class="st0" d="M0,0L0,0L0,0L0,0z"/>
						<g>
							<g>
								<line class="st9" x1="0" y1="200" x2="-5" y2="200"/>
								<line class="st9" x1="0" y1="171" x2="-5" y2="171"/>
								<line class="st9" x1="0" y1="143" x2="-5" y2="143"/>
								<line class="st9" x1="0" y1="114" x2="-5" y2="114"/>
								<line class="st9" x1="0" y1="86" x2="-5" y2="86"/>
								<line class="st9" x1="0" y1="57" x2="-5" y2="57"/>
								<line class="st9" x1="0" y1="29" x2="-5" y2="29"/>
								<line class="st9" x1="0" y1="0" x2="-5" y2="0"/>
							</g>
							<g>
								<text transform="matrix(1 0 0 1 -12.5615 203)" class="st5 st6">0</text>
								<text transform="matrix(1 0 0 1 -12.5615 174.4286)" class="st10 st6">5</text>
								<text transform="matrix(1 0 0 1 -18.123 145.8572)" class="st10 st6">10</text>
								<text transform="matrix(1 0 0 1 -18.123 117.2857)" class="st10 st6">15</text>
								<text transform="matrix(1 0 0 1 -18.123 88.7143)" class="st10 st6">20</text>
								<text transform="matrix(1 0 0 1 -18.123 60.1429)" class="st10 st6">25</text>
								<text transform="matrix(1 0 0 1 -18.123 31.5714)" class="st10 st6">30</text>
								<text transform="matrix(1 0 0 1 -18.123 3)" class="st5 st6">35</text>
							</g>
							<g>
								<line class="st9" x1="0" y1="200" x2="0" y2="0"/>
							</g>
							<g>
								<text transform="matrix(6.123234e-17 -1 1 6.123234e-17 -34 173.2484)" class="st7 st8">AVERAGE(Miles Per Gallon)</text>
							</g>
						</g>
					</g>
				</g>
			</g>
		</g>
	</g>
</g>
</svg>
