<?xml version="1.0" encoding="utf-8"?>
<!-- Generator: Adobe Illustrator 21.1.0, SVG Export Plug-In . SVG Version: 6.00 Build 0)  -->
<svg version="1.1" id="Layer_1" xmlns="http://www.w3.org/2000/svg" xmlns:xlink="http://www.w3.org/1999/xlink" x="0px" y="0px"
	 viewBox="0 0 324 250" style="enable-background:new 0 0 324 250;" xml:space="preserve">
<style type="text/css">
	.st0{fill:none;}
	.st1{fill:none;stroke:#DDDDDD;}
	.st2{opacity:0.7;fill:#E45756;enable-background:new    ;}
	.st3{opacity:0.7;fill:#F58518;enable-background:new    ;}
	.st4{opacity:0.7;fill:#4C78A8;enable-background:new    ;}
	.st5{font-family:'Helvetica';}
	.st6{font-size:10px;}
	.st7{font-family:'Helvetica-Bold';}
	.st8{font-size:11px;}
	.st9{fill:none;stroke:#888888;}
	.st10{font-family:'Helvetica-Light';}
</style>
<g transform="translate(50,11)">
	<g>
		<g transform="translate(0,0)">
			<g>
				<g>
					<g transform="translate(0.5,200.5)">
						<path class="st0" d="M0,0L0,0L0,0L0,0z"/>
						<g>
							<g>
								<line class="st1" x1="0" y1="-200" x2="0" y2="0"/>
								<line class="st1" x1="42" y1="-200" x2="42" y2="0"/>
								<line class="st1" x1="83" y1="-200" x2="83" y2="0"/>
								<line class="st1" x1="125" y1="-200" x2="125" y2="0"/>
								<line class="st1" x1="167" y1="-200" x2="167" y2="0"/>
							</g>
						</g>
					</g>
				</g>
				<g>
					<g transform="translate(0.5,0.5)">
						<path class="st0" d="M0,0L0,0L0,0L0,0z"/>
						<g>
							<g>
								<line class="st1" x1="0" y1="200" x2="200" y2="200"/>
								<line class="st1" x1="0" y1="160" x2="200" y2="160"/>
								<line class="st1" x1="0" y1="120" x2="200" y2="120"/>
								<line class="st1" x1="0" y1="80" x2="200" y2="80"/>
								<line class="st1" x1="0" y1="40" x2="200" y2="40"/>
								<line class="st1" x1="0" y1="0" x2="200" y2="0"/>
							</g>
						</g>
					</g>
				</g>
				<g>
					<path class="st2" d="M111.1,128c0,1.5-1.2,2.7-2.7,2.7s-2.7-1.2-2.7-2.7s1.2-2.7,2.7-2.7S111.1,126.5,111.1,128"/>
					<path class="st2" d="M140.2,140c0,1.5-1.2,2.7-2.7,2.7s-2.7-1.2-2.7-2.7s1.2-2.7,2.7-2.7S140.2,138.5,140.2,140"/>
					<path class="st2" d="M127.7,128c0,1.5-1.2,2.7-2.7,2.7s-2.7-1.2-2.7-2.7s1.2-2.7,2.7-2.7S127.7,126.5,127.7,128"/>
					<path class="st2" d="M127.7,136c0,1.5-1.2,2.7-2.7,2.7s-2.7-1.2-2.7-2.7s1.2-2.7,2.7-2.7S127.7,134.5,127.7,136"/>
					<path class="st2" d="M119.4,132c0,1.5-1.2,2.7-2.7,2.7s-2.7-1.2-2.7-2.7s1.2-2.7,2.7-2.7S119.4,130.5,119.4,132"/>
					<path class="st2" d="M167.7,140c0,1.5-1.2,2.7-2.7,2.7s-2.7-1.2-2.7-2.7s1.2-2.7,2.7-2.7S167.7,138.5,167.7,140"/>
					<path class="st2" d="M186.1,144c0,1.5-1.2,2.7-2.7,2.7s-2.7-1.2-2.7-2.7s1.2-2.7,2.7-2.7S186.1,142.5,186.1,144"/>
					<path class="st2" d="M181.9,144c0,1.5-1.2,2.7-2.7,2.7s-2.7-1.2-2.7-2.7s1.2-2.7,2.7-2.7S181.9,142.5,181.9,144"/>
					<path class="st2" d="M190.2,144c0,1.5-1.2,2.7-2.7,2.7s-2.7-1.2-2.7-2.7s1.2-2.7,2.7-2.7S190.2,142.5,190.2,144"/>
					<path class="st2" d="M161.1,140c0,1.5-1.2,2.7-2.7,2.7s-2.7-1.2-2.7-2.7s1.2-2.7,2.7-2.7S161.1,138.5,161.1,140"/>
					<path class="st2" d="M144.4,140c0,1.5-1.2,2.7-2.7,2.7s-2.7-1.2-2.7-2.7s1.2-2.7,2.7-2.7S144.4,138.5,144.4,140"/>
					<path class="st2" d="M136.1,144c0,1.5-1.2,2.7-2.7,2.7s-2.7-1.2-2.7-2.7s1.2-2.7,2.7-2.7S136.1,142.5,136.1,144"/>
					<path class="st2" d="M127.7,140c0,1.5-1.2,2.7-2.7,2.7s-2.7-1.2-2.7-2.7s1.2-2.7,2.7-2.7S127.7,138.5,127.7,140"/>
					<path class="st2" d="M190.2,144c0,1.5-1.2,2.7-2.7,2.7s-2.7-1.2-2.7-2.7s1.2-2.7,2.7-2.7S190.2,142.5,190.2,144"/>
					<path class="st3" d="M81.9,104c0,1.5-1.2,2.7-2.7,2.7s-2.7-1.2-2.7-2.7s1.2-2.7,2.7-2.7S81.9,102.5,81.9,104"/>
					<path class="st2" d="M81.9,112c0,1.5-1.2,2.7-2.7,2.7s-2.7-1.2-2.7-2.7s1.2-2.7,2.7-2.7S81.9,110.5,81.9,112"/>
					<path class="st2" d="M83.6,128c0,1.5-1.2,2.7-2.7,2.7s-2.7-1.2-2.7-2.7s1.2-2.7,2.7-2.7S83.6,126.5,83.6,128"/>
					<path class="st2" d="M73.6,116c0,1.5-1.2,2.7-2.7,2.7s-2.7-1.2-2.7-2.7s1.2-2.7,2.7-2.7S73.6,114.5,73.6,116"/>
					<path class="st3" d="M76.1,92c0,1.5-1.2,2.7-2.7,2.7s-2.7-1.2-2.7-2.7s1.2-2.7,2.7-2.7S76.1,90.5,76.1,92"/>
					<path class="st4" d="M41.1,96c0,1.5-1.2,2.7-2.7,2.7s-2.7-1.2-2.7-2.7s1.2-2.7,2.7-2.7S41.1,94.5,41.1,96"/>
					<path class="st4" d="M75.2,100c0,1.5-1.2,2.7-2.7,2.7s-2.7-1.2-2.7-2.7s1.2-2.7,2.7-2.7S75.2,98.5,75.2,100"/>
					<path class="st4" d="M77.7,104c0,1.5-1.2,2.7-2.7,2.7s-2.7-1.2-2.7-2.7s1.2-2.7,2.7-2.7S77.7,102.5,77.7,104"/>
					<path class="st4" d="M81.9,100c0,1.5-1.2,2.7-2.7,2.7s-2.7-1.2-2.7-2.7s1.2-2.7,2.7-2.7S81.9,98.5,81.9,100"/>
					<path class="st4" d="M96.9,96c0,1.5-1.2,2.7-2.7,2.7s-2.7-1.2-2.7-2.7s1.2-2.7,2.7-2.7S96.9,94.5,96.9,96"/>
					<path class="st2" d="M77.7,116c0,1.5-1.2,2.7-2.7,2.7s-2.7-1.2-2.7-2.7s1.2-2.7,2.7-2.7S77.7,114.5,77.7,116"/>
					<path class="st2" d="M181.9,160c0,1.5-1.2,2.7-2.7,2.7s-2.7-1.2-2.7-2.7s1.2-2.7,2.7-2.7S181.9,158.5,181.9,160"/>
					<path class="st2" d="M169.4,160c0,1.5-1.2,2.7-2.7,2.7s-2.7-1.2-2.7-2.7s1.2-2.7,2.7-2.7S169.4,158.5,169.4,160"/>
					<path class="st2" d="M177.7,156c0,1.5-1.2,2.7-2.7,2.7s-2.7-1.2-2.7-2.7s1.2-2.7,2.7-2.7S177.7,154.5,177.7,156"/>
					<path class="st2" d="M163.6,164c0,1.5-1.2,2.7-2.7,2.7s-2.7-1.2-2.7-2.7s1.2-2.7,2.7-2.7S163.6,162.5,163.6,164"/>
					<path class="st3" d="M76.1,92c0,1.5-1.2,2.7-2.7,2.7s-2.7-1.2-2.7-2.7s1.2-2.7,2.7-2.7S76.1,90.5,76.1,92"/>
					<path class="st2" d="M77.7,88c0,1.5-1.2,2.7-2.7,2.7s-2.7-1.2-2.7-2.7s1.2-2.7,2.7-2.7S77.7,86.5,77.7,88"/>
					<path class="st3" d="M81.9,100c0,1.5-1.2,2.7-2.7,2.7s-2.7-1.2-2.7-2.7s1.2-2.7,2.7-2.7S81.9,98.5,81.9,100"/>
					<path class="st2" d="M86.1,124c0,1.5-1.2,2.7-2.7,2.7s-2.7-1.2-2.7-2.7s1.2-2.7,2.7-2.7S86.1,122.5,86.1,124"/>
					<path class="st2" d="M90.2,136c0,1.5-1.2,2.7-2.7,2.7s-2.7-1.2-2.7-2.7s1.2-2.7,2.7-2.7S90.2,134.5,90.2,136"/>
					<path class="st2" d="M86.1,132c0,1.5-1.2,2.7-2.7,2.7s-2.7-1.2-2.7-2.7s1.2-2.7,2.7-2.7S86.1,130.5,86.1,132"/>
					<path class="st2" d="M76.1,124c0,1.5-1.2,2.7-2.7,2.7s-2.7-1.2-2.7-2.7s1.2-2.7,2.7-2.7S76.1,122.5,76.1,124"/>
					<path class="st2" d="M86.1,128c0,1.5-1.2,2.7-2.7,2.7s-2.7-1.2-2.7-2.7s1.2-2.7,2.7-2.7S86.1,126.5,86.1,128"/>
					<path class="st2" d="M140.2,144c0,1.5-1.2,2.7-2.7,2.7s-2.7-1.2-2.7-2.7s1.2-2.7,2.7-2.7S140.2,142.5,140.2,144"/>
					<path class="st2" d="M148.6,144c0,1.5-1.2,2.7-2.7,2.7s-2.7-1.2-2.7-2.7s1.2-2.7,2.7-2.7S148.6,142.5,148.6,144"/>
					<path class="st2" d="M130.2,144c0,1.5-1.2,2.7-2.7,2.7s-2.7-1.2-2.7-2.7s1.2-2.7,2.7-2.7S130.2,142.5,130.2,144"/>
					<path class="st2" d="M127.7,144c0,1.5-1.2,2.7-2.7,2.7s-2.7-1.2-2.7-2.7s1.2-2.7,2.7-2.7S127.7,142.5,127.7,144"/>
					<path class="st2" d="M152.7,152c0,1.5-1.2,2.7-2.7,2.7s-2.7-1.2-2.7-2.7s1.2-2.7,2.7-2.7S152.7,150.5,152.7,152"/>
					<path class="st2" d="M144.4,148c0,1.5-1.2,2.7-2.7,2.7s-2.7-1.2-2.7-2.7s1.2-2.7,2.7-2.7S144.4,146.5,144.4,148"/>
					<path class="st2" d="M148.6,148c0,1.5-1.2,2.7-2.7,2.7s-2.7-1.2-2.7-2.7s1.2-2.7,2.7-2.7S148.6,146.5,148.6,148"/>
					<path class="st2" d="M94.4,128c0,1.5-1.2,2.7-2.7,2.7s-2.7-1.2-2.7-2.7s1.2-2.7,2.7-2.7S94.4,126.5,94.4,128"/>
					<path class="st2" d="M62.7,112c0,1.5-1.2,2.7-2.7,2.7s-2.7-1.2-2.7-2.7s1.2-2.7,2.7-2.7S62.7,110.5,62.7,112"/>
					<path class="st2" d="M86.1,124c0,1.5-1.2,2.7-2.7,2.7s-2.7-1.2-2.7-2.7s1.2-2.7,2.7-2.7S86.1,122.5,86.1,124"/>
					<path class="st2" d="M76.1,128c0,1.5-1.2,2.7-2.7,2.7s-2.7-1.2-2.7-2.7s1.2-2.7,2.7-2.7S76.1,126.5,76.1,128"/>
					<path class="st2" d="M74.4,108c0,1.5-1.2,2.7-2.7,2.7s-2.7-1.2-2.7-2.7s1.2-2.7,2.7-2.7S74.4,106.5,74.4,108"/>
					<path class="st4" d="M77.7,88c0,1.5-1.2,2.7-2.7,2.7s-2.7-1.2-2.7-2.7s1.2-2.7,2.7-2.7S77.7,86.5,77.7,88"/>
					<path class="st4" d="M61.1,80c0,1.5-1.2,2.7-2.7,2.7s-2.7-1.2-2.7-2.7s1.2-2.7,2.7-2.7S61.1,78.5,61.1,80"/>
					<path class="st4" d="M66.1,80c0,1.5-1.2,2.7-2.7,2.7s-2.7-1.2-2.7-2.7s1.2-2.7,2.7-2.7S66.1,78.5,66.1,80"/>
					<path class="st3" d="M56.9,76c0,1.5-1.2,2.7-2.7,2.7s-2.7-1.2-2.7-2.7s1.2-2.7,2.7-2.7S56.9,74.5,56.9,76"/>
					<path class="st3" d="M60.2,60c0,1.5-1.2,2.7-2.7,2.7s-2.7-1.2-2.7-2.7s1.2-2.7,2.7-2.7S60.2,58.5,60.2,60"/>
					<path class="st4" d="M52.7,92c0,1.5-1.2,2.7-2.7,2.7s-2.7-1.2-2.7-2.7s1.2-2.7,2.7-2.7S52.7,90.5,52.7,92"/>
					<path class="st2" d="M61.1,96c0,1.5-1.2,2.7-2.7,2.7s-2.7-1.2-2.7-2.7s1.2-2.7,2.7-2.7S61.1,94.5,61.1,96"/>
					<path class="st3" d="M81.9,104c0,1.5-1.2,2.7-2.7,2.7s-2.7-1.2-2.7-2.7s1.2-2.7,2.7-2.7S81.9,102.5,81.9,104"/>
					<path class="st2" d="M69.4,100c0,1.5-1.2,2.7-2.7,2.7s-2.7-1.2-2.7-2.7s1.2-2.7,2.7-2.7S69.4,98.5,69.4,100"/>
					<path class="st4" d="M47.7,108c0,1.5-1.2,2.7-2.7,2.7s-2.7-1.2-2.7-2.7s1.2-2.7,2.7-2.7S47.7,106.5,47.7,108"/>
					<path class="st2" d="M77.7,120c0,1.5-1.2,2.7-2.7,2.7s-2.7-1.2-2.7-2.7s1.2-2.7,2.7-2.7S77.7,118.5,77.7,120"/>
					<path class="st2" d="M74.4,116c0,1.5-1.2,2.7-2.7,2.7s-2.7-1.2-2.7-2.7s1.2-2.7,2.7-2.7S74.4,114.5,74.4,116"/>
					<path class="st2" d="M140.2,148c0,1.5-1.2,2.7-2.7,2.7s-2.7-1.2-2.7-2.7s1.2-2.7,2.7-2.7S140.2,146.5,140.2,148"/>
					<path class="st2" d="M148.6,144c0,1.5-1.2,2.7-2.7,2.7s-2.7-1.2-2.7-2.7s1.2-2.7,2.7-2.7S148.6,142.5,148.6,144"/>
					<path class="st2" d="M127.7,140c0,1.5-1.2,2.7-2.7,2.7s-2.7-1.2-2.7-2.7s1.2-2.7,2.7-2.7S127.7,138.5,127.7,140"/>
					<path class="st2" d="M130.2,144c0,1.5-1.2,2.7-2.7,2.7s-2.7-1.2-2.7-2.7s1.2-2.7,2.7-2.7S130.2,142.5,130.2,144"/>
					<path class="st2" d="M127.7,132c0,1.5-1.2,2.7-2.7,2.7s-2.7-1.2-2.7-2.7s1.2-2.7,2.7-2.7S127.7,130.5,127.7,132"/>
					<path class="st2" d="M176.1,156c0,1.5-1.2,2.7-2.7,2.7s-2.7-1.2-2.7-2.7s1.2-2.7,2.7-2.7S176.1,154.5,176.1,156"/>
					<path class="st2" d="M131.9,148c0,1.5-1.2,2.7-2.7,2.7s-2.7-1.2-2.7-2.7s1.2-2.7,2.7-2.7S131.9,146.5,131.9,148"/>
					<path class="st2" d="M136.1,152c0,1.5-1.2,2.7-2.7,2.7s-2.7-1.2-2.7-2.7s1.2-2.7,2.7-2.7S136.1,150.5,136.1,152"/>
					<path class="st2" d="M161.1,148c0,1.5-1.2,2.7-2.7,2.7s-2.7-1.2-2.7-2.7s1.2-2.7,2.7-2.7S161.1,146.5,161.1,148"/>
					<path class="st3" d="M83.6,124c0,1.5-1.2,2.7-2.7,2.7s-2.7-1.2-2.7-2.7s1.2-2.7,2.7-2.7S83.6,122.5,83.6,124"/>
					<path class="st2" d="M127.7,140c0,1.5-1.2,2.7-2.7,2.7s-2.7-1.2-2.7-2.7s1.2-2.7,2.7-2.7S127.7,138.5,127.7,140"/>
					<path class="st2" d="M111.1,148c0,1.5-1.2,2.7-2.7,2.7s-2.7-1.2-2.7-2.7s1.2-2.7,2.7-2.7S111.1,146.5,111.1,148"/>
					<path class="st2" d="M119.4,148c0,1.5-1.2,2.7-2.7,2.7s-2.7-1.2-2.7-2.7s1.2-2.7,2.7-2.7S119.4,146.5,119.4,148"/>
					<path class="st2" d="M127.7,144c0,1.5-1.2,2.7-2.7,2.7s-2.7-1.2-2.7-2.7s1.2-2.7,2.7-2.7S127.7,142.5,127.7,144"/>
					<path class="st4" d="M96.1,128c0,1.5-1.2,2.7-2.7,2.7s-2.7-1.2-2.7-2.7s1.2-2.7,2.7-2.7S96.1,126.5,96.1,128"/>
					<path class="st4" d="M66.1,112c0,1.5-1.2,2.7-2.7,2.7s-2.7-1.2-2.7-2.7s1.2-2.7,2.7-2.7S66.1,110.5,66.1,112"/>
					<path class="st4" d="M75.2,116c0,1.5-1.2,2.7-2.7,2.7s-2.7-1.2-2.7-2.7s1.2-2.7,2.7-2.7S75.2,114.5,75.2,116"/>
					<path class="st4" d="M60.2,96c0,1.5-1.2,2.7-2.7,2.7s-2.7-1.2-2.7-2.7s1.2-2.7,2.7-2.7S60.2,94.5,60.2,96"/>
					<path class="st2" d="M74.4,112c0,1.5-1.2,2.7-2.7,2.7s-2.7-1.2-2.7-2.7s1.2-2.7,2.7-2.7S74.4,110.5,74.4,112"/>
					<path class="st3" d="M79.4,88c0,1.5-1.2,2.7-2.7,2.7s-2.7-1.2-2.7-2.7s1.2-2.7,2.7-2.7S79.4,86.5,79.4,88"/>
					<path class="st3" d="M83.6,108c0,1.5-1.2,2.7-2.7,2.7s-2.7-1.2-2.7-2.7s1.2-2.7,2.7-2.7S83.6,106.5,83.6,108"/>
					<path class="st2" d="M69.4,88c0,1.5-1.2,2.7-2.7,2.7s-2.7-1.2-2.7-2.7s1.2-2.7,2.7-2.7S69.4,86.5,69.4,88"/>
					<path class="st3" d="M76.1,92c0,1.5-1.2,2.7-2.7,2.7s-2.7-1.2-2.7-2.7s1.2-2.7,2.7-2.7S76.1,90.5,76.1,92"/>
					<path class="st2" d="M148.6,148c0,1.5-1.2,2.7-2.7,2.7s-2.7-1.2-2.7-2.7s1.2-2.7,2.7-2.7S148.6,146.5,148.6,148"/>
					<path class="st2" d="M127.7,144c0,1.5-1.2,2.7-2.7,2.7s-2.7-1.2-2.7-2.7s1.2-2.7,2.7-2.7S127.7,142.5,127.7,144"/>
					<path class="st2" d="M123.6,148c0,1.5-1.2,2.7-2.7,2.7s-2.7-1.2-2.7-2.7s1.2-2.7,2.7-2.7S123.6,146.5,123.6,148"/>
					<path class="st2" d="M116.9,144c0,1.5-1.2,2.7-2.7,2.7s-2.7-1.2-2.7-2.7s1.2-2.7,2.7-2.7S116.9,142.5,116.9,144"/>
					<path class="st2" d="M127.7,140c0,1.5-1.2,2.7-2.7,2.7s-2.7-1.2-2.7-2.7s1.2-2.7,2.7-2.7S127.7,138.5,127.7,140"/>
					<path class="st2" d="M167.7,152c0,1.5-1.2,2.7-2.7,2.7s-2.7-1.2-2.7-2.7s1.2-2.7,2.7-2.7S167.7,150.5,167.7,152"/>
					<path class="st2" d="M127.7,148c0,1.5-1.2,2.7-2.7,2.7s-2.7-1.2-2.7-2.7s1.2-2.7,2.7-2.7S127.7,146.5,127.7,148"/>
					<path class="st2" d="M134.4,148c0,1.5-1.2,2.7-2.7,2.7s-2.7-1.2-2.7-2.7s1.2-2.7,2.7-2.7S134.4,146.5,134.4,148"/>
					<path class="st2" d="M127.7,144c0,1.5-1.2,2.7-2.7,2.7s-2.7-1.2-2.7-2.7s1.2-2.7,2.7-2.7S127.7,142.5,127.7,144"/>
					<path class="st2" d="M181.9,148c0,1.5-1.2,2.7-2.7,2.7s-2.7-1.2-2.7-2.7s1.2-2.7,2.7-2.7S181.9,146.5,181.9,148"/>
					<path class="st2" d="M190.2,152c0,1.5-1.2,2.7-2.7,2.7s-2.7-1.2-2.7-2.7s1.2-2.7,2.7-2.7S190.2,150.5,190.2,152"/>
					<path class="st2" d="M148.6,148c0,1.5-1.2,2.7-2.7,2.7s-2.7-1.2-2.7-2.7s1.2-2.7,2.7-2.7S148.6,146.5,148.6,148"/>
					<path class="st2" d="M90.2,128c0,1.5-1.2,2.7-2.7,2.7s-2.7-1.2-2.7-2.7s1.2-2.7,2.7-2.7S90.2,126.5,90.2,128"/>
					<path class="st2" d="M86.1,136c0,1.5-1.2,2.7-2.7,2.7s-2.7-1.2-2.7-2.7s1.2-2.7,2.7-2.7S86.1,134.5,86.1,136"/>
					<path class="st2" d="M86.1,128c0,1.5-1.2,2.7-2.7,2.7s-2.7-1.2-2.7-2.7s1.2-2.7,2.7-2.7S86.1,126.5,86.1,128"/>
					<path class="st2" d="M76.1,128c0,1.5-1.2,2.7-2.7,2.7s-2.7-1.2-2.7-2.7s1.2-2.7,2.7-2.7S76.1,126.5,76.1,128"/>
					<path class="st2" d="M81.9,108c0,1.5-1.2,2.7-2.7,2.7s-2.7-1.2-2.7-2.7s1.2-2.7,2.7-2.7S81.9,106.5,81.9,108"/>
					<path class="st4" d="M41.1,96c0,1.5-1.2,2.7-2.7,2.7s-2.7-1.2-2.7-2.7s1.2-2.7,2.7-2.7S41.1,94.5,41.1,96"/>
					<path class="st2" d="M127.7,156c0,1.5-1.2,2.7-2.7,2.7s-2.7-1.2-2.7-2.7s1.2-2.7,2.7-2.7S127.7,154.5,127.7,156"/>
					<path class="st2" d="M141.9,152c0,1.5-1.2,2.7-2.7,2.7s-2.7-1.2-2.7-2.7s1.2-2.7,2.7-2.7S141.9,150.5,141.9,152"/>
					<path class="st2" d="M144.4,148c0,1.5-1.2,2.7-2.7,2.7s-2.7-1.2-2.7-2.7s1.2-2.7,2.7-2.7S144.4,146.5,144.4,148"/>
					<path class="st2" d="M152.7,152c0,1.5-1.2,2.7-2.7,2.7s-2.7-1.2-2.7-2.7s1.2-2.7,2.7-2.7S152.7,150.5,152.7,152"/>
					<path class="st2" d="M86.1,128c0,1.5-1.2,2.7-2.7,2.7s-2.7-1.2-2.7-2.7s1.2-2.7,2.7-2.7S86.1,126.5,86.1,128"/>
					<path class="st3" d="M76.1,120c0,1.5-1.2,2.7-2.7,2.7s-2.7-1.2-2.7-2.7s1.2-2.7,2.7-2.7S76.1,118.5,76.1,120"/>
					<path class="st2" d="M62.7,116c0,1.5-1.2,2.7-2.7,2.7s-2.7-1.2-2.7-2.7s1.2-2.7,2.7-2.7S62.7,114.5,62.7,116"/>
					<path class="st3" d="M81.1,112c0,1.5-1.2,2.7-2.7,2.7s-2.7-1.2-2.7-2.7s1.2-2.7,2.7-2.7S81.1,110.5,81.1,112"/>
					<path class="st3" d="M77.7,128c0,1.5-1.2,2.7-2.7,2.7s-2.7-1.2-2.7-2.7s1.2-2.7,2.7-2.7S77.7,126.5,77.7,128"/>
					<path class="st2" d="M73.6,124c0,1.5-1.2,2.7-2.7,2.7s-2.7-1.2-2.7-2.7s1.2-2.7,2.7-2.7S73.6,122.5,73.6,124"/>
					<path class="st2" d="M91.9,116c0,1.5-1.2,2.7-2.7,2.7s-2.7-1.2-2.7-2.7s1.2-2.7,2.7-2.7S91.9,114.5,91.9,116"/>
					<path class="st4" d="M77.7,96c0,1.5-1.2,2.7-2.7,2.7s-2.7-1.2-2.7-2.7s1.2-2.7,2.7-2.7S77.7,94.5,77.7,96"/>
					<path class="st2" d="M123.6,140c0,1.5-1.2,2.7-2.7,2.7s-2.7-1.2-2.7-2.7s1.2-2.7,2.7-2.7S123.6,138.5,123.6,140"/>
					<path class="st2" d="M194.4,136c0,1.5-1.2,2.7-2.7,2.7s-2.7-1.2-2.7-2.7s1.2-2.7,2.7-2.7S194.4,134.5,194.4,136"/>
					<path class="st4" d="M43.6,84c0,1.5-1.2,2.7-2.7,2.7s-2.7-1.2-2.7-2.7s1.2-2.7,2.7-2.7S43.6,82.5,43.6,84"/>
					<path class="st4" d="M65.2,104c0,1.5-1.2,2.7-2.7,2.7c-1.5,0-2.7-1.2-2.7-2.7s1.2-2.7,2.7-2.7C64,101.3,65.2,102.5,65.2,104"/>
					<path class="st4" d="M78.6,120c0,1.5-1.2,2.7-2.7,2.7s-2.7-1.2-2.7-2.7s1.2-2.7,2.7-2.7S78.6,118.5,78.6,120"/>
					<path class="st4" d="M96.1,124c0,1.5-1.2,2.7-2.7,2.7s-2.7-1.2-2.7-2.7s1.2-2.7,2.7-2.7S96.1,122.5,96.1,124"/>
					<path class="st2" d="M127.7,140c0,1.5-1.2,2.7-2.7,2.7s-2.7-1.2-2.7-2.7s1.2-2.7,2.7-2.7S127.7,138.5,127.7,140"/>
					<path class="st4" d="M94.4,104c0,1.5-1.2,2.7-2.7,2.7s-2.7-1.2-2.7-2.7s1.2-2.7,2.7-2.7S94.4,102.5,94.4,104"/>
					<path class="st3" d="M104.4,120c0,1.5-1.2,2.7-2.7,2.7s-2.7-1.2-2.7-2.7s1.2-2.7,2.7-2.7S104.4,118.5,104.4,120"/>
					<path class="st2" d="M152.7,156c0,1.5-1.2,2.7-2.7,2.7s-2.7-1.2-2.7-2.7s1.2-2.7,2.7-2.7S152.7,154.5,152.7,156"/>
					<path class="st2" d="M81.9,120c0,1.5-1.2,2.7-2.7,2.7s-2.7-1.2-2.7-2.7s1.2-2.7,2.7-2.7S81.9,118.5,81.9,120"/>
					<path class="st2" d="M86.1,124c0,1.5-1.2,2.7-2.7,2.7s-2.7-1.2-2.7-2.7s1.2-2.7,2.7-2.7S86.1,122.5,86.1,124"/>
					<path class="st2" d="M86.1,140c0,1.5-1.2,2.7-2.7,2.7s-2.7-1.2-2.7-2.7s1.2-2.7,2.7-2.7S86.1,138.5,86.1,140"/>
					<path class="st3" d="M58.6,76c0,1.5-1.2,2.7-2.7,2.7s-2.7-1.2-2.7-2.7s1.2-2.7,2.7-2.7S58.6,74.5,58.6,76"/>
					<path class="st2" d="M69.4,96c0,1.5-1.2,2.7-2.7,2.7s-2.7-1.2-2.7-2.7s1.2-2.7,2.7-2.7S69.4,94.5,69.4,96"/>
					<path class="st3" d="M56.9,72c0,1.5-1.2,2.7-2.7,2.7s-2.7-1.2-2.7-2.7s1.2-2.7,2.7-2.7S56.9,70.5,56.9,72"/>
					<path class="st2" d="M65.2,100c0,1.5-1.2,2.7-2.7,2.7c-1.5,0-2.7-1.2-2.7-2.7s1.2-2.7,2.7-2.7C64,97.3,65.2,98.5,65.2,100"/>
					<path class="st2" d="M86.1,136c0,1.5-1.2,2.7-2.7,2.7s-2.7-1.2-2.7-2.7s1.2-2.7,2.7-2.7S86.1,134.5,86.1,136"/>
					<path class="st2" d="M94.4,136c0,1.5-1.2,2.7-2.7,2.7s-2.7-1.2-2.7-2.7s1.2-2.7,2.7-2.7S94.4,134.5,94.4,136"/>
					<path class="st2" d="M90.2,128c0,1.5-1.2,2.7-2.7,2.7s-2.7-1.2-2.7-2.7s1.2-2.7,2.7-2.7S90.2,126.5,90.2,128"/>
					<path class="st2" d="M119.4,136c0,1.5-1.2,2.7-2.7,2.7s-2.7-1.2-2.7-2.7s1.2-2.7,2.7-2.7S119.4,134.5,119.4,136"/>
					<path class="st2" d="M127.7,148c0,1.5-1.2,2.7-2.7,2.7s-2.7-1.2-2.7-2.7s1.2-2.7,2.7-2.7S127.7,146.5,127.7,148"/>
					<path class="st2" d="M127.7,144c0,1.5-1.2,2.7-2.7,2.7s-2.7-1.2-2.7-2.7s1.2-2.7,2.7-2.7S127.7,142.5,127.7,144"/>
					<path class="st2" d="M119.4,144c0,1.5-1.2,2.7-2.7,2.7s-2.7-1.2-2.7-2.7s1.2-2.7,2.7-2.7S119.4,142.5,119.4,144"/>
					<path class="st2" d="M127.7,144c0,1.5-1.2,2.7-2.7,2.7s-2.7-1.2-2.7-2.7s1.2-2.7,2.7-2.7S127.7,142.5,127.7,144"/>
					<path class="st4" d="M71.9,84c0,1.5-1.2,2.7-2.7,2.7s-2.7-1.2-2.7-2.7s1.2-2.7,2.7-2.7S71.9,82.5,71.9,84"/>
					<path class="st4" d="M58.6,96c0,1.5-1.2,2.7-2.7,2.7s-2.7-1.2-2.7-2.7s1.2-2.7,2.7-2.7S58.6,94.5,58.6,96"/>
					<path class="st4" d="M67.7,96c0,1.5-1.2,2.7-2.7,2.7c-1.5,0-2.7-1.2-2.7-2.7s1.2-2.7,2.7-2.7C66.5,93.3,67.7,94.5,67.7,96"/>
					<path class="st3" d="M46.1,76c0,1.5-1.2,2.7-2.7,2.7s-2.7-1.2-2.7-2.7s1.2-2.7,2.7-2.7S46.1,74.5,46.1,76"/>
					<path class="st3" d="M53.6,72c0,1.5-1.2,2.7-2.7,2.7s-2.7-1.2-2.7-2.7s1.2-2.7,2.7-2.7S53.6,70.5,53.6,72"/>
					<path class="st2" d="M65.2,88c0,1.5-1.2,2.7-2.7,2.7c-1.5,0-2.7-1.2-2.7-2.7s1.2-2.7,2.7-2.7C64,85.3,65.2,86.5,65.2,88"/>
					<path class="st4" d="M65.2,104c0,1.5-1.2,2.7-2.7,2.7c-1.5,0-2.7-1.2-2.7-2.7s1.2-2.7,2.7-2.7C64,101.3,65.2,102.5,65.2,104"/>
					<path class="st4" d="M65.2,96c0,1.5-1.2,2.7-2.7,2.7c-1.5,0-2.7-1.2-2.7-2.7s1.2-2.7,2.7-2.7C64,93.3,65.2,94.5,65.2,96"/>
					<path class="st3" d="M83.6,104c0,1.5-1.2,2.7-2.7,2.7s-2.7-1.2-2.7-2.7s1.2-2.7,2.7-2.7S83.6,102.5,83.6,104"/>
					<path class="st3" d="M80.2,96c0,1.5-1.2,2.7-2.7,2.7s-2.7-1.2-2.7-2.7s1.2-2.7,2.7-2.7S80.2,94.5,80.2,96"/>
					<path class="st4" d="M58.6,76c0,1.5-1.2,2.7-2.7,2.7s-2.7-1.2-2.7-2.7s1.2-2.7,2.7-2.7S58.6,74.5,58.6,76"/>
					<path class="st2" d="M81.9,124c0,1.5-1.2,2.7-2.7,2.7s-2.7-1.2-2.7-2.7s1.2-2.7,2.7-2.7S81.9,122.5,81.9,124"/>
					<path class="st2" d="M90.2,128c0,1.5-1.2,2.7-2.7,2.7s-2.7-1.2-2.7-2.7s1.2-2.7,2.7-2.7S90.2,126.5,90.2,128"/>
					<path class="st2" d="M62.7,140c0,1.5-1.2,2.7-2.7,2.7s-2.7-1.2-2.7-2.7s1.2-2.7,2.7-2.7S62.7,138.5,62.7,140"/>
					<path class="st2" d="M62.7,140c0,1.5-1.2,2.7-2.7,2.7s-2.7-1.2-2.7-2.7s1.2-2.7,2.7-2.7S62.7,138.5,62.7,140"/>
					<path class="st2" d="M144.4,136c0,1.5-1.2,2.7-2.7,2.7s-2.7-1.2-2.7-2.7s1.2-2.7,2.7-2.7S144.4,134.5,144.4,136"/>
					<path class="st2" d="M123.6,140c0,1.5-1.2,2.7-2.7,2.7s-2.7-1.2-2.7-2.7s1.2-2.7,2.7-2.7S123.6,138.5,123.6,140"/>
					<path class="st2" d="M127.7,136c0,1.5-1.2,2.7-2.7,2.7s-2.7-1.2-2.7-2.7s1.2-2.7,2.7-2.7S127.7,134.5,127.7,136"/>
					<path class="st2" d="M126.1,144c0,1.5-1.2,2.7-2.7,2.7s-2.7-1.2-2.7-2.7s1.2-2.7,2.7-2.7S126.1,142.5,126.1,144"/>
					<path class="st2" d="M94.4,132c0,1.5-1.2,2.7-2.7,2.7s-2.7-1.2-2.7-2.7s1.2-2.7,2.7-2.7S94.4,130.5,94.4,132"/>
					<path class="st2" d="M90.2,136c0,1.5-1.2,2.7-2.7,2.7s-2.7-1.2-2.7-2.7s1.2-2.7,2.7-2.7S90.2,134.5,90.2,136"/>
					<path class="st2" d="M94.4,140c0,1.5-1.2,2.7-2.7,2.7s-2.7-1.2-2.7-2.7s1.2-2.7,2.7-2.7S94.4,138.5,94.4,140"/>
					<path class="st2" d="M81.9,128c0,1.5-1.2,2.7-2.7,2.7s-2.7-1.2-2.7-2.7s1.2-2.7,2.7-2.7S81.9,126.5,81.9,128"/>
					<path class="st2" d="M94.4,116c0,1.5-1.2,2.7-2.7,2.7s-2.7-1.2-2.7-2.7s1.2-2.7,2.7-2.7S94.4,114.5,94.4,116"/>
					<path class="st2" d="M94.4,120c0,1.5-1.2,2.7-2.7,2.7s-2.7-1.2-2.7-2.7s1.2-2.7,2.7-2.7S94.4,118.5,94.4,120"/>
					<path class="st2" d="M110.2,148c0,1.5-1.2,2.7-2.7,2.7s-2.7-1.2-2.7-2.7s1.2-2.7,2.7-2.7S110.2,146.5,110.2,148"/>
					<path class="st3" d="M65.2,84c0,1.5-1.2,2.7-2.7,2.7c-1.5,0-2.7-1.2-2.7-2.7s1.2-2.7,2.7-2.7C64,81.3,65.2,82.5,65.2,84"/>
					<path class="st2" d="M71.9,108c0,1.5-1.2,2.7-2.7,2.7s-2.7-1.2-2.7-2.7s1.2-2.7,2.7-2.7S71.9,106.5,71.9,108"/>
					<path class="st2" d="M86.1,120c0,1.5-1.2,2.7-2.7,2.7s-2.7-1.2-2.7-2.7s1.2-2.7,2.7-2.7S86.1,118.5,86.1,120"/>
					<path class="st2" d="M67.7,108c0,1.5-1.2,2.7-2.7,2.7c-1.5,0-2.7-1.2-2.7-2.7s1.2-2.7,2.7-2.7C66.5,105.3,67.7,106.5,67.7,108"
						/>
					<path class="st3" d="M82.7,104c0,1.5-1.2,2.7-2.7,2.7s-2.7-1.2-2.7-2.7s1.2-2.7,2.7-2.7S82.7,102.5,82.7,104"/>
					<path class="st4" d="M61.9,100c0,1.5-1.2,2.7-2.7,2.7s-2.7-1.2-2.7-2.7s1.2-2.7,2.7-2.7S61.9,98.5,61.9,100"/>
					<path class="st3" d="M83.6,104c0,1.5-1.2,2.7-2.7,2.7s-2.7-1.2-2.7-2.7s1.2-2.7,2.7-2.7S83.6,102.5,83.6,104"/>
					<path class="st2" d="M83.6,128c0,1.5-1.2,2.7-2.7,2.7s-2.7-1.2-2.7-2.7s1.2-2.7,2.7-2.7S83.6,126.5,83.6,128"/>
					<path class="st4" d="M61.1,84c0,1.5-1.2,2.7-2.7,2.7s-2.7-1.2-2.7-2.7s1.2-2.7,2.7-2.7S61.1,82.5,61.1,84"/>
					<path class="st2" d="M77.7,124c0,1.5-1.2,2.7-2.7,2.7s-2.7-1.2-2.7-2.7s1.2-2.7,2.7-2.7S77.7,122.5,77.7,124"/>
					<path class="st4" d="M81.9,108c0,1.5-1.2,2.7-2.7,2.7s-2.7-1.2-2.7-2.7s1.2-2.7,2.7-2.7S81.9,106.5,81.9,108"/>
					<path class="st4" d="M76.1,108c0,1.5-1.2,2.7-2.7,2.7s-2.7-1.2-2.7-2.7s1.2-2.7,2.7-2.7S76.1,106.5,76.1,108"/>
					<path class="st4" d="M84.4,112c0,1.5-1.2,2.7-2.7,2.7s-2.7-1.2-2.7-2.7s1.2-2.7,2.7-2.7S84.4,110.5,84.4,112"/>
					<path class="st4" d="M98.6,100c0,1.5-1.2,2.7-2.7,2.7s-2.7-1.2-2.7-2.7s1.2-2.7,2.7-2.7S98.6,98.5,98.6,100"/>
					<path class="st3" d="M46.9,68c0,1.5-1.2,2.7-2.7,2.7s-2.7-1.2-2.7-2.7s1.2-2.7,2.7-2.7S46.9,66.5,46.9,68"/>
					<path class="st4" d="M74.4,88c0,1.5-1.2,2.7-2.7,2.7s-2.7-1.2-2.7-2.7s1.2-2.7,2.7-2.7S74.4,86.5,74.4,88"/>
					<path class="st4" d="M70.2,100c0,1.5-1.2,2.7-2.7,2.7s-2.7-1.2-2.7-2.7s1.2-2.7,2.7-2.7S70.2,98.5,70.2,100"/>
					<path class="st2" d="M79.4,100c0,1.5-1.2,2.7-2.7,2.7s-2.7-1.2-2.7-2.7s1.2-2.7,2.7-2.7S79.4,98.5,79.4,100"/>
					<path class="st2" d="M68.6,96c0,1.5-1.2,2.7-2.7,2.7s-2.7-1.2-2.7-2.7s1.2-2.7,2.7-2.7S68.6,94.5,68.6,96"/>
					<path class="st4" d="M71.9,92c0,1.5-1.2,2.7-2.7,2.7s-2.7-1.2-2.7-2.7s1.2-2.7,2.7-2.7S71.9,90.5,71.9,92"/>
					<path class="st2" d="M119.4,130c0,1.5-1.2,2.7-2.7,2.7s-2.7-1.2-2.7-2.7s1.2-2.7,2.7-2.7S119.4,128.5,119.4,130"/>
					<path class="st2" d="M127.7,136c0,1.5-1.2,2.7-2.7,2.7s-2.7-1.2-2.7-2.7s1.2-2.7,2.7-2.7S127.7,134.5,127.7,136"/>
					<path class="st2" d="M102.7,138c0,1.5-1.2,2.7-2.7,2.7s-2.7-1.2-2.7-2.7s1.2-2.7,2.7-2.7S102.7,136.5,102.7,138"/>
					<path class="st2" d="M129.4,142c0,1.5-1.2,2.7-2.7,2.7c-1.5,0-2.7-1.2-2.7-2.7s1.2-2.7,2.7-2.7
						C128.2,139.3,129.4,140.5,129.4,142"/>
					<path class="st2" d="M86.1,112c0,1.5-1.2,2.7-2.7,2.7s-2.7-1.2-2.7-2.7s1.2-2.7,2.7-2.7S86.1,110.5,86.1,112"/>
					<path class="st2" d="M90.2,112c0,1.5-1.2,2.7-2.7,2.7s-2.7-1.2-2.7-2.7s1.2-2.7,2.7-2.7S90.2,110.5,90.2,112"/>
					<path class="st2" d="M70.2,104c0,1.5-1.2,2.7-2.7,2.7s-2.7-1.2-2.7-2.7s1.2-2.7,2.7-2.7S70.2,102.5,70.2,104"/>
					<path class="st2" d="M77.7,110c0,1.5-1.2,2.7-2.7,2.7s-2.7-1.2-2.7-2.7s1.2-2.7,2.7-2.7S77.7,108.5,77.7,110"/>
					<path class="st2" d="M46.1,84c0,1.5-1.2,2.7-2.7,2.7s-2.7-1.2-2.7-2.7s1.2-2.7,2.7-2.7S46.1,82.5,46.1,84"/>
					<path class="st2" d="M52.7,102c0,1.5-1.2,2.7-2.7,2.7s-2.7-1.2-2.7-2.7s1.2-2.7,2.7-2.7S52.7,100.5,52.7,102"/>
					<path class="st4" d="M61.1,84c0,1.5-1.2,2.7-2.7,2.7s-2.7-1.2-2.7-2.7s1.2-2.7,2.7-2.7S61.1,82.5,61.1,84"/>
					<path class="st3" d="M46.9,68c0,1.5-1.2,2.7-2.7,2.7s-2.7-1.2-2.7-2.7s1.2-2.7,2.7-2.7S46.9,66.5,46.9,68"/>
					<path class="st2" d="M86.1,120c0,1.5-1.2,2.7-2.7,2.7s-2.7-1.2-2.7-2.7s1.2-2.7,2.7-2.7S86.1,118.5,86.1,120"/>
					<path class="st2" d="M67.7,128c0,1.5-1.2,2.7-2.7,2.7c-1.5,0-2.7-1.2-2.7-2.7s1.2-2.7,2.7-2.7C66.5,125.3,67.7,126.5,67.7,128"
						/>
					<path class="st2" d="M94.4,126c0,1.5-1.2,2.7-2.7,2.7s-2.7-1.2-2.7-2.7s1.2-2.7,2.7-2.7S94.4,124.5,94.4,126"/>
					<path class="st2" d="M81.9,130c0,1.5-1.2,2.7-2.7,2.7s-2.7-1.2-2.7-2.7s1.2-2.7,2.7-2.7S81.9,128.5,81.9,130"/>
					<path class="st4" d="M61.9,82c0,1.5-1.2,2.7-2.7,2.7s-2.7-1.2-2.7-2.7s1.2-2.7,2.7-2.7S61.9,80.5,61.9,82"/>
					<path class="st3" d="M61.1,72c0,1.5-1.2,2.7-2.7,2.7s-2.7-1.2-2.7-2.7s1.2-2.7,2.7-2.7S61.1,70.5,61.1,72"/>
					<path class="st3" d="M65.2,88c0,1.5-1.2,2.7-2.7,2.7c-1.5,0-2.7-1.2-2.7-2.7s1.2-2.7,2.7-2.7C64,85.3,65.2,86.5,65.2,88"/>
					<path class="st2" d="M62.7,94c0,1.5-1.2,2.7-2.7,2.7s-2.7-1.2-2.7-2.7s1.2-2.7,2.7-2.7S62.7,92.5,62.7,94"/>
					<path class="st4" d="M87.7,120c0,1.5-1.2,2.7-2.7,2.7s-2.7-1.2-2.7-2.7s1.2-2.7,2.7-2.7S87.7,118.5,87.7,120"/>
					<path class="st2" d="M127.7,148c0,1.5-1.2,2.7-2.7,2.7s-2.7-1.2-2.7-2.7s1.2-2.7,2.7-2.7S127.7,146.5,127.7,148"/>
					<path class="st4" d="M76.1,124c0,1.5-1.2,2.7-2.7,2.7s-2.7-1.2-2.7-2.7s1.2-2.7,2.7-2.7S76.1,122.5,76.1,124"/>
					<path class="st3" d="M92.7,124c0,1.5-1.2,2.7-2.7,2.7s-2.7-1.2-2.7-2.7s1.2-2.7,2.7-2.7S92.7,122.5,92.7,124"/>
					<path class="st4" d="M102.7,134c0,1.5-1.2,2.7-2.7,2.7s-2.7-1.2-2.7-2.7s1.2-2.7,2.7-2.7S102.7,132.5,102.7,134"/>
					<path class="st2" d="M152.7,134c0,1.5-1.2,2.7-2.7,2.7s-2.7-1.2-2.7-2.7s1.2-2.7,2.7-2.7S152.7,132.5,152.7,134"/>
					<path class="st2" d="M123.6,148c0,1.5-1.2,2.7-2.7,2.7s-2.7-1.2-2.7-2.7s1.2-2.7,2.7-2.7S123.6,146.5,123.6,148"/>
					<path class="st2" d="M111.1,148c0,1.5-1.2,2.7-2.7,2.7s-2.7-1.2-2.7-2.7s1.2-2.7,2.7-2.7S111.1,146.5,111.1,148"/>
					<path class="st2" d="M127.7,148c0,1.5-1.2,2.7-2.7,2.7s-2.7-1.2-2.7-2.7s1.2-2.7,2.7-2.7S127.7,146.5,127.7,148"/>
					<path class="st3" d="M59.4,74c0,1.5-1.2,2.7-2.7,2.7s-2.7-1.2-2.7-2.7s1.2-2.7,2.7-2.7S59.4,72.5,59.4,74"/>
					<path class="st2" d="M69.4,80c0,1.5-1.2,2.7-2.7,2.7s-2.7-1.2-2.7-2.7s1.2-2.7,2.7-2.7S69.4,78.5,69.4,80"/>
					<path class="st4" d="M51.1,56c0,1.5-1.2,2.7-2.7,2.7s-2.7-1.2-2.7-2.7s1.2-2.7,2.7-2.7S51.1,54.5,51.1,56"/>
					<path class="st2" d="M82.7,98c0,1.5-1.2,2.7-2.7,2.7s-2.7-1.2-2.7-2.7s1.2-2.7,2.7-2.7S82.7,96.5,82.7,98"/>
					<path class="st3" d="M61.1,66c0,1.5-1.2,2.7-2.7,2.7s-2.7-1.2-2.7-2.7s1.2-2.7,2.7-2.7S61.1,64.5,61.1,66"/>
					<path class="st2" d="M123.6,130c0,1.5-1.2,2.7-2.7,2.7s-2.7-1.2-2.7-2.7s1.2-2.7,2.7-2.7S123.6,128.5,123.6,130"/>
					<path class="st2" d="M94.4,132c0,1.5-1.2,2.7-2.7,2.7s-2.7-1.2-2.7-2.7s1.2-2.7,2.7-2.7S94.4,130.5,94.4,132"/>
					<path class="st2" d="M123.6,138c0,1.5-1.2,2.7-2.7,2.7s-2.7-1.2-2.7-2.7s1.2-2.7,2.7-2.7S123.6,136.5,123.6,138"/>
					<path class="st2" d="M111.1,140c0,1.5-1.2,2.7-2.7,2.7s-2.7-1.2-2.7-2.7s1.2-2.7,2.7-2.7S111.1,138.5,111.1,140"/>
					<path class="st2" d="M94.4,130c0,1.5-1.2,2.7-2.7,2.7s-2.7-1.2-2.7-2.7s1.2-2.7,2.7-2.7S94.4,128.5,94.4,130"/>
					<path class="st2" d="M90.2,118c0,1.5-1.2,2.7-2.7,2.7s-2.7-1.2-2.7-2.7s1.2-2.7,2.7-2.7S90.2,116.5,90.2,118"/>
					<path class="st2" d="M86.1,124c0,1.5-1.2,2.7-2.7,2.7s-2.7-1.2-2.7-2.7s1.2-2.7,2.7-2.7S86.1,122.5,86.1,124"/>
					<path class="st2" d="M84.4,126c0,1.5-1.2,2.7-2.7,2.7s-2.7-1.2-2.7-2.7s1.2-2.7,2.7-2.7S84.4,124.5,84.4,126"/>
					<path class="st2" d="M152.7,136c0,1.5-1.2,2.7-2.7,2.7s-2.7-1.2-2.7-2.7s1.2-2.7,2.7-2.7S152.7,134.5,152.7,136"/>
					<path class="st2" d="M144.4,138c0,1.5-1.2,2.7-2.7,2.7s-2.7-1.2-2.7-2.7s1.2-2.7,2.7-2.7S144.4,136.5,144.4,138"/>
					<path class="st2" d="M161.1,138c0,1.5-1.2,2.7-2.7,2.7s-2.7-1.2-2.7-2.7s1.2-2.7,2.7-2.7S161.1,136.5,161.1,138"/>
					<path class="st2" d="M126.9,136c0,1.5-1.2,2.7-2.7,2.7s-2.7-1.2-2.7-2.7s1.2-2.7,2.7-2.7S126.9,134.5,126.9,136"/>
					<path class="st4" d="M67.7,84c0,1.5-1.2,2.7-2.7,2.7c-1.5,0-2.7-1.2-2.7-2.7s1.2-2.7,2.7-2.7C66.5,81.3,67.7,82.5,67.7,84"/>
					<path class="st2" d="M76.1,102c0,1.5-1.2,2.7-2.7,2.7s-2.7-1.2-2.7-2.7s1.2-2.7,2.7-2.7S76.1,100.5,76.1,102"/>
					<path class="st3" d="M65.2,96c0,1.5-1.2,2.7-2.7,2.7c-1.5,0-2.7-1.2-2.7-2.7s1.2-2.7,2.7-2.7C64,93.3,65.2,94.5,65.2,96"/>
					<path class="st2" d="M76.9,98c0,1.5-1.2,2.7-2.7,2.7s-2.7-1.2-2.7-2.7s1.2-2.7,2.7-2.7S76.9,96.5,76.9,98"/>
					<path class="st2" d="M55.2,78c0,1.5-1.2,2.7-2.7,2.7s-2.7-1.2-2.7-2.7s1.2-2.7,2.7-2.7S55.2,76.5,55.2,78"/>
					<path class="st2" d="M71.9,66c0,1.5-1.2,2.7-2.7,2.7s-2.7-1.2-2.7-2.7s1.2-2.7,2.7-2.7S71.9,64.5,71.9,66"/>
					<path class="st3" d="M58.6,80c0,1.5-1.2,2.7-2.7,2.7s-2.7-1.2-2.7-2.7s1.2-2.7,2.7-2.7S58.6,78.5,58.6,80"/>
					<path class="st4" d="M67.7,78c0,1.5-1.2,2.7-2.7,2.7c-1.5,0-2.7-1.2-2.7-2.7s1.2-2.7,2.7-2.7C66.5,75.3,67.7,76.5,67.7,78"/>
					<path class="st3" d="M83.6,112c0,1.5-1.2,2.7-2.7,2.7s-2.7-1.2-2.7-2.7s1.2-2.7,2.7-2.7S83.6,110.5,83.6,112"/>
					<path class="st4" d="M94.4,114c0,1.5-1.2,2.7-2.7,2.7s-2.7-1.2-2.7-2.7s1.2-2.7,2.7-2.7S94.4,112.5,94.4,114"/>
					<path class="st3" d="M94.4,114c0,1.5-1.2,2.7-2.7,2.7s-2.7-1.2-2.7-2.7s1.2-2.7,2.7-2.7S94.4,112.5,94.4,114"/>
					<path class="st4" d="M42.7,27.6c0,1.5-1.2,2.7-2.7,2.7s-2.7-1.2-2.7-2.7c0-1.5,1.2-2.7,2.7-2.7S42.7,26.1,42.7,27.6"/>
					<path class="st2" d="M57.7,55.6c0,1.5-1.2,2.7-2.7,2.7s-2.7-1.2-2.7-2.7s1.2-2.7,2.7-2.7S57.7,54.1,57.7,55.6"/>
					<path class="st3" d="M46.1,68.8c0,1.5-1.2,2.7-2.7,2.7s-2.7-1.2-2.7-2.7s1.2-2.7,2.7-2.7S46.1,67.3,46.1,68.8"/>
					<path class="st3" d="M61.1,42.4c0,1.5-1.2,2.7-2.7,2.7s-2.7-1.2-2.7-2.7s1.2-2.7,2.7-2.7S61.1,40.9,61.1,42.4"/>
					<path class="st3" d="M52.7,55.6c0,1.5-1.2,2.7-2.7,2.7s-2.7-1.2-2.7-2.7s1.2-2.7,2.7-2.7S52.7,54.1,52.7,55.6"/>
					<path class="st2" d="M94.4,120.4c0,1.5-1.2,2.7-2.7,2.7s-2.7-1.2-2.7-2.7s1.2-2.7,2.7-2.7S94.4,118.9,94.4,120.4"/>
					<path class="st2" d="M119.4,122.4c0,1.5-1.2,2.7-2.7,2.7s-2.7-1.2-2.7-2.7s1.2-2.7,2.7-2.7S119.4,120.9,119.4,122.4"/>
					<path class="st2" d="M118.6,119.2c0,1.5-1.2,2.7-2.7,2.7s-2.7-1.2-2.7-2.7s1.2-2.7,2.7-2.7S118.6,117.7,118.6,119.2"/>
					<path class="st2" d="M90.2,123.2c0,1.5-1.2,2.7-2.7,2.7s-2.7-1.2-2.7-2.7s1.2-2.7,2.7-2.7S90.2,121.7,90.2,123.2"/>
					<path class="st2" d="M81.9,118c0,1.5-1.2,2.7-2.7,2.7s-2.7-1.2-2.7-2.7s1.2-2.7,2.7-2.7S81.9,116.5,81.9,118"/>
					<path class="st2" d="M73.6,119.2c0,1.5-1.2,2.7-2.7,2.7s-2.7-1.2-2.7-2.7s1.2-2.7,2.7-2.7S73.6,117.7,73.6,119.2"/>
					<path class="st2" d="M76.1,99.6c0,1.5-1.2,2.7-2.7,2.7s-2.7-1.2-2.7-2.7s1.2-2.7,2.7-2.7S76.1,98.1,76.1,99.6"/>
					<path class="st2" d="M86.1,118c0,1.5-1.2,2.7-2.7,2.7s-2.7-1.2-2.7-2.7s1.2-2.7,2.7-2.7S86.1,116.5,86.1,118"/>
					<path class="st2" d="M77.7,122.4c0,1.5-1.2,2.7-2.7,2.7s-2.7-1.2-2.7-2.7s1.2-2.7,2.7-2.7S77.7,120.9,77.7,122.4"/>
					<path class="st2" d="M90.2,117.6c0,1.5-1.2,2.7-2.7,2.7s-2.7-1.2-2.7-2.7s1.2-2.7,2.7-2.7S90.2,116.1,90.2,117.6"/>
					<path class="st2" d="M73.6,116.8c0,1.5-1.2,2.7-2.7,2.7s-2.7-1.2-2.7-2.7s1.2-2.7,2.7-2.7S73.6,115.3,73.6,116.8"/>
					<path class="st2" d="M94.4,125.6c0,1.5-1.2,2.7-2.7,2.7s-2.7-1.2-2.7-2.7s1.2-2.7,2.7-2.7S94.4,124.1,94.4,125.6"/>
					<path class="st2" d="M102.7,127.6c0,1.5-1.2,2.7-2.7,2.7s-2.7-1.2-2.7-2.7c0-1.5,1.2-2.7,2.7-2.7S102.7,126.1,102.7,127.6"/>
					<path class="st2" d="M123.6,123.2c0,1.5-1.2,2.7-2.7,2.7s-2.7-1.2-2.7-2.7s1.2-2.7,2.7-2.7S123.6,121.7,123.6,123.2"/>
					<path class="st2" d="M140.2,129.2c0,1.5-1.2,2.7-2.7,2.7s-2.7-1.2-2.7-2.7s1.2-2.7,2.7-2.7S140.2,127.7,140.2,129.2"/>
					<path class="st2" d="M118.6,127.6c0,1.5-1.2,2.7-2.7,2.7s-2.7-1.2-2.7-2.7c0-1.5,1.2-2.7,2.7-2.7S118.6,126.1,118.6,127.6"/>
					<path class="st2" d="M119.4,130c0,1.5-1.2,2.7-2.7,2.7s-2.7-1.2-2.7-2.7s1.2-2.7,2.7-2.7S119.4,128.5,119.4,130"/>
					<path class="st2" d="M59.4,80c0,1.5-1.2,2.7-2.7,2.7s-2.7-1.2-2.7-2.7s1.2-2.7,2.7-2.7S59.4,78.5,59.4,80"/>
					<path class="st3" d="M81.9,90c0,1.5-1.2,2.7-2.7,2.7s-2.7-1.2-2.7-2.7s1.2-2.7,2.7-2.7S81.9,88.5,81.9,90"/>
					<path class="st3" d="M83.6,91.2c0,1.5-1.2,2.7-2.7,2.7s-2.7-1.2-2.7-2.7s1.2-2.7,2.7-2.7S83.6,89.7,83.6,91.2"/>
					<path class="st2" d="M65.2,76.4c0,1.5-1.2,2.7-2.7,2.7c-1.5,0-2.7-1.2-2.7-2.7s1.2-2.7,2.7-2.7C64,73.7,65.2,74.9,65.2,76.4"/>
					<path class="st3" d="M81.9,115.6c0,1.5-1.2,2.7-2.7,2.7s-2.7-1.2-2.7-2.7s1.2-2.7,2.7-2.7S81.9,114.1,81.9,115.6"/>
					<path class="st2" d="M90.2,107.2c0,1.5-1.2,2.7-2.7,2.7s-2.7-1.2-2.7-2.7s1.2-2.7,2.7-2.7S90.2,105.7,90.2,107.2"/>
					<path class="st2" d="M73.6,104.8c0,1.5-1.2,2.7-2.7,2.7s-2.7-1.2-2.7-2.7s1.2-2.7,2.7-2.7S73.6,103.3,73.6,104.8"/>
					<path class="st3" d="M83.6,104.4c0,1.5-1.2,2.7-2.7,2.7s-2.7-1.2-2.7-2.7s1.2-2.7,2.7-2.7S83.6,102.9,83.6,104.4"/>
					<path class="st4" d="M88.6,118.8c0,1.5-1.2,2.7-2.7,2.7s-2.7-1.2-2.7-2.7s1.2-2.7,2.7-2.7S88.6,117.3,88.6,118.8"/>
					<path class="st4" d="M106.9,132c0,1.5-1.2,2.7-2.7,2.7s-2.7-1.2-2.7-2.7s1.2-2.7,2.7-2.7S106.9,130.5,106.9,132"/>
					<path class="st4" d="M98.6,113.6c0,1.5-1.2,2.7-2.7,2.7s-2.7-1.2-2.7-2.7s1.2-2.7,2.7-2.7S98.6,112.1,98.6,113.6"/>
					<path class="st4" d="M113.6,135.2c0,1.5-1.2,2.7-2.7,2.7s-2.7-1.2-2.7-2.7s1.2-2.7,2.7-2.7S113.6,133.7,113.6,135.2"/>
					<path class="st4" d="M61.9,74c0,1.5-1.2,2.7-2.7,2.7s-2.7-1.2-2.7-2.7s1.2-2.7,2.7-2.7S61.9,72.5,61.9,74"/>
					<path class="st3" d="M59.4,82c0,1.5-1.2,2.7-2.7,2.7s-2.7-1.2-2.7-2.7s1.2-2.7,2.7-2.7S59.4,80.5,59.4,82"/>
					<path class="st2" d="M98.6,114c0,1.5-1.2,2.7-2.7,2.7s-2.7-1.2-2.7-2.7s1.2-2.7,2.7-2.7S98.6,112.5,98.6,114"/>
					<path class="st2" d="M73.6,120.8c0,1.5-1.2,2.7-2.7,2.7s-2.7-1.2-2.7-2.7s1.2-2.7,2.7-2.7S73.6,119.3,73.6,120.8"/>
					<path class="st2" d="M76.1,110.8c0,1.5-1.2,2.7-2.7,2.7s-2.7-1.2-2.7-2.7s1.2-2.7,2.7-2.7S76.1,109.3,76.1,110.8"/>
					<path class="st2" d="M77.7,119.2c0,1.5-1.2,2.7-2.7,2.7s-2.7-1.2-2.7-2.7s1.2-2.7,2.7-2.7S77.7,117.7,77.7,119.2"/>
					<path class="st2" d="M94.4,117.6c0,1.5-1.2,2.7-2.7,2.7s-2.7-1.2-2.7-2.7s1.2-2.7,2.7-2.7S94.4,116.1,94.4,117.6"/>
					<path class="st2" d="M111.1,132c0,1.5-1.2,2.7-2.7,2.7s-2.7-1.2-2.7-2.7s1.2-2.7,2.7-2.7S111.1,130.5,111.1,132"/>
					<path class="st2" d="M110.2,129.6c0,1.5-1.2,2.7-2.7,2.7s-2.7-1.2-2.7-2.7s1.2-2.7,2.7-2.7S110.2,128.1,110.2,129.6"/>
					<path class="st2" d="M117.7,134c0,1.5-1.2,2.7-2.7,2.7s-2.7-1.2-2.7-2.7s1.2-2.7,2.7-2.7S117.7,132.5,117.7,134"/>
					<path class="st2" d="M115.2,127.2c0,1.5-1.2,2.7-2.7,2.7s-2.7-1.2-2.7-2.7s1.2-2.7,2.7-2.7S115.2,125.7,115.2,127.2"/>
					<path class="st2" d="M131.9,132.4c0,1.5-1.2,2.7-2.7,2.7s-2.7-1.2-2.7-2.7s1.2-2.7,2.7-2.7S131.9,130.9,131.9,132.4"/>
					<path class="st2" d="M121.1,138c0,1.5-1.2,2.7-2.7,2.7s-2.7-1.2-2.7-2.7s1.2-2.7,2.7-2.7S121.1,136.5,121.1,138"/>
					<path class="st2" d="M106.9,123.2c0,1.5-1.2,2.7-2.7,2.7s-2.7-1.2-2.7-2.7s1.2-2.7,2.7-2.7S106.9,121.7,106.9,123.2"/>
					<path class="st2" d="M127.7,126c0,1.5-1.2,2.7-2.7,2.7s-2.7-1.2-2.7-2.7s1.2-2.7,2.7-2.7S127.7,124.5,127.7,126"/>
					<path class="st4" d="M61.9,72.4c0,1.5-1.2,2.7-2.7,2.7s-2.7-1.2-2.7-2.7s1.2-2.7,2.7-2.7S61.9,70.9,61.9,72.4"/>
					<path class="st3" d="M56.9,63.6c0,1.5-1.2,2.7-2.7,2.7s-2.7-1.2-2.7-2.7c0-1.5,1.2-2.7,2.7-2.7S56.9,62.1,56.9,63.6"/>
					<path class="st2" d="M69.4,57.2c0,1.5-1.2,2.7-2.7,2.7s-2.7-1.2-2.7-2.7s1.2-2.7,2.7-2.7S69.4,55.7,69.4,57.2"/>
					<path class="st2" d="M69.4,90.4c0,1.5-1.2,2.7-2.7,2.7s-2.7-1.2-2.7-2.7s1.2-2.7,2.7-2.7S69.4,88.9,69.4,90.4"/>
					<path class="st4" d="M66.9,98.4c0,1.5-1.2,2.7-2.7,2.7c-1.5,0-2.7-1.2-2.7-2.7s1.2-2.7,2.7-2.7C65.7,95.7,66.9,96.9,66.9,98.4"
						/>
					<path class="st2" d="M106.9,108c0,1.5-1.2,2.7-2.7,2.7s-2.7-1.2-2.7-2.7s1.2-2.7,2.7-2.7S106.9,106.5,106.9,108"/>
					<path class="st4" d="M61.9,91.2c0,1.5-1.2,2.7-2.7,2.7s-2.7-1.2-2.7-2.7s1.2-2.7,2.7-2.7S61.9,89.7,61.9,91.2"/>
					<path class="st2" d="M77.7,104.4c0,1.5-1.2,2.7-2.7,2.7s-2.7-1.2-2.7-2.7s1.2-2.7,2.7-2.7S77.7,102.9,77.7,104.4"/>
					<path class="st2" d="M61.1,63.2c0,1.5-1.2,2.7-2.7,2.7s-2.7-1.2-2.7-2.7s1.2-2.7,2.7-2.7S61.1,61.7,61.1,63.2"/>
					<path class="st2" d="M61.1,62c0,1.5-1.2,2.7-2.7,2.7s-2.7-1.2-2.7-2.7s1.2-2.7,2.7-2.7S61.1,60.5,61.1,62"/>
					<path class="st3" d="M56.9,72.8c0,1.5-1.2,2.7-2.7,2.7s-2.7-1.2-2.7-2.7s1.2-2.7,2.7-2.7S56.9,71.3,56.9,72.8"/>
					<path class="st4" d="M60.2,50.8c0,1.5-1.2,2.7-2.7,2.7s-2.7-1.2-2.7-2.7s1.2-2.7,2.7-2.7S60.2,49.3,60.2,50.8"/>
					<path class="st2" d="M77.7,86.4c0,1.5-1.2,2.7-2.7,2.7s-2.7-1.2-2.7-2.7s1.2-2.7,2.7-2.7S77.7,84.9,77.7,86.4"/>
					<path class="st2" d="M98.6,84.8c0,1.5-1.2,2.7-2.7,2.7s-2.7-1.2-2.7-2.7s1.2-2.7,2.7-2.7S98.6,83.3,98.6,84.8"/>
					<path class="st2" d="M98.6,92.8c0,1.5-1.2,2.7-2.7,2.7s-2.7-1.2-2.7-2.7s1.2-2.7,2.7-2.7S98.6,91.3,98.6,92.8"/>
					<path class="st2" d="M77.7,66c0,1.5-1.2,2.7-2.7,2.7s-2.7-1.2-2.7-2.7s1.2-2.7,2.7-2.7S77.7,64.5,77.7,66"/>
					<path class="st4" d="M66.1,34c0,1.5-1.2,2.7-2.7,2.7s-2.7-1.2-2.7-2.7s1.2-2.7,2.7-2.7S66.1,32.5,66.1,34"/>
					<path class="st3" d="M52.7,47.6c0,1.5-1.2,2.7-2.7,2.7s-2.7-1.2-2.7-2.7s1.2-2.7,2.7-2.7S52.7,46.1,52.7,47.6"/>
					<path class="st2" d="M61.1,71.6c0,1.5-1.2,2.7-2.7,2.7s-2.7-1.2-2.7-2.7s1.2-2.7,2.7-2.7S61.1,70.1,61.1,71.6"/>
					<path class="st3" d="M56.9,51.2c0,1.5-1.2,2.7-2.7,2.7s-2.7-1.2-2.7-2.7s1.2-2.7,2.7-2.7S56.9,49.7,56.9,51.2"/>
					<path class="st2" d="M77.7,88c0,1.5-1.2,2.7-2.7,2.7s-2.7-1.2-2.7-2.7s1.2-2.7,2.7-2.7S77.7,86.5,77.7,88"/>
					<path class="st2" d="M76.1,94.4c0,1.5-1.2,2.7-2.7,2.7s-2.7-1.2-2.7-2.7s1.2-2.7,2.7-2.7S76.1,92.9,76.1,94.4"/>
					<path class="st2" d="M77.7,102.8c0,1.5-1.2,2.7-2.7,2.7s-2.7-1.2-2.7-2.7s1.2-2.7,2.7-2.7S77.7,101.3,77.7,102.8"/>
					<path class="st2" d="M77.7,123.6c0,1.5-1.2,2.7-2.7,2.7s-2.7-1.2-2.7-2.7s1.2-2.7,2.7-2.7S77.7,122.1,77.7,123.6"/>
					<path class="st4" d="M67.7,62.8c0,1.5-1.2,2.7-2.7,2.7c-1.5,0-2.7-1.2-2.7-2.7s1.2-2.7,2.7-2.7C66.5,60.1,67.7,61.3,67.7,62.8"
						/>
					<path class="st3" d="M77.7,80.8c0,1.5-1.2,2.7-2.7,2.7s-2.7-1.2-2.7-2.7s1.2-2.7,2.7-2.7S77.7,79.3,77.7,80.8"/>
					<path class="st3" d="M65.2,74.8c0,1.5-1.2,2.7-2.7,2.7c-1.5,0-2.7-1.2-2.7-2.7s1.2-2.7,2.7-2.7C64,72.1,65.2,73.3,65.2,74.8"/>
					<path class="st3" d="M79.4,52c0,1.5-1.2,2.7-2.7,2.7s-2.7-1.2-2.7-2.7s1.2-2.7,2.7-2.7S79.4,50.5,79.4,52"/>
					<path class="st3" d="M65.2,71.2c0,1.5-1.2,2.7-2.7,2.7c-1.5,0-2.7-1.2-2.7-2.7s1.2-2.7,2.7-2.7C64,68.5,65.2,69.7,65.2,71.2"/>
					<path class="st3" d="M56.9,13.6c0,1.5-1.2,2.7-2.7,2.7s-2.7-1.2-2.7-2.7s1.2-2.7,2.7-2.7S56.9,12.1,56.9,13.6"/>
					<path class="st2" d="M90.2,88.4c0,1.5-1.2,2.7-2.7,2.7s-2.7-1.2-2.7-2.7s1.2-2.7,2.7-2.7S90.2,86.9,90.2,88.4"/>
					<path class="st3" d="M56.9,36.8c0,1.5-1.2,2.7-2.7,2.7s-2.7-1.2-2.7-2.7s1.2-2.7,2.7-2.7S56.9,35.3,56.9,36.8"/>
					<path class="st4" d="M42.7,22.8c0,1.5-1.2,2.7-2.7,2.7s-2.7-1.2-2.7-2.7c0-1.5,1.2-2.7,2.7-2.7S42.7,21.3,42.7,22.8"/>
					<path class="st4" d="M42.7,26.4c0,1.5-1.2,2.7-2.7,2.7s-2.7-1.2-2.7-2.7c0-1.5,1.2-2.7,2.7-2.7S42.7,24.9,42.7,26.4"/>
					<path class="st4" d="M58.6,54.4c0,1.5-1.2,2.7-2.7,2.7s-2.7-1.2-2.7-2.7s1.2-2.7,2.7-2.7S58.6,52.9,58.6,54.4"/>
					<path class="st4" d="M58.6,80c0,1.5-1.2,2.7-2.7,2.7s-2.7-1.2-2.7-2.7s1.2-2.7,2.7-2.7S58.6,78.5,58.6,80"/>
					<path class="st3" d="M58.6,21.6c0,1.5-1.2,2.7-2.7,2.7s-2.7-1.2-2.7-2.7c0-1.5,1.2-2.7,2.7-2.7S58.6,20.1,58.6,21.6"/>
					<path class="st3" d="M58.6,64.8c0,1.5-1.2,2.7-2.7,2.7s-2.7-1.2-2.7-2.7c0-1.5,1.2-2.7,2.7-2.7S58.6,63.3,58.6,64.8"/>
					<path class="st4" d="M54.4,80.8c0,1.5-1.2,2.7-2.7,2.7s-2.7-1.2-2.7-2.7s1.2-2.7,2.7-2.7S54.4,79.3,54.4,80.8"/>
					<path class="st3" d="M112.7,69.2c0,1.5-1.2,2.7-2.7,2.7s-2.7-1.2-2.7-2.7s1.2-2.7,2.7-2.7S112.7,67.7,112.7,69.2"/>
					<path class="st3" d="M86.1,105.2c0,1.5-1.2,2.7-2.7,2.7s-2.7-1.2-2.7-2.7s1.2-2.7,2.7-2.7S86.1,103.7,86.1,105.2"/>
					<path class="st4" d="M76.1,60c0,1.5-1.2,2.7-2.7,2.7s-2.7-1.2-2.7-2.7s1.2-2.7,2.7-2.7S76.1,58.5,76.1,60"/>
					<path class="st3" d="M62.7,70.4c0,1.5-1.2,2.7-2.7,2.7s-2.7-1.2-2.7-2.7s1.2-2.7,2.7-2.7S62.7,68.9,62.7,70.4"/>
					<path class="st2" d="M72.7,91.2c0,1.5-1.2,2.7-2.7,2.7s-2.7-1.2-2.7-2.7s1.2-2.7,2.7-2.7S72.7,89.7,72.7,91.2"/>
					<path class="st2" d="M72.7,93.6c0,1.5-1.2,2.7-2.7,2.7s-2.7-1.2-2.7-2.7s1.2-2.7,2.7-2.7S72.7,92.1,72.7,93.6"/>
					<path class="st2" d="M79.4,96.8c0,1.5-1.2,2.7-2.7,2.7s-2.7-1.2-2.7-2.7s1.2-2.7,2.7-2.7S79.4,95.3,79.4,96.8"/>
					<path class="st2" d="M94.4,106c0,1.5-1.2,2.7-2.7,2.7s-2.7-1.2-2.7-2.7s1.2-2.7,2.7-2.7S94.4,104.5,94.4,106"/>
					<path class="st2" d="M72.7,80c0,1.5-1.2,2.7-2.7,2.7s-2.7-1.2-2.7-2.7s1.2-2.7,2.7-2.7S72.7,78.5,72.7,80"/>
					<path class="st3" d="M51.1,43.6c0,1.5-1.2,2.7-2.7,2.7s-2.7-1.2-2.7-2.7s1.2-2.7,2.7-2.7S51.1,42.1,51.1,43.6"/>
					<path class="st2" d="M56.1,44c0,1.5-1.2,2.7-2.7,2.7s-2.7-1.2-2.7-2.7s1.2-2.7,2.7-2.7S56.1,42.5,56.1,44"/>
					<path class="st3" d="M52.7,59.6c0,1.5-1.2,2.7-2.7,2.7s-2.7-1.2-2.7-2.7s1.2-2.7,2.7-2.7S52.7,58.1,52.7,59.6"/>
					<path class="st3" d="M58.6,70.8c0,1.5-1.2,2.7-2.7,2.7s-2.7-1.2-2.7-2.7s1.2-2.7,2.7-2.7S58.6,69.3,58.6,70.8"/>
					<path class="st3" d="M56.9,52c0,1.5-1.2,2.7-2.7,2.7s-2.7-1.2-2.7-2.7s1.2-2.7,2.7-2.7S56.9,50.5,56.9,52"/>
					<path class="st3" d="M54.4,49.2c0,1.5-1.2,2.7-2.7,2.7s-2.7-1.2-2.7-2.7s1.2-2.7,2.7-2.7S54.4,47.7,54.4,49.2"/>
					<path class="st3" d="M59.4,63.6c0,1.5-1.2,2.7-2.7,2.7s-2.7-1.2-2.7-2.7c0-1.5,1.2-2.7,2.7-2.7S59.4,62.1,59.4,63.6"/>
					<path class="st2" d="M55.2,61.2c0,1.5-1.2,2.7-2.7,2.7s-2.7-1.2-2.7-2.7s1.2-2.7,2.7-2.7S55.2,59.7,55.2,61.2"/>
					<path class="st2" d="M56.9,62.4c0,1.5-1.2,2.7-2.7,2.7s-2.7-1.2-2.7-2.7s1.2-2.7,2.7-2.7S56.9,60.9,56.9,62.4"/>
					<path class="st2" d="M56.9,80.4c0,1.5-1.2,2.7-2.7,2.7s-2.7-1.2-2.7-2.7s1.2-2.7,2.7-2.7S56.9,78.9,56.9,80.4"/>
					<path class="st4" d="M64.4,68c0,1.5-1.2,2.7-2.7,2.7s-2.7-1.2-2.7-2.7s1.2-2.7,2.7-2.7S64.4,66.5,64.4,68"/>
					<path class="st3" d="M65.2,65.2c0,1.5-1.2,2.7-2.7,2.7c-1.5,0-2.7-1.2-2.7-2.7c0-1.5,1.2-2.7,2.7-2.7
						C64,62.5,65.2,63.7,65.2,65.2"/>
					<path class="st3" d="M65.2,70.4c0,1.5-1.2,2.7-2.7,2.7c-1.5,0-2.7-1.2-2.7-2.7s1.2-2.7,2.7-2.7C64,67.7,65.2,68.9,65.2,70.4"/>
					<path class="st3" d="M86.1,68.4c0,1.5-1.2,2.7-2.7,2.7s-2.7-1.2-2.7-2.7s1.2-2.7,2.7-2.7S86.1,66.9,86.1,68.4"/>
					<path class="st3" d="M64.4,73.6c0,1.5-1.2,2.7-2.7,2.7s-2.7-1.2-2.7-2.7s1.2-2.7,2.7-2.7S64.4,72.1,64.4,73.6"/>
					<path class="st4" d="M69.4,87.6c0,1.5-1.2,2.7-2.7,2.7s-2.7-1.2-2.7-2.7s1.2-2.7,2.7-2.7S69.4,86.1,69.4,87.6"/>
					<path class="st4" d="M66.1,77.2c0,1.5-1.2,2.7-2.7,2.7s-2.7-1.2-2.7-2.7s1.2-2.7,2.7-2.7S66.1,75.7,66.1,77.2"/>
					<path class="st3" d="M99.4,98.4c0,1.5-1.2,2.7-2.7,2.7s-2.7-1.2-2.7-2.7s1.2-2.7,2.7-2.7S99.4,96.9,99.4,98.4"/>
					<path class="st3" d="M102.7,103.2c0,1.5-1.2,2.7-2.7,2.7s-2.7-1.2-2.7-2.7s1.2-2.7,2.7-2.7S102.7,101.7,102.7,103.2"/>
					<path class="st2" d="M94.4,110.4c0,1.5-1.2,2.7-2.7,2.7s-2.7-1.2-2.7-2.7s1.2-2.7,2.7-2.7S94.4,108.9,94.4,110.4"/>
					<path class="st2" d="M90.2,93.6c0,1.5-1.2,2.7-2.7,2.7s-2.7-1.2-2.7-2.7s1.2-2.7,2.7-2.7S90.2,92.1,90.2,93.6"/>
					<path class="st2" d="M76.1,119.2c0,1.5-1.2,2.7-2.7,2.7s-2.7-1.2-2.7-2.7s1.2-2.7,2.7-2.7S76.1,117.7,76.1,119.2"/>
					<path class="st2" d="M73.6,129.6c0,1.5-1.2,2.7-2.7,2.7s-2.7-1.2-2.7-2.7s1.2-2.7,2.7-2.7S73.6,128.1,73.6,129.6"/>
					<path class="st2" d="M76.1,88c0,1.5-1.2,2.7-2.7,2.7s-2.7-1.2-2.7-2.7s1.2-2.7,2.7-2.7S76.1,86.5,76.1,88"/>
					<path class="st2" d="M76.1,92c0,1.5-1.2,2.7-2.7,2.7s-2.7-1.2-2.7-2.7s1.2-2.7,2.7-2.7S76.1,90.5,76.1,92"/>
					<path class="st2" d="M76.1,64c0,1.5-1.2,2.7-2.7,2.7s-2.7-1.2-2.7-2.7c0-1.5,1.2-2.7,2.7-2.7S76.1,62.5,76.1,64"/>
					<path class="st2" d="M73.6,76c0,1.5-1.2,2.7-2.7,2.7s-2.7-1.2-2.7-2.7s1.2-2.7,2.7-2.7S73.6,74.5,73.6,76"/>
					<path class="st2" d="M72.7,84c0,1.5-1.2,2.7-2.7,2.7s-2.7-1.2-2.7-2.7s1.2-2.7,2.7-2.7S72.7,82.5,72.7,84"/>
					<path class="st2" d="M77.7,92c0,1.5-1.2,2.7-2.7,2.7s-2.7-1.2-2.7-2.7s1.2-2.7,2.7-2.7S77.7,90.5,77.7,92"/>
					<path class="st2" d="M79.4,104c0,1.5-1.2,2.7-2.7,2.7s-2.7-1.2-2.7-2.7s1.2-2.7,2.7-2.7S79.4,102.5,79.4,104"/>
					<path class="st4" d="M64.4,56c0,1.5-1.2,2.7-2.7,2.7s-2.7-1.2-2.7-2.7s1.2-2.7,2.7-2.7S64.4,54.5,64.4,56"/>
					<path class="st3" d="M59.4,52c0,1.5-1.2,2.7-2.7,2.7s-2.7-1.2-2.7-2.7s1.2-2.7,2.7-2.7S59.4,50.5,59.4,52"/>
					<path class="st3" d="M59.4,76c0,1.5-1.2,2.7-2.7,2.7s-2.7-1.2-2.7-2.7s1.2-2.7,2.7-2.7S59.4,74.5,59.4,76"/>
					<path class="st2" d="M55.2,48c0,1.5-1.2,2.7-2.7,2.7s-2.7-1.2-2.7-2.7s1.2-2.7,2.7-2.7S55.2,46.5,55.2,48"/>
					<path class="st2" d="M61.1,56c0,1.5-1.2,2.7-2.7,2.7s-2.7-1.2-2.7-2.7s1.2-2.7,2.7-2.7S61.1,54.5,61.1,56"/>
					<path class="st3" d="M76.1,56c0,1.5-1.2,2.7-2.7,2.7s-2.7-1.2-2.7-2.7s1.2-2.7,2.7-2.7S76.1,54.5,76.1,56"/>
					<path class="st3" d="M65.2,56c0,1.5-1.2,2.7-2.7,2.7c-1.5,0-2.7-1.2-2.7-2.7s1.2-2.7,2.7-2.7C64,53.3,65.2,54.5,65.2,56"/>
					<path class="st3" d="M61.1,64c0,1.5-1.2,2.7-2.7,2.7s-2.7-1.2-2.7-2.7c0-1.5,1.2-2.7,2.7-2.7S61.1,62.5,61.1,64"/>
					<path class="st3" d="M58.6,48c0,1.5-1.2,2.7-2.7,2.7s-2.7-1.2-2.7-2.7s1.2-2.7,2.7-2.7S58.6,46.5,58.6,48"/>
					<path class="st3" d="M58.6,72c0,1.5-1.2,2.7-2.7,2.7s-2.7-1.2-2.7-2.7s1.2-2.7,2.7-2.7S58.6,70.5,58.6,72"/>
					<path class="st3" d="M58.6,48c0,1.5-1.2,2.7-2.7,2.7s-2.7-1.2-2.7-2.7s1.2-2.7,2.7-2.7S58.6,46.5,58.6,48"/>
					<path class="st2" d="M94.4,100c0,1.5-1.2,2.7-2.7,2.7s-2.7-1.2-2.7-2.7s1.2-2.7,2.7-2.7S94.4,98.5,94.4,100"/>
					<path class="st2" d="M73.6,48c0,1.5-1.2,2.7-2.7,2.7s-2.7-1.2-2.7-2.7s1.2-2.7,2.7-2.7S73.6,46.5,73.6,48"/>
					<path class="st2" d="M79.4,96c0,1.5-1.2,2.7-2.7,2.7s-2.7-1.2-2.7-2.7s1.2-2.7,2.7-2.7S79.4,94.5,79.4,96"/>
					<path class="st2" d="M96.1,112c0,1.5-1.2,2.7-2.7,2.7s-2.7-1.2-2.7-2.7s1.2-2.7,2.7-2.7S96.1,110.5,96.1,112"/>
					<path class="st3" d="M82.7,72c0,1.5-1.2,2.7-2.7,2.7s-2.7-1.2-2.7-2.7s1.2-2.7,2.7-2.7S82.7,70.5,82.7,72"/>
					<path class="st2" d="M72.7,56c0,1.5-1.2,2.7-2.7,2.7s-2.7-1.2-2.7-2.7s1.2-2.7,2.7-2.7S72.7,54.5,72.7,56"/>
					<path class="st2" d="M77.7,92c0,1.5-1.2,2.7-2.7,2.7s-2.7-1.2-2.7-2.7s1.2-2.7,2.7-2.7S77.7,90.5,77.7,92"/>
					<path class="st2" d="M74.4,92c0,1.5-1.2,2.7-2.7,2.7s-2.7-1.2-2.7-2.7s1.2-2.7,2.7-2.7S74.4,90.5,74.4,92"/>
					<path class="st4" d="M46.1,24c0,1.5-1.2,2.7-2.7,2.7s-2.7-1.2-2.7-2.7c0-1.5,1.2-2.7,2.7-2.7S46.1,22.5,46.1,24"/>
					<path class="st2" d="M72.7,72c0,1.5-1.2,2.7-2.7,2.7s-2.7-1.2-2.7-2.7s1.2-2.7,2.7-2.7S72.7,70.5,72.7,72"/>
					<path class="st2" d="M68.6,88c0,1.5-1.2,2.7-2.7,2.7s-2.7-1.2-2.7-2.7s1.2-2.7,2.7-2.7S68.6,86.5,68.6,88"/>
					<path class="st2" d="M71.1,76c0,1.5-1.2,2.7-2.7,2.7s-2.7-1.2-2.7-2.7s1.2-2.7,2.7-2.7S71.1,74.5,71.1,76"/>
				</g>
				<g>
					<g transform="translate(218,0)">
						<path class="st0" d="M0,0h51v56H0V0z"/>
						<g>
							<g>
								<g transform="translate(0,16)">
									<path class="st0" d="M0,0L0,0L0,0L0,0z"/>
									<g>
										<g>
											<path class="st4" d="M10,5c0,2.8-2.2,5-5,5S0,7.8,0,5s2.2-5,5-5S10,2.2,10,5"/>
											<path class="st3" d="M10,20c0,2.8-2.2,5-5,5s-5-2.2-5-5s2.2-5,5-5S10,17.2,10,20"/>
											<path class="st2" d="M10,35c0,2.8-2.2,5-5,5s-5-2.2-5-5s2.2-5,5-5S10,32.2,10,35"/>
										</g>
										<g>
											<text transform="matrix(1 0 0 1 18 8)" class="st5 st6">Europe</text>
											<text transform="matrix(1 0 0 1 18 23)" class="st5 st6">Japan</text>
											<text transform="matrix(1 0 0 1 18 38)" class="st5 st6">USA</text>
										</g>
									</g>
								</g>
							</g>
							<g>
								<text transform="matrix(1 0 0 1 0 10)" class="st7 st8">Origin</text>
							</g>
						</g>
					</g>
				</g>
				<g>
					<g transform="translate(0.5,200.5)">
						<path class="st0" d="M0,0L0,0L0,0L0,0z"/>
						<g>
							<g>
								<line class="st9" x1="0" y1="0" x2="0" y2="5"/>
								<line class="st9" x1="42" y1="0" x2="42" y2="5"/>
								<line class="st9" x1="83" y1="0" x2="83" y2="5"/>
								<line class="st9" x1="125" y1="0" x2="125" y2="5"/>
								<line class="st9" x1="167" y1="0" x2="167" y2="5"/>
							</g>
							<g>
								<text transform="matrix(1 0 0 1 -2.7808 16)" class="st5 st6">0</text>
								<text transform="matrix(1 0 0 1 36.1051 16)" class="st10 st6">50</text>
								<text transform="matrix(1 0 0 1 74.9911 16)" class="st10 st6">100</text>
								<text transform="matrix(1 0 0 1 116.6577 16)" class="st10 st6">150</text>
								<text transform="matrix(1 0 0 1 158.3244 16)" class="st10 st6">200</text>
							</g>
							<g>
								<line class="st9" x1="0" y1="0" x2="200" y2="0"/>
							</g>
							<g>
								<text transform="matrix(1 0 0 1 68.2139 31)" class="st7 st8">Horsepower</text>
							</g>
						</g>
					</g>
				</g>
				<g>
					<g transform="translate(0.5,0.5)">
						<path class="st0" d="M0,0L0,0L0,0L0,0z"/>
						<g>
							<g>
								<line class="st9" x1="0" y1="200" x2="-5" y2="200"/>
								<line class="st9" x1="0" y1="160" x2="-5" y2="160"/>
								<line class="st9" x1="0" y1="120" x2="-5" y2="120"/>
								<line class="st9" x1="0" y1="80" x2="-5" y2="80"/>
								<line class="st9" x1="0" y1="40" x2="-5" y2="40"/>
								<line class="st9" x1="0" y1="0" x2="-5" y2="0"/>
							</g>
							<g>
								<text transform="matrix(1 0 0 1 -12.5615 203)" class="st5 st6">0</text>
								<text transform="matrix(1 0 0 1 -18.123 163)" class="st10 st6">10</text>
								<text transform="matrix(1 0 0 1 -18.123 123)" class="st10 st6">20</text>
								<text transform="matrix(1 0 0 1 -18.123 83)" class="st10 st6">30</text>
								<text transform="matrix(1 0 0 1 -18.123 43)" class="st10 st6">40</text>
								<text transform="matrix(1 0 0 1 -18.123 3)" class="st5 st6">50</text>
							</g>
							<g>
								<line class="st9" x1="0" y1="200" x2="0" y2="0"/>
							</g>
							<g>
								<text transform="matrix(6.123234e-17 -1 1 6.123234e-17 -34 142.7914)" class="st7 st8">Miles Per Gallon</text>
							</g>
						</g>
					</g>
				</g>
			</g>
		</g>
	</g>
</g>
<line class="st1" x1="250.5" y1="11.5" x2="250.5" y2="211.5"/>
<text transform="matrix(1 0 0 1 238.8244 227.5)" class="st5 st6">240</text>
</svg>
