<?xml version="1.0" encoding="utf-8"?>
<!-- Generator: Adobe Illustrator 21.1.0, SVG Export Plug-In . SVG Version: 6.00 Build 0)  -->
<svg version="1.1" id="Layer_1" xmlns="http://www.w3.org/2000/svg" xmlns:xlink="http://www.w3.org/1999/xlink" x="0px" y="0px"
	 viewBox="0 0 324 244" style="enable-background:new 0 0 324 244;" xml:space="preserve">
<style type="text/css">
	.st0{fill:none;stroke:#DDDDDD;}
	.st1{fill:none;}
	.st2{opacity:0.7;fill:#E45756;enable-background:new    ;}
	.st3{opacity:0.7;fill:#4C78A8;enable-background:new    ;}
	.st4{opacity:0.7;fill:#F58518;enable-background:new    ;}
	.st5{font-family:'Helvetica';}
	.st6{font-size:10px;}
	.st7{font-family:'Helvetica-Bold';}
	.st8{font-size:11px;}
	.st9{fill:none;stroke:#888888;}
</style>
<line class="st0" x1="50.5" y1="5.5" x2="250.5" y2="5.5"/>
<g transform="translate(50,5)">
	<g>
		<g transform="translate(0,0)">
			<g>
				<g>
					<g transform="translate(0.5,200.5)">
						<path class="st1" d="M0,0L0,0L0,0L0,0z"/>
						<g>
							<g>
								<line class="st0" x1="0" y1="-200" x2="0" y2="0"/>
								<line class="st0" x1="40" y1="-200" x2="40" y2="0"/>
								<line class="st0" x1="80" y1="-200" x2="80" y2="0"/>
								<line class="st0" x1="120" y1="-200" x2="120" y2="0"/>
								<line class="st0" x1="160" y1="-200" x2="160" y2="0"/>
								<line class="st0" x1="200" y1="-200" x2="200" y2="0"/>
							</g>
						</g>
					</g>
				</g>
				<g>
					<g transform="translate(0.5,0.5)">
						<path class="st1" d="M0,0L0,0L0,0L0,0z"/>
						<g>
							<g>
								<line class="st0" x1="0" y1="200" x2="200" y2="200"/>
								<line class="st0" x1="0" y1="158" x2="200" y2="158"/>
								<line class="st0" x1="0" y1="117" x2="200" y2="117"/>
								<line class="st0" x1="0" y1="75" x2="200" y2="75"/>
								<line class="st0" x1="0" y1="33" x2="200" y2="33"/>
							</g>
						</g>
					</g>
				</g>
				<g>
					<path class="st2" d="M125.5,91.7c0,1.5-1.2,2.7-2.7,2.7s-2.7-1.2-2.7-2.7s1.2-2.7,2.7-2.7S125.5,90.2,125.5,91.7"/>
					<path class="st2" d="M142.7,62.5c0,1.5-1.2,2.7-2.7,2.7s-2.7-1.2-2.7-2.7c0-1.5,1.2-2.7,2.7-2.7S142.7,61,142.7,62.5"/>
					<path class="st2" d="M129.9,75c0,1.5-1.2,2.7-2.7,2.7s-2.7-1.2-2.7-2.7s1.2-2.7,2.7-2.7S129.9,73.5,129.9,75"/>
					<path class="st2" d="M124.3,75c0,1.5-1.2,2.7-2.7,2.7s-2.7-1.2-2.7-2.7s1.2-2.7,2.7-2.7S124.3,73.5,124.3,75"/>
					<path class="st2" d="M123.5,83.3c0,1.5-1.2,2.7-2.7,2.7s-2.7-1.2-2.7-2.7s1.2-2.7,2.7-2.7S123.5,81.8,123.5,83.3"/>
					<path class="st2" d="M174.3,35c0,1.5-1.2,2.7-2.7,2.7s-2.7-1.2-2.7-2.7s1.2-2.7,2.7-2.7S174.3,33.5,174.3,35"/>
					<path class="st2" d="M184.3,16.7c0,1.5-1.2,2.7-2.7,2.7s-2.7-1.2-2.7-2.7c0-1.5,1.2-2.7,2.7-2.7S184.3,15.2,184.3,16.7"/>
					<path class="st2" d="M178.7,20.8c0,1.5-1.2,2.7-2.7,2.7s-2.7-1.2-2.7-2.7c0-1.5,1.2-2.7,2.7-2.7S178.7,19.3,178.7,20.8"/>
					<path class="st2" d="M184.7,12.5c0,1.5-1.2,2.7-2.7,2.7s-2.7-1.2-2.7-2.7s1.2-2.7,2.7-2.7S184.7,11,184.7,12.5"/>
					<path class="st2" d="M158.7,41.7c0,1.5-1.2,2.7-2.7,2.7s-2.7-1.2-2.7-2.7s1.2-2.7,2.7-2.7S158.7,40.2,158.7,41.7"/>
					<path class="st3" d="M55.9,104.2c0,1.5-1.2,2.7-2.7,2.7s-2.7-1.2-2.7-2.7s1.2-2.7,2.7-2.7S55.9,102.7,55.9,104.2"/>
					<path class="st2" d="M142.7,62.5c0,1.5-1.2,2.7-2.7,2.7s-2.7-1.2-2.7-2.7c0-1.5,1.2-2.7,2.7-2.7S142.7,61,142.7,62.5"/>
					<path class="st2" d="M143.1,72.5c0,1.5-1.2,2.7-2.7,2.7s-2.7-1.2-2.7-2.7s1.2-2.7,2.7-2.7S143.1,71,143.1,72.5"/>
					<path class="st2" d="M155.9,54.2c0,1.5-1.2,2.7-2.7,2.7s-2.7-1.2-2.7-2.7s1.2-2.7,2.7-2.7S155.9,52.7,155.9,54.2"/>
					<path class="st2" d="M146.7,54.2c0,1.5-1.2,2.7-2.7,2.7s-2.7-1.2-2.7-2.7s1.2-2.7,2.7-2.7S146.7,52.7,146.7,54.2"/>
					<path class="st2" d="M155.9,58.3c0,1.5-1.2,2.7-2.7,2.7s-2.7-1.2-2.7-2.7s1.2-2.7,2.7-2.7S155.9,56.8,155.9,58.3"/>
					<path class="st2" d="M138.7,66.7c0,1.5-1.2,2.7-2.7,2.7s-2.7-1.2-2.7-2.7s1.2-2.7,2.7-2.7S138.7,65.2,138.7,66.7"/>
					<path class="st2" d="M123.5,83.3c0,1.5-1.2,2.7-2.7,2.7s-2.7-1.2-2.7-2.7s1.2-2.7,2.7-2.7S123.5,81.8,123.5,83.3"/>
					<path class="st2" d="M162.7,75c0,1.5-1.2,2.7-2.7,2.7s-2.7-1.2-2.7-2.7s1.2-2.7,2.7-2.7S162.7,73.5,162.7,75"/>
					<path class="st2" d="M184.7,12.5c0,1.5-1.2,2.7-2.7,2.7s-2.7-1.2-2.7-2.7s1.2-2.7,2.7-2.7S184.7,11,184.7,12.5"/>
					<path class="st4" d="M47.9,120.8c0,1.5-1.2,2.7-2.7,2.7s-2.7-1.2-2.7-2.7s1.2-2.7,2.7-2.7S47.9,119.3,47.9,120.8"/>
					<path class="st2" d="M81.9,120.8c0,1.5-1.2,2.7-2.7,2.7s-2.7-1.2-2.7-2.7s1.2-2.7,2.7-2.7S81.9,119.3,81.9,120.8"/>
					<path class="st2" d="M82.3,119.2c0,1.5-1.2,2.7-2.7,2.7s-2.7-1.2-2.7-2.7s1.2-2.7,2.7-2.7S82.3,117.7,82.3,119.2"/>
					<path class="st2" d="M82.7,129.2c0,1.5-1.2,2.7-2.7,2.7s-2.7-1.2-2.7-2.7s1.2-2.7,2.7-2.7S82.7,127.7,82.7,129.2"/>
					<path class="st4" d="M41.5,126.7c0,1.5-1.2,2.7-2.7,2.7s-2.7-1.2-2.7-2.7c0-1.5,1.2-2.7,2.7-2.7S41.5,125.2,41.5,126.7"/>
					<path class="st3" d="M41.5,161.7c0,1.5-1.2,2.7-2.7,2.7s-2.7-1.2-2.7-2.7s1.2-2.7,2.7-2.7S41.5,160.2,41.5,161.7"/>
					<path class="st3" d="M46.7,127.5c0,1.5-1.2,2.7-2.7,2.7s-2.7-1.2-2.7-2.7s1.2-2.7,2.7-2.7S46.7,126,46.7,127.5"/>
					<path class="st3" d="M45.5,125c0,1.5-1.2,2.7-2.7,2.7s-2.7-1.2-2.7-2.7s1.2-2.7,2.7-2.7S45.5,123.5,45.5,125"/>
					<path class="st3" d="M44.3,120.8c0,1.5-1.2,2.7-2.7,2.7s-2.7-1.2-2.7-2.7s1.2-2.7,2.7-2.7S44.3,119.3,44.3,120.8"/>
					<path class="st3" d="M51.1,105.8c0,1.5-1.2,2.7-2.7,2.7s-2.7-1.2-2.7-2.7s1.2-2.7,2.7-2.7S51.1,104.3,51.1,105.8"/>
					<path class="st2" d="M82.3,125c0,1.5-1.2,2.7-2.7,2.7s-2.7-1.2-2.7-2.7s1.2-2.7,2.7-2.7S82.3,123.5,82.3,125"/>
					<path class="st2" d="M146.7,20.8c0,1.5-1.2,2.7-2.7,2.7s-2.7-1.2-2.7-2.7c0-1.5,1.2-2.7,2.7-2.7S146.7,19.3,146.7,20.8"/>
					<path class="st2" d="M125.5,33.3c0,1.5-1.2,2.7-2.7,2.7s-2.7-1.2-2.7-2.7s1.2-2.7,2.7-2.7S125.5,31.8,125.5,33.3"/>
					<path class="st2" d="M129.9,25c0,1.5-1.2,2.7-2.7,2.7s-2.7-1.2-2.7-2.7c0-1.5,1.2-2.7,2.7-2.7S129.9,23.5,129.9,25"/>
					<path class="st2" d="M124.3,39.2c0,1.5-1.2,2.7-2.7,2.7s-2.7-1.2-2.7-2.7s1.2-2.7,2.7-2.7S124.3,37.7,124.3,39.2"/>
					<path class="st4" d="M41.5,126.7c0,1.5-1.2,2.7-2.7,2.7s-2.7-1.2-2.7-2.7c0-1.5,1.2-2.7,2.7-2.7S41.5,125.2,41.5,126.7"/>
					<path class="st2" d="M58.7,125c0,1.5-1.2,2.7-2.7,2.7s-2.7-1.2-2.7-2.7s1.2-2.7,2.7-2.7S58.7,123.5,58.7,125"/>
					<path class="st4" d="M47.9,120.8c0,1.5-1.2,2.7-2.7,2.7s-2.7-1.2-2.7-2.7s1.2-2.7,2.7-2.7S47.9,119.3,47.9,120.8"/>
					<path class="st3" d="M41.5,160c0,1.5-1.2,2.7-2.7,2.7s-2.7-1.2-2.7-2.7s1.2-2.7,2.7-2.7S41.5,158.5,41.5,160"/>
					<path class="st2" d="M95.5,116.7c0,1.5-1.2,2.7-2.7,2.7s-2.7-1.2-2.7-2.7s1.2-2.7,2.7-2.7S95.5,115.2,95.5,116.7"/>
					<path class="st2" d="M92.7,112.5c0,1.5-1.2,2.7-2.7,2.7s-2.7-1.2-2.7-2.7s1.2-2.7,2.7-2.7S92.7,111,92.7,112.5"/>
					<path class="st2" d="M102.7,116.7c0,1.5-1.2,2.7-2.7,2.7s-2.7-1.2-2.7-2.7s1.2-2.7,2.7-2.7S102.7,115.2,102.7,116.7"/>
					<path class="st2" d="M102.7,126.7c0,1.5-1.2,2.7-2.7,2.7s-2.7-1.2-2.7-2.7c0-1.5,1.2-2.7,2.7-2.7S102.7,125.2,102.7,126.7"/>
					<path class="st2" d="M95.5,116.7c0,1.5-1.2,2.7-2.7,2.7s-2.7-1.2-2.7-2.7s1.2-2.7,2.7-2.7S95.5,115.2,95.5,116.7"/>
					<path class="st2" d="M142.7,62.5c0,1.5-1.2,2.7-2.7,2.7s-2.7-1.2-2.7-2.7c0-1.5,1.2-2.7,2.7-2.7S142.7,61,142.7,62.5"/>
					<path class="st2" d="M162.7,54.2c0,1.5-1.2,2.7-2.7,2.7s-2.7-1.2-2.7-2.7s1.2-2.7,2.7-2.7S162.7,52.7,162.7,54.2"/>
					<path class="st2" d="M143.1,72.5c0,1.5-1.2,2.7-2.7,2.7s-2.7-1.2-2.7-2.7s1.2-2.7,2.7-2.7S143.1,71,143.1,72.5"/>
					<path class="st2" d="M129.9,75c0,1.5-1.2,2.7-2.7,2.7s-2.7-1.2-2.7-2.7s1.2-2.7,2.7-2.7S129.9,73.5,129.9,75"/>
					<path class="st2" d="M155.9,50c0,1.5-1.2,2.7-2.7,2.7s-2.7-1.2-2.7-2.7s1.2-2.7,2.7-2.7S155.9,48.5,155.9,50"/>
					<path class="st2" d="M162.7,58.3c0,1.5-1.2,2.7-2.7,2.7s-2.7-1.2-2.7-2.7s1.2-2.7,2.7-2.7S162.7,56.8,162.7,58.3"/>
					<path class="st2" d="M162.7,54.2c0,1.5-1.2,2.7-2.7,2.7s-2.7-1.2-2.7-2.7s1.2-2.7,2.7-2.7S162.7,52.7,162.7,54.2"/>
					<path class="st2" d="M105.9,108.3c0,1.5-1.2,2.7-2.7,2.7s-2.7-1.2-2.7-2.7s1.2-2.7,2.7-2.7S105.9,106.8,105.9,108.3"/>
					<path class="st2" d="M58.7,140c0,1.5-1.2,2.7-2.7,2.7s-2.7-1.2-2.7-2.7s1.2-2.7,2.7-2.7S58.7,138.5,58.7,140"/>
					<path class="st2" d="M102.7,116.7c0,1.5-1.2,2.7-2.7,2.7s-2.7-1.2-2.7-2.7s1.2-2.7,2.7-2.7S102.7,115.2,102.7,116.7"/>
					<path class="st2" d="M102.7,126.7c0,1.5-1.2,2.7-2.7,2.7s-2.7-1.2-2.7-2.7c0-1.5,1.2-2.7,2.7-2.7S102.7,125.2,102.7,126.7"/>
					<path class="st2" d="M51.5,128.3c0,1.5-1.2,2.7-2.7,2.7s-2.7-1.2-2.7-2.7s1.2-2.7,2.7-2.7S51.5,126.8,51.5,128.3"/>
					<path class="st3" d="M49.1,125c0,1.5-1.2,2.7-2.7,2.7s-2.7-1.2-2.7-2.7s1.2-2.7,2.7-2.7S49.1,123.5,49.1,125"/>
					<path class="st3" d="M34.3,141.7c0,1.5-1.2,2.7-2.7,2.7s-2.7-1.2-2.7-2.7s1.2-2.7,2.7-2.7S34.3,140.2,34.3,141.7"/>
					<path class="st3" d="M37.9,136.7c0,1.5-1.2,2.7-2.7,2.7s-2.7-1.2-2.7-2.7s1.2-2.7,2.7-2.7S37.9,135.2,37.9,136.7"/>
					<path class="st4" d="M31.1,145.8c0,1.5-1.2,2.7-2.7,2.7s-2.7-1.2-2.7-2.7s1.2-2.7,2.7-2.7S31.1,144.3,31.1,145.8"/>
					<path class="st4" d="M31.5,142.5c0,1.5-1.2,2.7-2.7,2.7s-2.7-1.2-2.7-2.7s1.2-2.7,2.7-2.7S31.5,141,31.5,142.5"/>
					<path class="st3" d="M41.5,150c0,1.5-1.2,2.7-2.7,2.7s-2.7-1.2-2.7-2.7s1.2-2.7,2.7-2.7S41.5,148.5,41.5,150"/>
					<path class="st2" d="M39.1,141.7c0,1.5-1.2,2.7-2.7,2.7s-2.7-1.2-2.7-2.7s1.2-2.7,2.7-2.7S39.1,140.2,39.1,141.7"/>
					<path class="st4" d="M47.9,120.8c0,1.5-1.2,2.7-2.7,2.7s-2.7-1.2-2.7-2.7s1.2-2.7,2.7-2.7S47.9,119.3,47.9,120.8"/>
					<path class="st2" d="M41.7,133.3c0,1.5-1.2,2.7-2.7,2.7s-2.7-1.2-2.7-2.7s1.2-2.7,2.7-2.7S41.7,131.8,41.7,133.3"/>
					<path class="st3" d="M41.5,155c0,1.5-1.2,2.7-2.7,2.7s-2.7-1.2-2.7-2.7s1.2-2.7,2.7-2.7S41.5,153.5,41.5,155"/>
					<path class="st2" d="M58.7,125c0,1.5-1.2,2.7-2.7,2.7s-2.7-1.2-2.7-2.7s1.2-2.7,2.7-2.7S58.7,123.5,58.7,125"/>
					<path class="st2" d="M51.5,128.3c0,1.5-1.2,2.7-2.7,2.7s-2.7-1.2-2.7-2.7s1.2-2.7,2.7-2.7S51.5,126.8,51.5,128.3"/>
					<path class="st2" d="M142.7,62.5c0,1.5-1.2,2.7-2.7,2.7s-2.7-1.2-2.7-2.7c0-1.5,1.2-2.7,2.7-2.7S142.7,61,142.7,62.5"/>
					<path class="st2" d="M162.7,54.2c0,1.5-1.2,2.7-2.7,2.7s-2.7-1.2-2.7-2.7s1.2-2.7,2.7-2.7S162.7,52.7,162.7,54.2"/>
					<path class="st2" d="M129.9,75c0,1.5-1.2,2.7-2.7,2.7s-2.7-1.2-2.7-2.7s1.2-2.7,2.7-2.7S129.9,73.5,129.9,75"/>
					<path class="st2" d="M143.1,72.5c0,1.5-1.2,2.7-2.7,2.7s-2.7-1.2-2.7-2.7s1.2-2.7,2.7-2.7S143.1,71,143.1,72.5"/>
					<path class="st2" d="M124.3,75c0,1.5-1.2,2.7-2.7,2.7s-2.7-1.2-2.7-2.7s1.2-2.7,2.7-2.7S124.3,73.5,124.3,75"/>
					<path class="st2" d="M174.3,26.7c0,1.5-1.2,2.7-2.7,2.7s-2.7-1.2-2.7-2.7c0-1.5,1.2-2.7,2.7-2.7S174.3,25.2,174.3,26.7"/>
					<path class="st2" d="M142.7,70.8c0,1.5-1.2,2.7-2.7,2.7s-2.7-1.2-2.7-2.7s1.2-2.7,2.7-2.7S142.7,69.3,142.7,70.8"/>
					<path class="st2" d="M142.7,66.7c0,1.5-1.2,2.7-2.7,2.7s-2.7-1.2-2.7-2.7s1.2-2.7,2.7-2.7S142.7,65.2,142.7,66.7"/>
					<path class="st2" d="M162.7,41.7c0,1.5-1.2,2.7-2.7,2.7s-2.7-1.2-2.7-2.7s1.2-2.7,2.7-2.7S162.7,40.2,162.7,41.7"/>
					<path class="st4" d="M30.7,119.2c0,1.5-1.2,2.7-2.7,2.7s-2.7-1.2-2.7-2.7s1.2-2.7,2.7-2.7S30.7,117.7,30.7,119.2"/>
					<path class="st2" d="M124.3,75c0,1.5-1.2,2.7-2.7,2.7s-2.7-1.2-2.7-2.7s1.2-2.7,2.7-2.7S124.3,73.5,124.3,75"/>
					<path class="st2" d="M125.5,91.7c0,1.5-1.2,2.7-2.7,2.7s-2.7-1.2-2.7-2.7s1.2-2.7,2.7-2.7S125.5,90.2,125.5,91.7"/>
					<path class="st2" d="M123.5,83.3c0,1.5-1.2,2.7-2.7,2.7s-2.7-1.2-2.7-2.7s1.2-2.7,2.7-2.7S123.5,81.8,123.5,83.3"/>
					<path class="st2" d="M129.9,75c0,1.5-1.2,2.7-2.7,2.7s-2.7-1.2-2.7-2.7s1.2-2.7,2.7-2.7S129.9,73.5,129.9,75"/>
					<path class="st3" d="M51.1,106.7c0,1.5-1.2,2.7-2.7,2.7s-2.7-1.2-2.7-2.7s1.2-2.7,2.7-2.7S51.1,105.2,51.1,106.7"/>
					<path class="st3" d="M51.1,136.7c0,1.5-1.2,2.7-2.7,2.7s-2.7-1.2-2.7-2.7s1.2-2.7,2.7-2.7S51.1,135.2,51.1,136.7"/>
					<path class="st3" d="M50.7,127.5c0,1.5-1.2,2.7-2.7,2.7s-2.7-1.2-2.7-2.7s1.2-2.7,2.7-2.7S50.7,126,50.7,127.5"/>
					<path class="st3" d="M41.1,142.5c0,1.5-1.2,2.7-2.7,2.7s-2.7-1.2-2.7-2.7s1.2-2.7,2.7-2.7S41.1,141,41.1,142.5"/>
					<path class="st2" d="M51.5,128.3c0,1.5-1.2,2.7-2.7,2.7s-2.7-1.2-2.7-2.7s1.2-2.7,2.7-2.7S51.5,126.8,51.5,128.3"/>
					<path class="st4" d="M41.5,123.3c0,1.5-1.2,2.7-2.7,2.7s-2.7-1.2-2.7-2.7s1.2-2.7,2.7-2.7S41.5,121.8,41.5,123.3"/>
					<path class="st4" d="M50.7,119.2c0,1.5-1.2,2.7-2.7,2.7s-2.7-1.2-2.7-2.7s1.2-2.7,2.7-2.7S50.7,117.7,50.7,119.2"/>
					<path class="st2" d="M41.9,133.3c0,1.5-1.2,2.7-2.7,2.7s-2.7-1.2-2.7-2.7s1.2-2.7,2.7-2.7S41.9,131.8,41.9,133.3"/>
					<path class="st4" d="M41.5,126.7c0,1.5-1.2,2.7-2.7,2.7s-2.7-1.2-2.7-2.7c0-1.5,1.2-2.7,2.7-2.7S41.5,125.2,41.5,126.7"/>
					<path class="st2" d="M142.7,54.2c0,1.5-1.2,2.7-2.7,2.7s-2.7-1.2-2.7-2.7s1.2-2.7,2.7-2.7S142.7,52.7,142.7,54.2"/>
					<path class="st2" d="M124.3,75c0,1.5-1.2,2.7-2.7,2.7s-2.7-1.2-2.7-2.7s1.2-2.7,2.7-2.7S124.3,73.5,124.3,75"/>
					<path class="st2" d="M142.7,79.2c0,1.5-1.2,2.7-2.7,2.7s-2.7-1.2-2.7-2.7s1.2-2.7,2.7-2.7S142.7,77.7,142.7,79.2"/>
					<path class="st2" d="M123.5,85.8c0,1.5-1.2,2.7-2.7,2.7s-2.7-1.2-2.7-2.7s1.2-2.7,2.7-2.7S123.5,84.3,123.5,85.8"/>
					<path class="st2" d="M129.9,75c0,1.5-1.2,2.7-2.7,2.7s-2.7-1.2-2.7-2.7s1.2-2.7,2.7-2.7S129.9,73.5,129.9,75"/>
					<path class="st2" d="M174.3,35c0,1.5-1.2,2.7-2.7,2.7s-2.7-1.2-2.7-2.7s1.2-2.7,2.7-2.7S174.3,33.5,174.3,35"/>
					<path class="st2" d="M162.7,75c0,1.5-1.2,2.7-2.7,2.7s-2.7-1.2-2.7-2.7s1.2-2.7,2.7-2.7S162.7,73.5,162.7,75"/>
					<path class="st2" d="M143.1,68.3c0,1.5-1.2,2.7-2.7,2.7s-2.7-1.2-2.7-2.7s1.2-2.7,2.7-2.7S143.1,66.8,143.1,68.3"/>
					<path class="st2" d="M129.9,75c0,1.5-1.2,2.7-2.7,2.7s-2.7-1.2-2.7-2.7s1.2-2.7,2.7-2.7S129.9,73.5,129.9,75"/>
					<path class="st2" d="M178.7,20.8c0,1.5-1.2,2.7-2.7,2.7s-2.7-1.2-2.7-2.7c0-1.5,1.2-2.7,2.7-2.7S178.7,19.3,178.7,20.8"/>
					<path class="st2" d="M184.7,12.5c0,1.5-1.2,2.7-2.7,2.7s-2.7-1.2-2.7-2.7s1.2-2.7,2.7-2.7S184.7,11,184.7,12.5"/>
					<path class="st2" d="M146.7,54.2c0,1.5-1.2,2.7-2.7,2.7s-2.7-1.2-2.7-2.7s1.2-2.7,2.7-2.7S146.7,52.7,146.7,54.2"/>
					<path class="st2" d="M92.7,112.5c0,1.5-1.2,2.7-2.7,2.7s-2.7-1.2-2.7-2.7s1.2-2.7,2.7-2.7S92.7,111,92.7,112.5"/>
					<path class="st2" d="M102.7,116.7c0,1.5-1.2,2.7-2.7,2.7s-2.7-1.2-2.7-2.7s1.2-2.7,2.7-2.7S102.7,115.2,102.7,116.7"/>
					<path class="st2" d="M95.5,116.7c0,1.5-1.2,2.7-2.7,2.7s-2.7-1.2-2.7-2.7s1.2-2.7,2.7-2.7S95.5,115.2,95.5,116.7"/>
					<path class="st2" d="M102.7,126.7c0,1.5-1.2,2.7-2.7,2.7s-2.7-1.2-2.7-2.7c0-1.5,1.2-2.7,2.7-2.7S102.7,125.2,102.7,126.7"/>
					<path class="st2" d="M81.9,120.8c0,1.5-1.2,2.7-2.7,2.7s-2.7-1.2-2.7-2.7s1.2-2.7,2.7-2.7S81.9,119.3,81.9,120.8"/>
					<path class="st3" d="M41.5,161.7c0,1.5-1.2,2.7-2.7,2.7s-2.7-1.2-2.7-2.7s1.2-2.7,2.7-2.7S41.5,160.2,41.5,161.7"/>
					<path class="st2" d="M162.7,75c0,1.5-1.2,2.7-2.7,2.7s-2.7-1.2-2.7-2.7s1.2-2.7,2.7-2.7S162.7,73.5,162.7,75"/>
					<path class="st2" d="M162.7,60.8c0,1.5-1.2,2.7-2.7,2.7s-2.7-1.2-2.7-2.7s1.2-2.7,2.7-2.7S162.7,59.3,162.7,60.8"/>
					<path class="st2" d="M146.7,58.3c0,1.5-1.2,2.7-2.7,2.7s-2.7-1.2-2.7-2.7s1.2-2.7,2.7-2.7S146.7,56.8,146.7,58.3"/>
					<path class="st2" d="M142.7,50c0,1.5-1.2,2.7-2.7,2.7s-2.7-1.2-2.7-2.7s1.2-2.7,2.7-2.7S142.7,48.5,142.7,50"/>
					<path class="st2" d="M95.5,116.7c0,1.5-1.2,2.7-2.7,2.7s-2.7-1.2-2.7-2.7s1.2-2.7,2.7-2.7S95.5,115.2,95.5,116.7"/>
					<path class="st4" d="M41.5,126.7c0,1.5-1.2,2.7-2.7,2.7s-2.7-1.2-2.7-2.7c0-1.5,1.2-2.7,2.7-2.7S41.5,125.2,41.5,126.7"/>
					<path class="st2" d="M58.7,140c0,1.5-1.2,2.7-2.7,2.7s-2.7-1.2-2.7-2.7s1.2-2.7,2.7-2.7S58.7,138.5,58.7,140"/>
					<path class="st4" d="M45.9,121.7c0,1.5-1.2,2.7-2.7,2.7s-2.7-1.2-2.7-2.7s1.2-2.7,2.7-2.7S45.9,120.2,45.9,121.7"/>
					<path class="st4" d="M30.7,125c0,1.5-1.2,2.7-2.7,2.7s-2.7-1.2-2.7-2.7s1.2-2.7,2.7-2.7S30.7,123.5,30.7,125"/>
					<path class="st2" d="M51.5,129.2c0,1.5-1.2,2.7-2.7,2.7s-2.7-1.2-2.7-2.7s1.2-2.7,2.7-2.7S51.5,127.7,51.5,129.2"/>
					<path class="st2" d="M64.7,110.8c0,1.5-1.2,2.7-2.7,2.7s-2.7-1.2-2.7-2.7s1.2-2.7,2.7-2.7S64.7,109.3,64.7,110.8"/>
					<path class="st3" d="M41.9,125c0,1.5-1.2,2.7-2.7,2.7s-2.7-1.2-2.7-2.7s1.2-2.7,2.7-2.7S41.9,123.5,41.9,125"/>
					<path class="st2" d="M142.7,79.2c0,1.5-1.2,2.7-2.7,2.7s-2.7-1.2-2.7-2.7s1.2-2.7,2.7-2.7S142.7,77.7,142.7,79.2"/>
					<path class="st2" d="M162.7,8.3c0,1.5-1.2,2.7-2.7,2.7s-2.7-1.2-2.7-2.7s1.2-2.7,2.7-2.7S162.7,6.8,162.7,8.3"/>
					<path class="st3" d="M29.9,159.2c0,1.5-1.2,2.7-2.7,2.7s-2.7-1.2-2.7-2.7s1.2-2.7,2.7-2.7S29.9,157.7,29.9,159.2"/>
					<path class="st3" d="M49.1,137.5c0,1.5-1.2,2.7-2.7,2.7s-2.7-1.2-2.7-2.7s1.2-2.7,2.7-2.7S49.1,136,49.1,137.5"/>
					<path class="st3" d="M48.3,124.2c0,1.5-1.2,2.7-2.7,2.7s-2.7-1.2-2.7-2.7s1.2-2.7,2.7-2.7S48.3,122.7,48.3,124.2"/>
					<path class="st3" d="M51.1,106.7c0,1.5-1.2,2.7-2.7,2.7s-2.7-1.2-2.7-2.7s1.2-2.7,2.7-2.7S51.1,105.2,51.1,106.7"/>
					<path class="st2" d="M129.9,75c0,1.5-1.2,2.7-2.7,2.7s-2.7-1.2-2.7-2.7s1.2-2.7,2.7-2.7S129.9,73.5,129.9,75"/>
					<path class="st3" d="M51.1,108.3c0,1.5-1.2,2.7-2.7,2.7s-2.7-1.2-2.7-2.7s1.2-2.7,2.7-2.7S51.1,106.8,51.1,108.3"/>
					<path class="st4" d="M65.1,98.3c0,1.5-1.2,2.7-2.7,2.7s-2.7-1.2-2.7-2.7s1.2-2.7,2.7-2.7S65.1,96.8,65.1,98.3"/>
					<path class="st2" d="M142.7,50c0,1.5-1.2,2.7-2.7,2.7s-2.7-1.2-2.7-2.7s1.2-2.7,2.7-2.7S142.7,48.5,142.7,50"/>
					<path class="st2" d="M81.9,120.8c0,1.5-1.2,2.7-2.7,2.7s-2.7-1.2-2.7-2.7s1.2-2.7,2.7-2.7S81.9,119.3,81.9,120.8"/>
					<path class="st2" d="M95.5,116.7c0,1.5-1.2,2.7-2.7,2.7s-2.7-1.2-2.7-2.7s1.2-2.7,2.7-2.7S95.5,115.2,95.5,116.7"/>
					<path class="st2" d="M102.7,116.7c0,1.5-1.2,2.7-2.7,2.7s-2.7-1.2-2.7-2.7s1.2-2.7,2.7-2.7S102.7,115.2,102.7,116.7"/>
					<path class="st4" d="M34.3,144.2c0,1.5-1.2,2.7-2.7,2.7s-2.7-1.2-2.7-2.7s1.2-2.7,2.7-2.7S34.3,142.7,34.3,144.2"/>
					<path class="st2" d="M51.5,133.3c0,1.5-1.2,2.7-2.7,2.7s-2.7-1.2-2.7-2.7s1.2-2.7,2.7-2.7S51.5,131.8,51.5,133.3"/>
					<path class="st4" d="M31.1,145.8c0,1.5-1.2,2.7-2.7,2.7s-2.7-1.2-2.7-2.7s1.2-2.7,2.7-2.7S31.1,144.3,31.1,145.8"/>
					<path class="st2" d="M58.7,137.5c0,1.5-1.2,2.7-2.7,2.7s-2.7-1.2-2.7-2.7s1.2-2.7,2.7-2.7S58.7,136,58.7,137.5"/>
					<path class="st2" d="M102.7,116.7c0,1.5-1.2,2.7-2.7,2.7s-2.7-1.2-2.7-2.7s1.2-2.7,2.7-2.7S102.7,115.2,102.7,116.7"/>
					<path class="st2" d="M105.9,108.3c0,1.5-1.2,2.7-2.7,2.7s-2.7-1.2-2.7-2.7s1.2-2.7,2.7-2.7S105.9,106.8,105.9,108.3"/>
					<path class="st2" d="M92.7,112.5c0,1.5-1.2,2.7-2.7,2.7s-2.7-1.2-2.7-2.7s1.2-2.7,2.7-2.7S92.7,111,92.7,112.5"/>
					<path class="st2" d="M123.5,83.3c0,1.5-1.2,2.7-2.7,2.7s-2.7-1.2-2.7-2.7s1.2-2.7,2.7-2.7S123.5,81.8,123.5,83.3"/>
					<path class="st2" d="M142.7,75c0,1.5-1.2,2.7-2.7,2.7s-2.7-1.2-2.7-2.7s1.2-2.7,2.7-2.7S142.7,73.5,142.7,75"/>
					<path class="st2" d="M129.9,75c0,1.5-1.2,2.7-2.7,2.7s-2.7-1.2-2.7-2.7s1.2-2.7,2.7-2.7S129.9,73.5,129.9,75"/>
					<path class="st2" d="M123.5,83.3c0,1.5-1.2,2.7-2.7,2.7s-2.7-1.2-2.7-2.7s1.2-2.7,2.7-2.7S123.5,81.8,123.5,83.3"/>
					<path class="st2" d="M124.3,75c0,1.5-1.2,2.7-2.7,2.7s-2.7-1.2-2.7-2.7s1.2-2.7,2.7-2.7S124.3,73.5,124.3,75"/>
					<path class="st3" d="M41.9,130.8c0,1.5-1.2,2.7-2.7,2.7s-2.7-1.2-2.7-2.7s1.2-2.7,2.7-2.7S41.9,129.3,41.9,130.8"/>
					<path class="st3" d="M34.3,144.2c0,1.5-1.2,2.7-2.7,2.7s-2.7-1.2-2.7-2.7s1.2-2.7,2.7-2.7S34.3,142.7,34.3,144.2"/>
					<path class="st3" d="M41.5,135c0,1.5-1.2,2.7-2.7,2.7s-2.7-1.2-2.7-2.7s1.2-2.7,2.7-2.7S41.5,133.5,41.5,135"/>
					<path class="st4" d="M33.1,156.7c0,1.5-1.2,2.7-2.7,2.7s-2.7-1.2-2.7-2.7s1.2-2.7,2.7-2.7S33.1,155.2,33.1,156.7"/>
					<path class="st4" d="M35.9,149.2c0,1.5-1.2,2.7-2.7,2.7s-2.7-1.2-2.7-2.7s1.2-2.7,2.7-2.7S35.9,147.7,35.9,149.2"/>
					<path class="st2" d="M38.7,137.5c0,1.5-1.2,2.7-2.7,2.7s-2.7-1.2-2.7-2.7s1.2-2.7,2.7-2.7S38.7,136,38.7,137.5"/>
					<path class="st3" d="M38.7,137.5c0,1.5-1.2,2.7-2.7,2.7s-2.7-1.2-2.7-2.7s1.2-2.7,2.7-2.7S38.7,136,38.7,137.5"/>
					<path class="st3" d="M49.1,137.5c0,1.5-1.2,2.7-2.7,2.7s-2.7-1.2-2.7-2.7s1.2-2.7,2.7-2.7S49.1,136,49.1,137.5"/>
					<path class="st4" d="M50.7,119.2c0,1.5-1.2,2.7-2.7,2.7s-2.7-1.2-2.7-2.7s1.2-2.7,2.7-2.7S50.7,117.7,50.7,119.2"/>
					<path class="st4" d="M45.9,122.5c0,1.5-1.2,2.7-2.7,2.7s-2.7-1.2-2.7-2.7s1.2-2.7,2.7-2.7S45.9,121,45.9,122.5"/>
					<path class="st3" d="M34.3,144.2c0,1.5-1.2,2.7-2.7,2.7s-2.7-1.2-2.7-2.7s1.2-2.7,2.7-2.7S34.3,142.7,34.3,144.2"/>
					<path class="st2" d="M92.7,120.8c0,1.5-1.2,2.7-2.7,2.7s-2.7-1.2-2.7-2.7s1.2-2.7,2.7-2.7S92.7,119.3,92.7,120.8"/>
					<path class="st2" d="M102.7,112.5c0,1.5-1.2,2.7-2.7,2.7s-2.7-1.2-2.7-2.7s1.2-2.7,2.7-2.7S102.7,111,102.7,112.5"/>
					<path class="st2" d="M102.7,140c0,1.5-1.2,2.7-2.7,2.7s-2.7-1.2-2.7-2.7s1.2-2.7,2.7-2.7S102.7,138.5,102.7,140"/>
					<path class="st2" d="M102.7,140c0,1.5-1.2,2.7-2.7,2.7s-2.7-1.2-2.7-2.7s1.2-2.7,2.7-2.7S102.7,138.5,102.7,140"/>
					<path class="st2" d="M162.7,58.3c0,1.5-1.2,2.7-2.7,2.7s-2.7-1.2-2.7-2.7s1.2-2.7,2.7-2.7S162.7,56.8,162.7,58.3"/>
					<path class="st2" d="M142.7,79.2c0,1.5-1.2,2.7-2.7,2.7s-2.7-1.2-2.7-2.7s1.2-2.7,2.7-2.7S142.7,77.7,142.7,79.2"/>
					<path class="st2" d="M129.9,75c0,1.5-1.2,2.7-2.7,2.7s-2.7-1.2-2.7-2.7s1.2-2.7,2.7-2.7S129.9,73.5,129.9,75"/>
					<path class="st2" d="M143.1,76.7c0,1.5-1.2,2.7-2.7,2.7s-2.7-1.2-2.7-2.7s1.2-2.7,2.7-2.7S143.1,75.2,143.1,76.7"/>
					<path class="st2" d="M95.1,108.3c0,1.5-1.2,2.7-2.7,2.7s-2.7-1.2-2.7-2.7s1.2-2.7,2.7-2.7S95.1,106.8,95.1,108.3"/>
					<path class="st2" d="M102.7,112.5c0,1.5-1.2,2.7-2.7,2.7s-2.7-1.2-2.7-2.7s1.2-2.7,2.7-2.7S102.7,111,102.7,112.5"/>
					<path class="st2" d="M105.9,108.3c0,1.5-1.2,2.7-2.7,2.7s-2.7-1.2-2.7-2.7s1.2-2.7,2.7-2.7S105.9,106.8,105.9,108.3"/>
					<path class="st2" d="M92.7,120.8c0,1.5-1.2,2.7-2.7,2.7s-2.7-1.2-2.7-2.7s1.2-2.7,2.7-2.7S92.7,119.3,92.7,120.8"/>
					<path class="st2" d="M95.1,108.3c0,1.5-1.2,2.7-2.7,2.7s-2.7-1.2-2.7-2.7s1.2-2.7,2.7-2.7S95.1,106.8,95.1,108.3"/>
					<path class="st2" d="M107.5,108.3c0,1.5-1.2,2.7-2.7,2.7s-2.7-1.2-2.7-2.7s1.2-2.7,2.7-2.7S107.5,106.8,107.5,108.3"/>
					<path class="st2" d="M123.5,92.5c0,1.5-1.2,2.7-2.7,2.7s-2.7-1.2-2.7-2.7s1.2-2.7,2.7-2.7S123.5,91,123.5,92.5"/>
					<path class="st4" d="M41.5,137.5c0,1.5-1.2,2.7-2.7,2.7s-2.7-1.2-2.7-2.7s1.2-2.7,2.7-2.7S41.5,136,41.5,137.5"/>
					<path class="st2" d="M58.7,130.8c0,1.5-1.2,2.7-2.7,2.7s-2.7-1.2-2.7-2.7s1.2-2.7,2.7-2.7S58.7,129.3,58.7,130.8"/>
					<path class="st2" d="M95.5,116.7c0,1.5-1.2,2.7-2.7,2.7s-2.7-1.2-2.7-2.7s1.2-2.7,2.7-2.7S95.5,115.2,95.5,116.7"/>
					<path class="st2" d="M58.7,135c0,1.5-1.2,2.7-2.7,2.7s-2.7-1.2-2.7-2.7s1.2-2.7,2.7-2.7S58.7,133.5,58.7,135"/>
					<path class="st4" d="M56.3,120c0,1.5-1.2,2.7-2.7,2.7s-2.7-1.2-2.7-2.7s1.2-2.7,2.7-2.7S56.3,118.5,56.3,120"/>
					<path class="st3" d="M38.7,140.8c0,1.5-1.2,2.7-2.7,2.7s-2.7-1.2-2.7-2.7s1.2-2.7,2.7-2.7S38.7,139.3,38.7,140.8"/>
					<path class="st4" d="M50.3,119.2c0,1.5-1.2,2.7-2.7,2.7s-2.7-1.2-2.7-2.7s1.2-2.7,2.7-2.7S50.3,117.7,50.3,119.2"/>
					<path class="st2" d="M71.1,119.2c0,1.5-1.2,2.7-2.7,2.7s-2.7-1.2-2.7-2.7s1.2-2.7,2.7-2.7S71.1,117.7,71.1,119.2"/>
					<path class="st3" d="M38.7,141.7c0,1.5-1.2,2.7-2.7,2.7s-2.7-1.2-2.7-2.7s1.2-2.7,2.7-2.7S38.7,140.2,38.7,141.7"/>
					<path class="st2" d="M95.5,125c0,1.5-1.2,2.7-2.7,2.7s-2.7-1.2-2.7-2.7s1.2-2.7,2.7-2.7S95.5,123.5,95.5,125"/>
					<path class="st3" d="M48.7,120.8c0,1.5-1.2,2.7-2.7,2.7s-2.7-1.2-2.7-2.7s1.2-2.7,2.7-2.7S48.7,119.3,48.7,120.8"/>
					<path class="st3" d="M50.7,126.7c0,1.5-1.2,2.7-2.7,2.7s-2.7-1.2-2.7-2.7c0-1.5,1.2-2.7,2.7-2.7S50.7,125.2,50.7,126.7"/>
					<path class="st3" d="M51.1,118.3c0,1.5-1.2,2.7-2.7,2.7s-2.7-1.2-2.7-2.7s1.2-2.7,2.7-2.7S51.1,116.8,51.1,118.3"/>
					<path class="st3" d="M51.1,104.2c0,1.5-1.2,2.7-2.7,2.7s-2.7-1.2-2.7-2.7s1.2-2.7,2.7-2.7S51.1,102.7,51.1,104.2"/>
					<path class="st4" d="M39.1,155.8c0,1.5-1.2,2.7-2.7,2.7s-2.7-1.2-2.7-2.7s1.2-2.7,2.7-2.7S39.1,154.3,39.1,155.8"/>
					<path class="st3" d="M45.5,128.3c0,1.5-1.2,2.7-2.7,2.7s-2.7-1.2-2.7-2.7s1.2-2.7,2.7-2.7S45.5,126.8,45.5,128.3"/>
					<path class="st3" d="M49.1,132.5c0,1.5-1.2,2.7-2.7,2.7s-2.7-1.2-2.7-2.7s1.2-2.7,2.7-2.7S49.1,131,49.1,132.5"/>
					<path class="st2" d="M58.7,123.3c0,1.5-1.2,2.7-2.7,2.7s-2.7-1.2-2.7-2.7s1.2-2.7,2.7-2.7S58.7,121.8,58.7,123.3"/>
					<path class="st2" d="M41.9,134.2c0,1.5-1.2,2.7-2.7,2.7s-2.7-1.2-2.7-2.7s1.2-2.7,2.7-2.7S41.9,132.7,41.9,134.2"/>
					<path class="st3" d="M43.1,130.8c0,1.5-1.2,2.7-2.7,2.7s-2.7-1.2-2.7-2.7s1.2-2.7,2.7-2.7S43.1,129.3,43.1,130.8"/>
					<path class="st2" d="M124.7,83.3c0,1.5-1.2,2.7-2.7,2.7s-2.7-1.2-2.7-2.7s1.2-2.7,2.7-2.7S124.7,81.8,124.7,83.3"/>
					<path class="st2" d="M129.9,75c0,1.5-1.2,2.7-2.7,2.7s-2.7-1.2-2.7-2.7s1.2-2.7,2.7-2.7S129.9,73.5,129.9,75"/>
					<path class="st2" d="M124.3,100c0,1.5-1.2,2.7-2.7,2.7s-2.7-1.2-2.7-2.7s1.2-2.7,2.7-2.7S124.3,98.5,124.3,100"/>
					<path class="st2" d="M143.1,73.3c0,1.5-1.2,2.7-2.7,2.7s-2.7-1.2-2.7-2.7s1.2-2.7,2.7-2.7S143.1,71.8,143.1,73.3"/>
					<path class="st2" d="M92.7,116.7c0,1.5-1.2,2.7-2.7,2.7s-2.7-1.2-2.7-2.7s1.2-2.7,2.7-2.7S92.7,115.2,92.7,116.7"/>
					<path class="st2" d="M102.7,112.5c0,1.5-1.2,2.7-2.7,2.7s-2.7-1.2-2.7-2.7s1.2-2.7,2.7-2.7S102.7,111,102.7,112.5"/>
					<path class="st2" d="M82.7,132.5c0,1.5-1.2,2.7-2.7,2.7s-2.7-1.2-2.7-2.7s1.2-2.7,2.7-2.7S82.7,131,82.7,132.5"/>
					<path class="st2" d="M95.5,125c0,1.5-1.2,2.7-2.7,2.7s-2.7-1.2-2.7-2.7s1.2-2.7,2.7-2.7S95.5,123.5,95.5,125"/>
					<path class="st2" d="M36.7,156.7c0,1.5-1.2,2.7-2.7,2.7s-2.7-1.2-2.7-2.7s1.2-2.7,2.7-2.7S36.7,155.2,36.7,156.7"/>
					<path class="st2" d="M41.9,150c0,1.5-1.2,2.7-2.7,2.7s-2.7-1.2-2.7-2.7s1.2-2.7,2.7-2.7S41.9,148.5,41.9,150"/>
					<path class="st3" d="M38.7,141.7c0,1.5-1.2,2.7-2.7,2.7s-2.7-1.2-2.7-2.7s1.2-2.7,2.7-2.7S38.7,140.2,38.7,141.7"/>
					<path class="st4" d="M39.1,155.8c0,1.5-1.2,2.7-2.7,2.7s-2.7-1.2-2.7-2.7s1.2-2.7,2.7-2.7S39.1,154.3,39.1,155.8"/>
					<path class="st2" d="M92.7,116.7c0,1.5-1.2,2.7-2.7,2.7s-2.7-1.2-2.7-2.7s1.2-2.7,2.7-2.7S92.7,115.2,92.7,116.7"/>
					<path class="st2" d="M102.7,135c0,1.5-1.2,2.7-2.7,2.7s-2.7-1.2-2.7-2.7s1.2-2.7,2.7-2.7S102.7,133.5,102.7,135"/>
					<path class="st2" d="M102.7,108.3c0,1.5-1.2,2.7-2.7,2.7s-2.7-1.2-2.7-2.7s1.2-2.7,2.7-2.7S102.7,106.8,102.7,108.3"/>
					<path class="st2" d="M105.9,120.8c0,1.5-1.2,2.7-2.7,2.7s-2.7-1.2-2.7-2.7s1.2-2.7,2.7-2.7S105.9,119.3,105.9,120.8"/>
					<path class="st3" d="M41.5,140.8c0,1.5-1.2,2.7-2.7,2.7s-2.7-1.2-2.7-2.7s1.2-2.7,2.7-2.7S41.5,139.3,41.5,140.8"/>
					<path class="st4" d="M36.7,141.7c0,1.5-1.2,2.7-2.7,2.7s-2.7-1.2-2.7-2.7s1.2-2.7,2.7-2.7S36.7,140.2,36.7,141.7"/>
					<path class="st4" d="M41.5,137.5c0,1.5-1.2,2.7-2.7,2.7s-2.7-1.2-2.7-2.7s1.2-2.7,2.7-2.7S41.5,136,41.5,137.5"/>
					<path class="st2" d="M58.7,140c0,1.5-1.2,2.7-2.7,2.7s-2.7-1.2-2.7-2.7s1.2-2.7,2.7-2.7S58.7,138.5,58.7,140"/>
					<path class="st3" d="M54.7,115c0,1.5-1.2,2.7-2.7,2.7s-2.7-1.2-2.7-2.7s1.2-2.7,2.7-2.7S54.7,113.5,54.7,115"/>
					<path class="st2" d="M129.9,75c0,1.5-1.2,2.7-2.7,2.7s-2.7-1.2-2.7-2.7s1.2-2.7,2.7-2.7S129.9,73.5,129.9,75"/>
					<path class="st3" d="M50.7,126.7c0,1.5-1.2,2.7-2.7,2.7s-2.7-1.2-2.7-2.7c0-1.5,1.2-2.7,2.7-2.7S50.7,125.2,50.7,126.7"/>
					<path class="st4" d="M65.1,110c0,1.5-1.2,2.7-2.7,2.7s-2.7-1.2-2.7-2.7s1.2-2.7,2.7-2.7S65.1,108.5,65.1,110"/>
					<path class="st3" d="M69.9,100c0,1.5-1.2,2.7-2.7,2.7s-2.7-1.2-2.7-2.7s1.2-2.7,2.7-2.7S69.9,98.5,69.9,100"/>
					<path class="st2" d="M142.7,50c0,1.5-1.2,2.7-2.7,2.7s-2.7-1.2-2.7-2.7s1.2-2.7,2.7-2.7S142.7,48.5,142.7,50"/>
					<path class="st2" d="M142.7,79.2c0,1.5-1.2,2.7-2.7,2.7s-2.7-1.2-2.7-2.7s1.2-2.7,2.7-2.7S142.7,77.7,142.7,79.2"/>
					<path class="st2" d="M123.5,91.7c0,1.5-1.2,2.7-2.7,2.7s-2.7-1.2-2.7-2.7s1.2-2.7,2.7-2.7S123.5,90.2,123.5,91.7"/>
					<path class="st2" d="M129.9,75c0,1.5-1.2,2.7-2.7,2.7s-2.7-1.2-2.7-2.7s1.2-2.7,2.7-2.7S129.9,73.5,129.9,75"/>
					<path class="st4" d="M41.9,143.3c0,1.5-1.2,2.7-2.7,2.7s-2.7-1.2-2.7-2.7s1.2-2.7,2.7-2.7S41.9,141.8,41.9,143.3"/>
					<path class="st2" d="M47.1,133.3c0,1.5-1.2,2.7-2.7,2.7s-2.7-1.2-2.7-2.7s1.2-2.7,2.7-2.7S47.1,131.8,47.1,133.3"/>
					<path class="st3" d="M34.3,151.7c0,1.5-1.2,2.7-2.7,2.7s-2.7-1.2-2.7-2.7s1.2-2.7,2.7-2.7S34.3,150.2,34.3,151.7"/>
					<path class="st2" d="M51.5,120c0,1.5-1.2,2.7-2.7,2.7s-2.7-1.2-2.7-2.7s1.2-2.7,2.7-2.7S51.5,118.5,51.5,120"/>
					<path class="st4" d="M36.7,141.7c0,1.5-1.2,2.7-2.7,2.7s-2.7-1.2-2.7-2.7s1.2-2.7,2.7-2.7S36.7,140.2,36.7,141.7"/>
					<path class="st2" d="M124.7,79.2c0,1.5-1.2,2.7-2.7,2.7s-2.7-1.2-2.7-2.7s1.2-2.7,2.7-2.7S124.7,77.7,124.7,79.2"/>
					<path class="st2" d="M106.7,108.3c0,1.5-1.2,2.7-2.7,2.7s-2.7-1.2-2.7-2.7s1.2-2.7,2.7-2.7S106.7,106.8,106.7,108.3"/>
					<path class="st2" d="M129.9,79.2c0,1.5-1.2,2.7-2.7,2.7s-2.7-1.2-2.7-2.7s1.2-2.7,2.7-2.7S129.9,77.7,129.9,79.2"/>
					<path class="st2" d="M123.5,91.7c0,1.5-1.2,2.7-2.7,2.7s-2.7-1.2-2.7-2.7s1.2-2.7,2.7-2.7S123.5,90.2,123.5,91.7"/>
					<path class="st2" d="M102.7,108.3c0,1.5-1.2,2.7-2.7,2.7s-2.7-1.2-2.7-2.7s1.2-2.7,2.7-2.7S102.7,106.8,102.7,108.3"/>
					<path class="st2" d="M95.1,112.5c0,1.5-1.2,2.7-2.7,2.7s-2.7-1.2-2.7-2.7s1.2-2.7,2.7-2.7S95.1,111,95.1,112.5"/>
					<path class="st2" d="M92.7,116.7c0,1.5-1.2,2.7-2.7,2.7s-2.7-1.2-2.7-2.7s1.2-2.7,2.7-2.7S92.7,115.2,92.7,116.7"/>
					<path class="st2" d="M102.7,118.3c0,1.5-1.2,2.7-2.7,2.7s-2.7-1.2-2.7-2.7s1.2-2.7,2.7-2.7S102.7,116.8,102.7,118.3"/>
					<path class="st2" d="M162.7,50c0,1.5-1.2,2.7-2.7,2.7s-2.7-1.2-2.7-2.7s1.2-2.7,2.7-2.7S162.7,48.5,162.7,50"/>
					<path class="st2" d="M142.7,58.3c0,1.5-1.2,2.7-2.7,2.7s-2.7-1.2-2.7-2.7s1.2-2.7,2.7-2.7S142.7,56.8,142.7,58.3"/>
					<path class="st2" d="M162.7,41.7c0,1.5-1.2,2.7-2.7,2.7s-2.7-1.2-2.7-2.7s1.2-2.7,2.7-2.7S162.7,40.2,162.7,41.7"/>
					<path class="st2" d="M143.1,75.8c0,1.5-1.2,2.7-2.7,2.7s-2.7-1.2-2.7-2.7s1.2-2.7,2.7-2.7S143.1,74.3,143.1,75.8"/>
					<path class="st3" d="M41.5,135c0,1.5-1.2,2.7-2.7,2.7s-2.7-1.2-2.7-2.7s1.2-2.7,2.7-2.7S41.5,133.5,41.5,135"/>
					<path class="st2" d="M63.1,126.7c0,1.5-1.2,2.7-2.7,2.7s-2.7-1.2-2.7-2.7c0-1.5,1.2-2.7,2.7-2.7S63.1,125.2,63.1,126.7"/>
					<path class="st4" d="M41.5,137.5c0,1.5-1.2,2.7-2.7,2.7s-2.7-1.2-2.7-2.7s1.2-2.7,2.7-2.7S41.5,136,41.5,137.5"/>
					<path class="st2" d="M58.7,125.8c0,1.5-1.2,2.7-2.7,2.7s-2.7-1.2-2.7-2.7s1.2-2.7,2.7-2.7S58.7,124.3,58.7,125.8"/>
					<path class="st2" d="M41.9,147.5c0,1.5-1.2,2.7-2.7,2.7s-2.7-1.2-2.7-2.7s1.2-2.7,2.7-2.7S41.9,146,41.9,147.5"/>
					<path class="st2" d="M41.9,130.8c0,1.5-1.2,2.7-2.7,2.7s-2.7-1.2-2.7-2.7s1.2-2.7,2.7-2.7S41.9,129.3,41.9,130.8"/>
					<path class="st4" d="M41.5,144.2c0,1.5-1.2,2.7-2.7,2.7s-2.7-1.2-2.7-2.7s1.2-2.7,2.7-2.7S41.5,142.7,41.5,144.2"/>
					<path class="st3" d="M41.5,135c0,1.5-1.2,2.7-2.7,2.7s-2.7-1.2-2.7-2.7s1.2-2.7,2.7-2.7S41.5,133.5,41.5,135"/>
					<path class="st4" d="M61.1,119.2c0,1.5-1.2,2.7-2.7,2.7s-2.7-1.2-2.7-2.7s1.2-2.7,2.7-2.7S61.1,117.7,61.1,119.2"/>
					<path class="st3" d="M51.1,108.3c0,1.5-1.2,2.7-2.7,2.7s-2.7-1.2-2.7-2.7s1.2-2.7,2.7-2.7S51.1,106.8,51.1,108.3"/>
					<path class="st4" d="M34.7,108.3c0,1.5-1.2,2.7-2.7,2.7s-2.7-1.2-2.7-2.7s1.2-2.7,2.7-2.7S34.7,106.8,34.7,108.3"/>
					<path class="st3" d="M38.7,160c0,1.5-1.2,2.7-2.7,2.7s-2.7-1.2-2.7-2.7s1.2-2.7,2.7-2.7S38.7,158.5,38.7,160"/>
					<path class="st2" d="M41.9,145c0,1.5-1.2,2.7-2.7,2.7s-2.7-1.2-2.7-2.7s1.2-2.7,2.7-2.7S41.9,143.5,41.9,145"/>
					<path class="st4" d="M33.9,156.7c0,1.5-1.2,2.7-2.7,2.7s-2.7-1.2-2.7-2.7s1.2-2.7,2.7-2.7S33.9,155.2,33.9,156.7"/>
					<path class="st4" d="M36.7,141.7c0,1.5-1.2,2.7-2.7,2.7s-2.7-1.2-2.7-2.7s1.2-2.7,2.7-2.7S36.7,140.2,36.7,141.7"/>
					<path class="st4" d="M39.1,150c0,1.5-1.2,2.7-2.7,2.7s-2.7-1.2-2.7-2.7s1.2-2.7,2.7-2.7S39.1,148.5,39.1,150"/>
					<path class="st2" d="M106.7,108.3c0,1.5-1.2,2.7-2.7,2.7s-2.7-1.2-2.7-2.7s1.2-2.7,2.7-2.7S106.7,106.8,106.7,108.3"/>
					<path class="st2" d="M129.9,83.3c0,1.5-1.2,2.7-2.7,2.7s-2.7-1.2-2.7-2.7s1.2-2.7,2.7-2.7S129.9,81.8,129.9,83.3"/>
					<path class="st2" d="M123.5,84.2c0,1.5-1.2,2.7-2.7,2.7s-2.7-1.2-2.7-2.7s1.2-2.7,2.7-2.7S123.5,82.7,123.5,84.2"/>
					<path class="st2" d="M95.1,112.5c0,1.5-1.2,2.7-2.7,2.7s-2.7-1.2-2.7-2.7s1.2-2.7,2.7-2.7S95.1,111,95.1,112.5"/>
					<path class="st2" d="M82.7,120.8c0,1.5-1.2,2.7-2.7,2.7s-2.7-1.2-2.7-2.7s1.2-2.7,2.7-2.7S82.7,119.3,82.7,120.8"/>
					<path class="st2" d="M82.7,129.2c0,1.5-1.2,2.7-2.7,2.7s-2.7-1.2-2.7-2.7s1.2-2.7,2.7-2.7S82.7,127.7,82.7,129.2"/>
					<path class="st2" d="M58.7,126.7c0,1.5-1.2,2.7-2.7,2.7s-2.7-1.2-2.7-2.7c0-1.5,1.2-2.7,2.7-2.7S58.7,125.2,58.7,126.7"/>
					<path class="st2" d="M92.7,116.7c0,1.5-1.2,2.7-2.7,2.7s-2.7-1.2-2.7-2.7s1.2-2.7,2.7-2.7S92.7,115.2,92.7,116.7"/>
					<path class="st2" d="M95.5,125c0,1.5-1.2,2.7-2.7,2.7s-2.7-1.2-2.7-2.7s1.2-2.7,2.7-2.7S95.5,123.5,95.5,125"/>
					<path class="st2" d="M95.1,112.5c0,1.5-1.2,2.7-2.7,2.7s-2.7-1.2-2.7-2.7s1.2-2.7,2.7-2.7S95.1,111,95.1,112.5"/>
					<path class="st2" d="M82.7,129.2c0,1.5-1.2,2.7-2.7,2.7s-2.7-1.2-2.7-2.7s1.2-2.7,2.7-2.7S82.7,127.7,82.7,129.2"/>
					<path class="st2" d="M92.7,108.3c0,1.5-1.2,2.7-2.7,2.7s-2.7-1.2-2.7-2.7s1.2-2.7,2.7-2.7S92.7,106.8,92.7,108.3"/>
					<path class="st2" d="M105.9,100c0,1.5-1.2,2.7-2.7,2.7s-2.7-1.2-2.7-2.7s1.2-2.7,2.7-2.7S105.9,98.5,105.9,100"/>
					<path class="st2" d="M124.7,79.2c0,1.5-1.2,2.7-2.7,2.7s-2.7-1.2-2.7-2.7s1.2-2.7,2.7-2.7S124.7,77.7,124.7,79.2"/>
					<path class="st2" d="M95.1,62.5c0,1.5-1.2,2.7-2.7,2.7s-2.7-1.2-2.7-2.7c0-1.5,1.2-2.7,2.7-2.7S95.1,61,95.1,62.5"/>
					<path class="st2" d="M123.5,84.2c0,1.5-1.2,2.7-2.7,2.7s-2.7-1.2-2.7-2.7s1.2-2.7,2.7-2.7S123.5,82.7,123.5,84.2"/>
					<path class="st2" d="M129.9,83.3c0,1.5-1.2,2.7-2.7,2.7s-2.7-1.2-2.7-2.7s1.2-2.7,2.7-2.7S129.9,81.8,129.9,83.3"/>
					<path class="st2" d="M41.9,143.3c0,1.5-1.2,2.7-2.7,2.7s-2.7-1.2-2.7-2.7s1.2-2.7,2.7-2.7S41.9,141.8,41.9,143.3"/>
					<path class="st4" d="M56.3,120.8c0,1.5-1.2,2.7-2.7,2.7s-2.7-1.2-2.7-2.7s1.2-2.7,2.7-2.7S56.3,119.3,56.3,120.8"/>
					<path class="st4" d="M50.3,119.2c0,1.5-1.2,2.7-2.7,2.7s-2.7-1.2-2.7-2.7s1.2-2.7,2.7-2.7S50.3,117.7,50.3,119.2"/>
					<path class="st2" d="M44.7,137.5c0,1.5-1.2,2.7-2.7,2.7s-2.7-1.2-2.7-2.7s1.2-2.7,2.7-2.7S44.7,136,44.7,137.5"/>
					<path class="st4" d="M56.3,120.8c0,1.5-1.2,2.7-2.7,2.7s-2.7-1.2-2.7-2.7s1.2-2.7,2.7-2.7S56.3,119.3,56.3,120.8"/>
					<path class="st2" d="M65.1,112.5c0,1.5-1.2,2.7-2.7,2.7s-2.7-1.2-2.7-2.7s1.2-2.7,2.7-2.7S65.1,111,65.1,112.5"/>
					<path class="st2" d="M63.1,129.2c0,1.5-1.2,2.7-2.7,2.7s-2.7-1.2-2.7-2.7s1.2-2.7,2.7-2.7S63.1,127.7,63.1,129.2"/>
					<path class="st4" d="M50.3,119.2c0,1.5-1.2,2.7-2.7,2.7s-2.7-1.2-2.7-2.7s1.2-2.7,2.7-2.7S50.3,117.7,50.3,119.2"/>
					<path class="st3" d="M55.1,114.2c0,1.5-1.2,2.7-2.7,2.7s-2.7-1.2-2.7-2.7s1.2-2.7,2.7-2.7S55.1,112.7,55.1,114.2"/>
					<path class="st3" d="M67.9,95.8c0,1.5-1.2,2.7-2.7,2.7c-1.5,0-2.7-1.2-2.7-2.7s1.2-2.7,2.7-2.7C66.7,93.1,67.9,94.3,67.9,95.8"
						/>
					<path class="st3" d="M51.1,104.2c0,1.5-1.2,2.7-2.7,2.7s-2.7-1.2-2.7-2.7s1.2-2.7,2.7-2.7S51.1,102.7,51.1,104.2"/>
					<path class="st3" d="M67.9,89.2c0,1.5-1.2,2.7-2.7,2.7c-1.5,0-2.7-1.2-2.7-2.7s1.2-2.7,2.7-2.7C66.7,86.4,67.9,87.7,67.9,89.2"
						/>
					<path class="st3" d="M38.3,140.8c0,1.5-1.2,2.7-2.7,2.7s-2.7-1.2-2.7-2.7s1.2-2.7,2.7-2.7S38.3,139.3,38.3,140.8"/>
					<path class="st4" d="M41.9,143.3c0,1.5-1.2,2.7-2.7,2.7s-2.7-1.2-2.7-2.7s1.2-2.7,2.7-2.7S41.9,141.8,41.9,143.3"/>
					<path class="st2" d="M95.1,104.2c0,1.5-1.2,2.7-2.7,2.7s-2.7-1.2-2.7-2.7s1.2-2.7,2.7-2.7S95.1,102.7,95.1,104.2"/>
					<path class="st2" d="M82.7,129.2c0,1.5-1.2,2.7-2.7,2.7s-2.7-1.2-2.7-2.7s1.2-2.7,2.7-2.7S82.7,127.7,82.7,129.2"/>
					<path class="st2" d="M58.7,126.7c0,1.5-1.2,2.7-2.7,2.7s-2.7-1.2-2.7-2.7c0-1.5,1.2-2.7,2.7-2.7S58.7,125.2,58.7,126.7"/>
					<path class="st2" d="M95.5,125c0,1.5-1.2,2.7-2.7,2.7s-2.7-1.2-2.7-2.7s1.2-2.7,2.7-2.7S95.5,123.5,95.5,125"/>
					<path class="st2" d="M92.7,108.3c0,1.5-1.2,2.7-2.7,2.7s-2.7-1.2-2.7-2.7s1.2-2.7,2.7-2.7S92.7,106.8,92.7,108.3"/>
					<path class="st2" d="M124.7,91.7c0,1.5-1.2,2.7-2.7,2.7s-2.7-1.2-2.7-2.7s1.2-2.7,2.7-2.7S124.7,90.2,124.7,91.7"/>
					<path class="st2" d="M123.5,92.5c0,1.5-1.2,2.7-2.7,2.7s-2.7-1.2-2.7-2.7s1.2-2.7,2.7-2.7S123.5,91,123.5,92.5"/>
					<path class="st2" d="M143.1,85c0,1.5-1.2,2.7-2.7,2.7s-2.7-1.2-2.7-2.7s1.2-2.7,2.7-2.7S143.1,83.5,143.1,85"/>
					<path class="st2" d="M129.9,87.5c0,1.5-1.2,2.7-2.7,2.7s-2.7-1.2-2.7-2.7s1.2-2.7,2.7-2.7S129.9,86,129.9,87.5"/>
					<path class="st2" d="M142.7,70.8c0,1.5-1.2,2.7-2.7,2.7s-2.7-1.2-2.7-2.7s1.2-2.7,2.7-2.7S142.7,69.3,142.7,70.8"/>
					<path class="st2" d="M143.1,81.7c0,1.5-1.2,2.7-2.7,2.7s-2.7-1.2-2.7-2.7s1.2-2.7,2.7-2.7S143.1,80.2,143.1,81.7"/>
					<path class="st2" d="M109.5,95.8c0,1.5-1.2,2.7-2.7,2.7s-2.7-1.2-2.7-2.7s1.2-2.7,2.7-2.7S109.5,94.3,109.5,95.8"/>
					<path class="st2" d="M146.7,75c0,1.5-1.2,2.7-2.7,2.7s-2.7-1.2-2.7-2.7s1.2-2.7,2.7-2.7S146.7,73.5,146.7,75"/>
					<path class="st3" d="M38.3,140.8c0,1.5-1.2,2.7-2.7,2.7s-2.7-1.2-2.7-2.7s1.2-2.7,2.7-2.7S38.3,139.3,38.3,140.8"/>
					<path class="st4" d="M37.1,145.8c0,1.5-1.2,2.7-2.7,2.7s-2.7-1.2-2.7-2.7s1.2-2.7,2.7-2.7S37.1,144.3,37.1,145.8"/>
					<path class="st2" d="M41.9,133.3c0,1.5-1.2,2.7-2.7,2.7s-2.7-1.2-2.7-2.7s1.2-2.7,2.7-2.7S41.9,131.8,41.9,133.3"/>
					<path class="st2" d="M51.1,133.3c0,1.5-1.2,2.7-2.7,2.7s-2.7-1.2-2.7-2.7s1.2-2.7,2.7-2.7S51.1,131.8,51.1,133.3"/>
					<path class="st3" d="M75.9,135.8c0,1.5-1.2,2.7-2.7,2.7s-2.7-1.2-2.7-2.7s1.2-2.7,2.7-2.7S75.9,134.3,75.9,135.8"/>
					<path class="st2" d="M142.7,95.8c0,1.5-1.2,2.7-2.7,2.7s-2.7-1.2-2.7-2.7s1.2-2.7,2.7-2.7S142.7,94.3,142.7,95.8"/>
					<path class="st3" d="M59.1,140.8c0,1.5-1.2,2.7-2.7,2.7s-2.7-1.2-2.7-2.7s1.2-2.7,2.7-2.7S59.1,139.3,59.1,140.8"/>
					<path class="st2" d="M106.7,125c0,1.5-1.2,2.7-2.7,2.7s-2.7-1.2-2.7-2.7s1.2-2.7,2.7-2.7S106.7,123.5,106.7,125"/>
					<path class="st2" d="M44.7,141.7c0,1.5-1.2,2.7-2.7,2.7s-2.7-1.2-2.7-2.7s1.2-2.7,2.7-2.7S44.7,140.2,44.7,141.7"/>
					<path class="st2" d="M44.7,141.7c0,1.5-1.2,2.7-2.7,2.7s-2.7-1.2-2.7-2.7s1.2-2.7,2.7-2.7S44.7,140.2,44.7,141.7"/>
					<path class="st4" d="M36.7,145.8c0,1.5-1.2,2.7-2.7,2.7s-2.7-1.2-2.7-2.7s1.2-2.7,2.7-2.7S36.7,144.3,36.7,145.8"/>
					<path class="st3" d="M39.1,142.5c0,1.5-1.2,2.7-2.7,2.7s-2.7-1.2-2.7-2.7s1.2-2.7,2.7-2.7S39.1,141,39.1,142.5"/>
					<path class="st2" d="M63.1,125c0,1.5-1.2,2.7-2.7,2.7s-2.7-1.2-2.7-2.7s1.2-2.7,2.7-2.7S63.1,123.5,63.1,125"/>
					<path class="st2" d="M71.9,104.2c0,1.5-1.2,2.7-2.7,2.7s-2.7-1.2-2.7-2.7s1.2-2.7,2.7-2.7S71.9,102.7,71.9,104.2"/>
					<path class="st2" d="M71.9,104.2c0,1.5-1.2,2.7-2.7,2.7s-2.7-1.2-2.7-2.7s1.2-2.7,2.7-2.7S71.9,102.7,71.9,104.2"/>
					<path class="st2" d="M63.1,125c0,1.5-1.2,2.7-2.7,2.7s-2.7-1.2-2.7-2.7s1.2-2.7,2.7-2.7S63.1,123.5,63.1,125"/>
					<path class="st3" d="M41.9,136.7c0,1.5-1.2,2.7-2.7,2.7s-2.7-1.2-2.7-2.7s1.2-2.7,2.7-2.7S41.9,135.2,41.9,136.7"/>
					<path class="st4" d="M38.3,150c0,1.5-1.2,2.7-2.7,2.7s-2.7-1.2-2.7-2.7s1.2-2.7,2.7-2.7S38.3,148.5,38.3,150"/>
					<path class="st2" d="M41.9,141.7c0,1.5-1.2,2.7-2.7,2.7s-2.7-1.2-2.7-2.7s1.2-2.7,2.7-2.7S41.9,140.2,41.9,141.7"/>
					<path class="st4" d="M37.1,145.8c0,1.5-1.2,2.7-2.7,2.7s-2.7-1.2-2.7-2.7s1.2-2.7,2.7-2.7S37.1,144.3,37.1,145.8"/>
					<path class="st2" d="M63.1,125c0,1.5-1.2,2.7-2.7,2.7s-2.7-1.2-2.7-2.7s1.2-2.7,2.7-2.7S63.1,123.5,63.1,125"/>
					<path class="st2" d="M58.7,126.7c0,1.5-1.2,2.7-2.7,2.7s-2.7-1.2-2.7-2.7c0-1.5,1.2-2.7,2.7-2.7S58.7,125.2,58.7,126.7"/>
					<path class="st2" d="M63.1,125c0,1.5-1.2,2.7-2.7,2.7s-2.7-1.2-2.7-2.7s1.2-2.7,2.7-2.7S63.1,123.5,63.1,125"/>
					<path class="st2" d="M92.7,125c0,1.5-1.2,2.7-2.7,2.7s-2.7-1.2-2.7-2.7s1.2-2.7,2.7-2.7S92.7,123.5,92.7,125"/>
					<path class="st3" d="M41.5,135c0,1.5-1.2,2.7-2.7,2.7s-2.7-1.2-2.7-2.7s1.2-2.7,2.7-2.7S41.5,133.5,41.5,135"/>
					<path class="st4" d="M56.3,125c0,1.5-1.2,2.7-2.7,2.7s-2.7-1.2-2.7-2.7s1.2-2.7,2.7-2.7S56.3,123.5,56.3,125"/>
					<path class="st4" d="M50.7,137.5c0,1.5-1.2,2.7-2.7,2.7s-2.7-1.2-2.7-2.7s1.2-2.7,2.7-2.7S50.7,136,50.7,137.5"/>
					<path class="st4" d="M50.3,123.3c0,1.5-1.2,2.7-2.7,2.7s-2.7-1.2-2.7-2.7s1.2-2.7,2.7-2.7S50.3,121.8,50.3,123.3"/>
					<path class="st4" d="M45.9,137.5c0,1.5-1.2,2.7-2.7,2.7s-2.7-1.2-2.7-2.7s1.2-2.7,2.7-2.7S45.9,136,45.9,137.5"/>
					<path class="st4" d="M37.1,145.8c0,1.5-1.2,2.7-2.7,2.7s-2.7-1.2-2.7-2.7s1.2-2.7,2.7-2.7S37.1,144.3,37.1,145.8"/>
					<path class="st2" d="M65.1,112.5c0,1.5-1.2,2.7-2.7,2.7s-2.7-1.2-2.7-2.7s1.2-2.7,2.7-2.7S65.1,111,65.1,112.5"/>
					<path class="st4" d="M36.7,145.8c0,1.5-1.2,2.7-2.7,2.7s-2.7-1.2-2.7-2.7s1.2-2.7,2.7-2.7S36.7,144.3,36.7,145.8"/>
					<path class="st3" d="M38.7,160c0,1.5-1.2,2.7-2.7,2.7s-2.7-1.2-2.7-2.7s1.2-2.7,2.7-2.7S38.7,158.5,38.7,160"/>
					<path class="st3" d="M38.7,160c0,1.5-1.2,2.7-2.7,2.7s-2.7-1.2-2.7-2.7s1.2-2.7,2.7-2.7S38.7,158.5,38.7,160"/>
					<path class="st3" d="M51.1,144.2c0,1.5-1.2,2.7-2.7,2.7s-2.7-1.2-2.7-2.7s1.2-2.7,2.7-2.7S51.1,142.7,51.1,144.2"/>
					<path class="st3" d="M61.1,144.2c0,1.5-1.2,2.7-2.7,2.7s-2.7-1.2-2.7-2.7s1.2-2.7,2.7-2.7S61.1,142.7,61.1,144.2"/>
					<path class="st4" d="M39.1,144.2c0,1.5-1.2,2.7-2.7,2.7s-2.7-1.2-2.7-2.7s1.2-2.7,2.7-2.7S39.1,142.7,39.1,144.2"/>
					<path class="st4" d="M41.5,144.2c0,1.5-1.2,2.7-2.7,2.7s-2.7-1.2-2.7-2.7s1.2-2.7,2.7-2.7S41.5,142.7,41.5,144.2"/>
					<path class="st3" d="M38.3,148.3c0,1.5-1.2,2.7-2.7,2.7s-2.7-1.2-2.7-2.7s1.2-2.7,2.7-2.7S38.3,146.8,38.3,148.3"/>
					<path class="st4" d="M69.9,90c0,1.5-1.2,2.7-2.7,2.7s-2.7-1.2-2.7-2.7s1.2-2.7,2.7-2.7S69.9,88.5,69.9,90"/>
					<path class="st4" d="M30.7,116.7c0,1.5-1.2,2.7-2.7,2.7s-2.7-1.2-2.7-2.7s1.2-2.7,2.7-2.7S30.7,115.2,30.7,116.7"/>
					<path class="st3" d="M51.5,126.7c0,1.5-1.2,2.7-2.7,2.7s-2.7-1.2-2.7-2.7c0-1.5,1.2-2.7,2.7-2.7S51.5,125.2,51.5,126.7"/>
					<path class="st4" d="M45.5,140c0,1.5-1.2,2.7-2.7,2.7s-2.7-1.2-2.7-2.7s1.2-2.7,2.7-2.7S45.5,138.5,45.5,140"/>
					<path class="st2" d="M56.7,130c0,1.5-1.2,2.7-2.7,2.7s-2.7-1.2-2.7-2.7s1.2-2.7,2.7-2.7S56.7,128.5,56.7,130"/>
					<path class="st2" d="M63.1,130c0,1.5-1.2,2.7-2.7,2.7s-2.7-1.2-2.7-2.7s1.2-2.7,2.7-2.7S63.1,128.5,63.1,130"/>
					<path class="st2" d="M65.1,123.3c0,1.5-1.2,2.7-2.7,2.7s-2.7-1.2-2.7-2.7s1.2-2.7,2.7-2.7S65.1,121.8,65.1,123.3"/>
					<path class="st2" d="M71.9,108.3c0,1.5-1.2,2.7-2.7,2.7s-2.7-1.2-2.7-2.7s1.2-2.7,2.7-2.7S71.9,106.8,71.9,108.3"/>
					<path class="st2" d="M56.7,130c0,1.5-1.2,2.7-2.7,2.7s-2.7-1.2-2.7-2.7s1.2-2.7,2.7-2.7S56.7,128.5,56.7,130"/>
					<path class="st4" d="M34.3,151.7c0,1.5-1.2,2.7-2.7,2.7s-2.7-1.2-2.7-2.7s1.2-2.7,2.7-2.7S34.3,150.2,34.3,151.7"/>
					<path class="st2" d="M37.1,146.7c0,1.5-1.2,2.7-2.7,2.7s-2.7-1.2-2.7-2.7s1.2-2.7,2.7-2.7S37.1,145.2,37.1,146.7"/>
					<path class="st4" d="M35.1,150c0,1.5-1.2,2.7-2.7,2.7s-2.7-1.2-2.7-2.7s1.2-2.7,2.7-2.7S35.1,148.5,35.1,150"/>
					<path class="st4" d="M41.5,144.2c0,1.5-1.2,2.7-2.7,2.7s-2.7-1.2-2.7-2.7s1.2-2.7,2.7-2.7S41.5,142.7,41.5,144.2"/>
					<path class="st4" d="M36.7,145.8c0,1.5-1.2,2.7-2.7,2.7s-2.7-1.2-2.7-2.7s1.2-2.7,2.7-2.7S36.7,144.3,36.7,145.8"/>
					<path class="st4" d="M38.3,148.3c0,1.5-1.2,2.7-2.7,2.7s-2.7-1.2-2.7-2.7s1.2-2.7,2.7-2.7S38.3,146.8,38.3,148.3"/>
					<path class="st4" d="M39.1,143.3c0,1.5-1.2,2.7-2.7,2.7s-2.7-1.2-2.7-2.7s1.2-2.7,2.7-2.7S39.1,141.8,39.1,143.3"/>
					<path class="st2" d="M44.7,147.5c0,1.5-1.2,2.7-2.7,2.7s-2.7-1.2-2.7-2.7s1.2-2.7,2.7-2.7S44.7,146,44.7,147.5"/>
					<path class="st2" d="M41.9,145.8c0,1.5-1.2,2.7-2.7,2.7s-2.7-1.2-2.7-2.7s1.2-2.7,2.7-2.7S41.9,144.3,41.9,145.8"/>
					<path class="st2" d="M41.9,145.8c0,1.5-1.2,2.7-2.7,2.7s-2.7-1.2-2.7-2.7s1.2-2.7,2.7-2.7S41.9,144.3,41.9,145.8"/>
					<path class="st3" d="M44.7,138.3c0,1.5-1.2,2.7-2.7,2.7s-2.7-1.2-2.7-2.7s1.2-2.7,2.7-2.7S44.7,136.8,44.7,138.3"/>
					<path class="st4" d="M45.5,137.5c0,1.5-1.2,2.7-2.7,2.7s-2.7-1.2-2.7-2.7s1.2-2.7,2.7-2.7S45.5,136,45.5,137.5"/>
					<path class="st4" d="M45.9,137.5c0,1.5-1.2,2.7-2.7,2.7s-2.7-1.2-2.7-2.7s1.2-2.7,2.7-2.7S45.9,136,45.9,137.5"/>
					<path class="st4" d="M50.3,116.7c0,1.5-1.2,2.7-2.7,2.7s-2.7-1.2-2.7-2.7s1.2-2.7,2.7-2.7S50.3,115.2,50.3,116.7"/>
					<path class="st4" d="M50.7,138.3c0,1.5-1.2,2.7-2.7,2.7s-2.7-1.2-2.7-2.7s1.2-2.7,2.7-2.7S50.7,136.8,50.7,138.3"/>
					<path class="st3" d="M59.1,133.3c0,1.5-1.2,2.7-2.7,2.7s-2.7-1.2-2.7-2.7s1.2-2.7,2.7-2.7S59.1,131.8,59.1,133.3"/>
					<path class="st3" d="M51.1,108.3c0,1.5-1.2,2.7-2.7,2.7s-2.7-1.2-2.7-2.7s1.2-2.7,2.7-2.7S51.1,106.8,51.1,108.3"/>
					<path class="st3" d="M60.7,136.7c0,1.5-1.2,2.7-2.7,2.7s-2.7-1.2-2.7-2.7s1.2-2.7,2.7-2.7S60.7,135.2,60.7,136.7"/>
					<path class="st4" d="M69.9,103.3c0,1.5-1.2,2.7-2.7,2.7s-2.7-1.2-2.7-2.7s1.2-2.7,2.7-2.7S69.9,101.8,69.9,103.3"/>
					<path class="st4" d="M61.1,100c0,1.5-1.2,2.7-2.7,2.7s-2.7-1.2-2.7-2.7s1.2-2.7,2.7-2.7S61.1,98.5,61.1,100"/>
					<path class="st2" d="M95.1,108.3c0,1.5-1.2,2.7-2.7,2.7s-2.7-1.2-2.7-2.7s1.2-2.7,2.7-2.7S95.1,106.8,95.1,108.3"/>
					<path class="st2" d="M142.7,112.5c0,1.5-1.2,2.7-2.7,2.7s-2.7-1.2-2.7-2.7s1.2-2.7,2.7-2.7S142.7,111,142.7,112.5"/>
					<path class="st2" d="M82.7,126.7c0,1.5-1.2,2.7-2.7,2.7s-2.7-1.2-2.7-2.7c0-1.5,1.2-2.7,2.7-2.7S82.7,125.2,82.7,126.7"/>
					<path class="st2" d="M92.7,129.2c0,1.5-1.2,2.7-2.7,2.7s-2.7-1.2-2.7-2.7s1.2-2.7,2.7-2.7S92.7,127.7,92.7,129.2"/>
					<path class="st2" d="M47.5,126.7c0,1.5-1.2,2.7-2.7,2.7s-2.7-1.2-2.7-2.7c0-1.5,1.2-2.7,2.7-2.7S47.5,125.2,47.5,126.7"/>
					<path class="st2" d="M47.5,126.7c0,1.5-1.2,2.7-2.7,2.7s-2.7-1.2-2.7-2.7c0-1.5,1.2-2.7,2.7-2.7S47.5,125.2,47.5,126.7"/>
					<path class="st2" d="M47.5,126.7c0,1.5-1.2,2.7-2.7,2.7s-2.7-1.2-2.7-2.7c0-1.5,1.2-2.7,2.7-2.7S47.5,125.2,47.5,126.7"/>
					<path class="st2" d="M47.5,129.2c0,1.5-1.2,2.7-2.7,2.7s-2.7-1.2-2.7-2.7s1.2-2.7,2.7-2.7S47.5,127.7,47.5,129.2"/>
					<path class="st2" d="M56.7,130c0,1.5-1.2,2.7-2.7,2.7s-2.7-1.2-2.7-2.7s1.2-2.7,2.7-2.7S56.7,128.5,56.7,130"/>
					<path class="st2" d="M63.1,125c0,1.5-1.2,2.7-2.7,2.7s-2.7-1.2-2.7-2.7s1.2-2.7,2.7-2.7S63.1,123.5,63.1,125"/>
					<path class="st2" d="M58.7,123.3c0,1.5-1.2,2.7-2.7,2.7s-2.7-1.2-2.7-2.7s1.2-2.7,2.7-2.7S58.7,121.8,58.7,123.3"/>
					<path class="st3" d="M44.7,138.3c0,1.5-1.2,2.7-2.7,2.7s-2.7-1.2-2.7-2.7s1.2-2.7,2.7-2.7S44.7,136.8,44.7,138.3"/>
					<path class="st4" d="M39.1,143.3c0,1.5-1.2,2.7-2.7,2.7s-2.7-1.2-2.7-2.7s1.2-2.7,2.7-2.7S39.1,141.8,39.1,143.3"/>
					<path class="st4" d="M39.1,143.3c0,1.5-1.2,2.7-2.7,2.7s-2.7-1.2-2.7-2.7s1.2-2.7,2.7-2.7S39.1,141.8,39.1,143.3"/>
					<path class="st2" d="M44.7,147.5c0,1.5-1.2,2.7-2.7,2.7s-2.7-1.2-2.7-2.7s1.2-2.7,2.7-2.7S44.7,146,44.7,147.5"/>
					<path class="st2" d="M41.9,141.7c0,1.5-1.2,2.7-2.7,2.7s-2.7-1.2-2.7-2.7s1.2-2.7,2.7-2.7S41.9,140.2,41.9,141.7"/>
					<path class="st4" d="M50.7,126.7c0,1.5-1.2,2.7-2.7,2.7s-2.7-1.2-2.7-2.7c0-1.5,1.2-2.7,2.7-2.7S50.7,125.2,50.7,126.7"/>
					<path class="st4" d="M45.5,137.5c0,1.5-1.2,2.7-2.7,2.7s-2.7-1.2-2.7-2.7s1.2-2.7,2.7-2.7S45.5,136,45.5,137.5"/>
					<path class="st4" d="M45.9,141.7c0,1.5-1.2,2.7-2.7,2.7s-2.7-1.2-2.7-2.7s1.2-2.7,2.7-2.7S45.9,140.2,45.9,141.7"/>
					<path class="st4" d="M39.1,144.2c0,1.5-1.2,2.7-2.7,2.7s-2.7-1.2-2.7-2.7s1.2-2.7,2.7-2.7S39.1,142.7,39.1,144.2"/>
					<path class="st4" d="M39.1,144.2c0,1.5-1.2,2.7-2.7,2.7s-2.7-1.2-2.7-2.7s1.2-2.7,2.7-2.7S39.1,142.7,39.1,144.2"/>
					<path class="st4" d="M39.1,144.2c0,1.5-1.2,2.7-2.7,2.7s-2.7-1.2-2.7-2.7s1.2-2.7,2.7-2.7S39.1,142.7,39.1,144.2"/>
					<path class="st2" d="M75.1,108.3c0,1.5-1.2,2.7-2.7,2.7s-2.7-1.2-2.7-2.7s1.2-2.7,2.7-2.7S75.1,106.8,75.1,108.3"/>
					<path class="st2" d="M107.5,129.2c0,1.5-1.2,2.7-2.7,2.7s-2.7-1.2-2.7-2.7s1.2-2.7,2.7-2.7S107.5,127.7,107.5,129.2"/>
					<path class="st2" d="M65.1,123.3c0,1.5-1.2,2.7-2.7,2.7s-2.7-1.2-2.7-2.7s1.2-2.7,2.7-2.7S65.1,121.8,65.1,123.3"/>
					<path class="st2" d="M95.5,106.7c0,1.5-1.2,2.7-2.7,2.7s-2.7-1.2-2.7-2.7s1.2-2.7,2.7-2.7S95.5,105.2,95.5,106.7"/>
					<path class="st4" d="M60.3,120c0,1.5-1.2,2.7-2.7,2.7s-2.7-1.2-2.7-2.7s1.2-2.7,2.7-2.7S60.3,118.5,60.3,120"/>
					<path class="st2" d="M56.7,130c0,1.5-1.2,2.7-2.7,2.7s-2.7-1.2-2.7-2.7s1.2-2.7,2.7-2.7S56.7,128.5,56.7,130"/>
					<path class="st2" d="M63.1,125c0,1.5-1.2,2.7-2.7,2.7s-2.7-1.2-2.7-2.7s1.2-2.7,2.7-2.7S63.1,123.5,63.1,125"/>
					<path class="st2" d="M58.7,128.3c0,1.5-1.2,2.7-2.7,2.7s-2.7-1.2-2.7-2.7s1.2-2.7,2.7-2.7S58.7,126.8,58.7,128.3"/>
					<path class="st3" d="M41.5,156.7c0,1.5-1.2,2.7-2.7,2.7s-2.7-1.2-2.7-2.7s1.2-2.7,2.7-2.7S41.5,155.2,41.5,156.7"/>
					<path class="st2" d="M56.7,130c0,1.5-1.2,2.7-2.7,2.7s-2.7-1.2-2.7-2.7s1.2-2.7,2.7-2.7S56.7,128.5,56.7,130"/>
					<path class="st2" d="M50.7,134.2c0,1.5-1.2,2.7-2.7,2.7s-2.7-1.2-2.7-2.7s1.2-2.7,2.7-2.7S50.7,132.7,50.7,134.2"/>
					<path class="st2" d="M50.3,131.7c0,1.5-1.2,2.7-2.7,2.7s-2.7-1.2-2.7-2.7s1.2-2.7,2.7-2.7S50.3,130.2,50.3,131.7"/>
				</g>
				<g>
					<g transform="translate(218,0)">
						<path class="st1" d="M0,0h51v56H0V0z"/>
						<g>
							<g>
								<g transform="translate(0,16)">
									<path class="st1" d="M0,0L0,0L0,0L0,0z"/>
									<g>
										<g>
											<path class="st3" d="M10,5c0,2.8-2.2,5-5,5S0,7.8,0,5s2.2-5,5-5S10,2.2,10,5"/>
											<path class="st4" d="M10,20c0,2.8-2.2,5-5,5s-5-2.2-5-5s2.2-5,5-5S10,17.2,10,20"/>
											<path class="st2" d="M10,35c0,2.8-2.2,5-5,5s-5-2.2-5-5s2.2-5,5-5S10,32.2,10,35"/>
										</g>
										<g>
											<text transform="matrix(1 0 0 1 18 8)" class="st5 st6">Europe</text>
											<text transform="matrix(1 0 0 1 18 23)" class="st5 st6">Japan</text>
											<text transform="matrix(1 0 0 1 18 38)" class="st5 st6">USA</text>
										</g>
									</g>
								</g>
							</g>
							<g>
								<text transform="matrix(1 0 0 1 0 10)" class="st7 st8">Origin</text>
							</g>
						</g>
					</g>
				</g>
				<g>
					<g transform="translate(0.5,200.5)">
						<path class="st1" d="M0,0L0,0L0,0L0,0z"/>
						<g>
							<g>
								<line class="st9" x1="0" y1="0" x2="0" y2="5"/>
								<line class="st9" x1="40" y1="0" x2="40" y2="5"/>
								<line class="st9" x1="80" y1="0" x2="80" y2="5"/>
								<line class="st9" x1="120" y1="0" x2="120" y2="5"/>
								<line class="st9" x1="160" y1="0" x2="160" y2="5"/>
								<line class="st9" x1="200" y1="0" x2="200" y2="5"/>
							</g>
							<g>
								<text transform="matrix(1 0 0 1 -2.7808 16)" class="st5 st6">0</text>
								<text transform="matrix(1 0 0 1 31.6577 16)" class="st5 st6">100</text>
								<text transform="matrix(1 0 0 1 71.6577 16)" class="st5 st6">200</text>
								<text transform="matrix(1 0 0 1 111.6577 16)" class="st5 st6">300</text>
								<text transform="matrix(1 0 0 1 151.6577 16)" class="st5 st6">400</text>
								<text transform="matrix(1 0 0 1 191.6577 16)" class="st5 st6">500</text>
							</g>
							<g>
								<line class="st9" x1="0" y1="0" x2="200" y2="0"/>
							</g>
							<g>
								<text transform="matrix(1 0 0 1 64.2366 31)" class="st7 st8">Displacement</text>
							</g>
						</g>
					</g>
				</g>
				<g>
					<g transform="translate(0.5,0.5)">
						<path class="st1" d="M0,0L0,0L0,0L0,0z"/>
						<g>
							<g>
								<line class="st9" x1="0" y1="200" x2="-5" y2="200"/>
								<line class="st9" x1="0" y1="158" x2="-5" y2="158"/>
								<line class="st9" x1="0" y1="117" x2="-5" y2="117"/>
								<line class="st9" x1="0" y1="75" x2="-5" y2="75"/>
								<line class="st9" x1="0" y1="33" x2="-5" y2="33"/>
							</g>
							<g>
								<text transform="matrix(1 0 0 1 -12.5615 203)" class="st5 st6">0</text>
								<text transform="matrix(1 0 0 1 -18.123 161.3333)" class="st5 st6">50</text>
								<text transform="matrix(1 0 0 1 -23.6846 119.6667)" class="st5 st6">100</text>
								<text transform="matrix(1 0 0 1 -23.6846 78)" class="st5 st6">150</text>
								<text transform="matrix(1 0 0 1 -23.6846 36.3333)" class="st5 st6">200</text>
							</g>
							<g>
								<line class="st9" x1="0" y1="200" x2="0" y2="0"/>
							</g>
							<g>
								<text transform="matrix(6.123234e-17 -1 1 6.123234e-17 -34 131.7865)" class="st7 st8">Horsepower</text>
							</g>
						</g>
					</g>
				</g>
			</g>
		</g>
	</g>
</g>
</svg>
